# Blender 4.4.1
# www.blender.org
mtllib enemy2.mtl
o Book1_Open_Cube.106
v 3.161430 0.554354 0.484214
v -3.329160 0.728606 0.432393
v 3.161430 0.817057 0.970281
v -3.329160 1.097358 0.923933
v 3.161430 1.080144 1.821775
v -3.329160 1.506379 1.816125
v 3.156020 1.178661 1.975895
v -3.334560 1.640085 1.966883
v -3.329160 1.342060 1.345243
v 3.161430 0.989690 1.378849
v 3.161430 0.133665 -0.024536
v -3.329160 0.127456 -0.031677
v 3.161430 0.118349 -0.685455
v -3.329160 -0.058576 -0.767179
v 3.161430 -0.042175 -1.219108
v -3.329160 -0.329396 -1.314455
v 3.242890 -0.263315 -1.692326
v -3.224010 -0.857795 -2.129991
v 3.260070 -0.283508 -1.872776
v -3.206820 -0.913852 -2.324083
v -3.243750 -0.750479 -1.998281
v 3.223140 -0.186355 -1.557877
v -3.329160 0.081112 0.000352
v 3.161430 0.089447 -0.009810
v -3.329160 0.689475 0.458505
v 3.161430 0.514008 0.499134
v -3.329160 1.058860 0.948559
v 3.161430 0.778774 0.985295
v -3.329160 1.465110 1.841712
v 3.161430 1.039758 1.838341
v -3.329160 1.303179 1.369578
v 3.161430 0.951557 1.394274
v -3.334560 1.599679 1.991961
v 3.156020 1.138993 1.992170
v -3.329160 -0.099888 -0.741157
v 3.161430 0.080188 -0.670444
v -3.329160 -0.368443 -1.289708
v 3.161430 -0.079851 -1.204196
v -3.224010 -0.897189 -2.105386
v 3.242890 -0.301903 -1.676988
v -3.243750 -0.789369 -1.973962
v 3.223140 -0.224393 -1.542785
v -3.206820 -0.951989 -2.300272
v 3.260070 -0.320899 -1.857900
v -2.756910 3.800242 -2.052713
v -2.763040 1.130352 -0.882328
v 0.075110 3.090461 -1.740767
v -0.621640 0.954245 -0.804360
v 2.660880 3.889476 -2.053146
v -0.149730 2.701533 -1.570094
v 2.849220 1.430923 -1.116425
v 0.616220 1.236524 -1.014839
v 2.509570 3.692120 -1.801377
v -0.148160 2.735257 -1.413497
v 2.847760 1.232406 -0.862357
v 0.614670 1.038015 -0.760775
v -2.756900 3.786055 -2.085069
v -2.763030 1.116160 -0.914693
v 0.075120 3.076283 -1.773128
v -0.621630 0.940067 -0.836721
v 2.660960 3.875408 -2.085556
v -0.149630 2.687465 -1.602504
v 2.849300 1.416855 -1.148836
v 0.616310 1.222455 -1.047249
v 2.509370 3.677925 -1.833728
v -0.148380 2.721062 -1.445848
v 2.847560 1.218210 -0.894709
v 0.614450 1.023819 -0.793127
v 2.371310 3.538042 2.711015
v 2.377010 1.655364 1.595526
v -0.269150 2.894768 2.300575
v 0.377470 1.504437 1.499971
v 1.957220 3.381973 2.363122
v 2.261480 1.366434 1.167024
v -0.353370 3.047819 2.360881
v 0.358910 1.233266 1.221417
v -2.707350 3.256567 2.482724
v 0.395850 2.800329 2.319118
v -2.868830 1.466438 1.454580
v -0.802670 1.421803 1.426538
v 2.371310 3.520887 2.738989
v 2.377000 1.638209 1.623499
v -0.269150 2.877612 2.328535
v 0.377470 1.487282 1.527945
v 1.957220 3.365086 2.391257
v 2.261480 1.349547 1.195158
v -0.353370 3.030931 2.389016
v 0.358910 1.216387 1.249559
v -2.707350 3.239404 2.510693
v 0.395850 2.783166 2.347085
v -2.868830 1.449281 1.482540
v -0.802670 1.404655 1.454504
v -3.700630 0.265097 2.539149
v 3.700630 0.136704 2.505586
v 3.700630 0.240473 2.487303
v -3.700630 0.369279 2.515362
v 3.221730 0.243743 2.488016
v 3.221730 0.135164 2.505183
v -3.391220 0.263322 2.538686
v -3.391220 0.370239 2.515571
v -3.700630 0.217180 2.338457
v -3.700630 0.324295 2.315411
v 3.221730 0.087664 2.302492
v -3.391220 0.209791 2.336405
v 3.700630 0.098425 2.305480
v 3.700630 0.205377 2.288047
v 3.221730 0.217852 2.290917
v -3.391220 0.330922 2.316936
v 3.221730 2.097085 2.030959
v -3.391221 2.204712 2.031822
v 3.700630 -0.010759 1.741018
v 3.700630 -0.120888 1.173924
v 3.700630 -0.237020 0.278270
v 3.700630 0.103614 1.726403
v 3.700630 -0.001191 1.163730
v 3.700630 -0.127160 0.280266
v 3.221730 0.135842 1.735448
v 3.221730 0.047271 1.182335
v 3.221730 -0.084468 0.338029
v -3.391220 0.218927 1.758768
v -3.391220 0.105322 1.204621
v -3.391220 -0.068683 0.359386
v -3.700630 -0.214805 0.320123
v -3.700630 -0.048000 1.209103
v -3.700630 0.084768 1.773965
v -3.700630 -0.101424 0.315087
v -3.700630 0.073505 1.192406
v -3.700630 0.199409 1.753290
v 3.221730 -0.251303 0.251362
v 3.221730 -0.162795 1.153697
v 3.221730 -0.040643 1.730711
v -3.391220 -0.228883 0.293601
v -3.391220 -0.078575 1.194346
v -3.391220 0.064940 1.767126
v 3.221731 1.863185 1.808379
v 3.221730 0.459117 0.520717
v -3.391220 1.967345 1.809552
v -3.391220 0.491484 0.518896
v -3.700630 -0.116287 0.419300
v -3.700630 -0.233840 0.424089
v -3.391220 -0.084682 0.455474
v 3.221730 -0.105159 0.432037
v 3.700630 -0.149131 0.381706
v 3.700630 -0.262837 0.379979
v 3.221731 1.784594 2.540202
v -3.391220 1.896940 2.560870
v -3.391220 0.174759 0.725197
v -3.391221 1.205321 2.049589
v 3.221731 1.118759 2.025048
v 3.221730 0.140306 0.704549
v 3.221731 1.540324 1.423391
v -3.391220 1.628848 1.421225
v 3.221731 0.909010 1.662687
v -3.391221 0.983594 1.683496
v 3.221731 1.318669 1.169001
v 3.221731 0.986781 0.870653
v -3.391221 1.394715 1.164071
v -3.391221 1.036439 0.865414
v -3.391221 0.628073 1.164101
v -3.391221 0.886745 1.503415
v 3.221731 0.817933 1.484782
v 3.221731 0.572688 1.146970
v 3.221730 -0.285423 0.345622
v -3.391220 -0.254736 0.392302
v -3.700630 0.233754 -2.475191
v 3.700630 0.348068 -2.485353
v 3.700630 0.437333 -2.458457
v -3.700630 0.335137 -2.453543
v 3.221730 0.418187 -2.457537
v 3.221730 0.312231 -2.482167
v -3.391220 0.210079 -2.473086
v -3.391220 0.314769 -2.452564
v -3.700630 -0.259244 0.006642
v 3.700630 -0.254038 -0.033308
v -3.700630 -0.157168 -0.004093
v 3.700630 -0.153304 -0.030230
v 3.221730 -0.254472 -0.029974
v 3.221730 -0.152814 -0.033545
v -3.391220 -0.156492 -0.008667
v -3.391220 -0.259784 0.010784
v -3.700630 0.171126 -2.280039
v -3.700630 0.276113 -2.259529
v 3.221730 0.249383 -2.288159
v -3.391220 0.157427 -2.278617
v 3.700630 0.272513 -2.290560
v 3.700630 0.375730 -2.265451
v 3.221730 0.381100 -2.265770
v -3.391220 0.281629 -2.259857
v 3.221730 2.568876 -1.692755
v 3.221730 0.132707 -0.016992
v -3.391220 2.468190 -1.708508
v -3.391220 0.131355 -0.017839
v 3.700630 0.119074 -1.746297
v 3.700630 -0.024354 -1.201477
v 3.700630 -0.203380 -0.338684
v 3.700630 0.232349 -1.723289
v 3.700630 0.096141 -1.181950
v 3.700630 -0.090678 -0.332649
v 3.221730 0.269095 -1.727167
v 3.221730 0.154896 -1.193460
v 3.221730 -0.026604 -0.386738
v -3.391220 0.181451 -1.717919
v -3.391220 0.084623 -1.179693
v -3.391220 -0.047672 -0.368953
v -3.700630 -0.224270 -0.314710
v -3.700630 -0.086530 -1.183972
v -3.700630 0.038993 -1.733169
v -3.700630 -0.103737 -0.321625
v -3.700630 0.039234 -1.170802
v -3.700630 0.154352 -1.715059
v 3.221730 -0.229307 -0.308929
v 3.221730 -0.078297 -1.186290
v 3.221730 0.080757 -1.740016
v -3.391220 -0.253456 -0.281214
v -3.391220 -0.130080 -1.171710
v -3.391220 0.012001 -1.728744
v 3.221730 2.243131 -1.520880
v 3.221730 0.578675 -0.489008
v -3.391220 2.175844 -1.531168
v -3.391220 0.524645 -0.500643
v -3.700630 -0.120225 -0.419809
v -3.700630 -0.245380 -0.414206
v -3.391220 -0.067523 -0.458767
v 3.221730 -0.039493 -0.479487
v 3.700630 -0.102429 -0.432964
v 3.700630 -0.219265 -0.439727
v 3.221730 -0.089818 -0.030843
v 3.221730 2.429385 -2.269779
v -3.391220 2.314588 -2.267961
v -3.391220 -0.093074 -0.011373
v -3.391220 0.213796 -0.701199
v -3.391220 1.425702 -1.862382
v 3.221730 1.500748 -1.870499
v 3.221730 0.249668 -0.714304
v 3.221730 1.856953 -1.192232
v -3.391220 1.762922 -1.209968
v 3.221730 1.184511 -1.542317
v -3.391220 1.111949 -1.534827
v 3.221730 1.589533 -0.976277
v 3.221730 1.213576 -0.733161
v -3.391220 1.488757 -0.999360
v -3.391220 1.093694 -0.765428
v -3.391220 0.654779 -1.074070
v -3.391220 0.975546 -1.373449
v 3.221730 1.045743 -1.380131
v 3.221730 0.715475 -1.081865
v 3.221730 -0.255822 -0.404003
v -3.391220 -0.283510 -0.376946
vn 0.0194 0.9906 -0.1357
vn 0.0179 0.9852 -0.1705
vn 0.0254 0.9894 -0.1429
vn 0.0142 -0.9809 0.1942
vn -0.0009 -0.9748 0.2230
vn 0.0056 -0.9756 0.2196
vn 1.0000 -0.0000 -0.0000
vn 0.0050 0.2125 0.9771
vn -0.0005 0.2202 0.9755
vn 0.0054 0.2110 0.9775
vn -0.0008 0.1710 0.9853
vn 0.0050 0.1574 0.9875
vn -0.0014 0.1735 0.9848
vn -0.0108 -0.9667 0.2555
vn -0.0159 -0.9685 0.2486
vn 0.0066 0.9811 -0.1936
vn -0.0010 0.9805 -0.1966
vn -0.0136 0.9776 -0.2101
vn -0.0259 0.9771 -0.2112
vn -0.0154 -0.9704 0.2412
vn -0.0271 -0.9713 0.2365
vn 0.0053 0.1565 0.9877
vn -1.0000 -0.0000 -0.0000
vn -0.0320 -0.9700 0.2411
vn -0.0613 -0.9706 0.2329
vn -0.0219 0.9791 -0.2022
vn -0.0633 0.9754 -0.2112
vn 0.0227 -0.9772 0.2109
vn 0.0487 -0.9789 0.1984
vn 0.0545 0.9836 -0.1718
vn 0.0428 0.9869 -0.1555
vn 0.0305 0.9889 -0.1452
vn 0.0551 0.9962 0.0676
vn 0.0005 0.9967 0.0817
vn 0.0487 0.9828 -0.1780
vn 0.0773 0.9780 -0.1937
vn 0.0369 0.9793 -0.1990
vn 0.0859 0.9804 -0.1773
vn 0.0235 -0.9985 -0.0501
vn 0.0036 -0.9998 0.0193
vn 0.0003 -0.9993 -0.0382
vn 0.0501 -0.9861 0.1585
vn 0.0286 -0.9827 0.1829
vn 0.0119 -0.9882 0.1526
vn 0.0731 -0.9795 0.1879
vn -0.0178 -0.9941 0.1073
vn -0.0156 -0.9992 0.0370
vn -0.0443 -0.9734 0.2247
vn -0.0269 -0.9751 0.2202
vn -0.0413 0.9777 -0.2057
vn -0.0509 0.9986 0.0148
vn -0.0023 1.0000 -0.0047
vn -0.0881 0.9689 -0.2312
vn -0.0357 0.9698 -0.2411
vn -0.0711 0.9687 -0.2378
vn -0.0387 0.9734 -0.2260
vn -0.0189 -0.9919 0.1253
vn -0.0019 -0.9999 0.0152
vn -0.0805 -0.9715 0.2230
vn -0.0420 -0.9722 0.2302
vn -0.0437 -0.9684 -0.2456
vn -0.0665 -0.9786 -0.1949
vn -0.0601 -0.9819 -0.1798
vn 0.0562 0.9752 0.2142
vn -0.0606 0.9850 0.1618
vn -0.0559 0.9849 0.1640
vn -0.1231 0.9818 0.1444
vn -0.1240 0.9823 0.1401
vn 0.0199 -0.9403 -0.3399
vn -0.0492 -0.9661 -0.2535
vn 0.0612 -0.9643 -0.2578
vn 0.0217 -0.9423 -0.3340
vn 0.1114 0.9712 0.2108
vn 0.0594 0.9749 0.2146
vn -0.0074 0.9640 0.2660
vn -0.0083 0.9788 0.2046
vn 0.0050 0.9790 0.2038
vn 0.0325 -0.9485 -0.3151
vn 0.0534 -0.9492 -0.3100
vn 0.0322 -0.9542 -0.2976
vn 0.0178 0.2054 -0.9785
vn 0.0085 0.1940 -0.9810
vn 0.0086 0.1925 -0.9813
vn -0.0088 0.2302 -0.9731
vn -0.0255 0.2795 -0.9598
vn -0.0279 0.2884 -0.9571
vn -0.0297 -0.9647 -0.2617
vn -0.0197 -0.9646 -0.2631
vn 0.0249 0.9852 0.1696
vn -0.0026 0.9823 0.1873
vn 0.0124 0.9687 0.2478
vn -0.0279 0.9698 0.2424
vn -0.0522 -0.9559 -0.2890
vn -0.0474 -0.9596 -0.2774
vn -0.0079 0.2262 -0.9740
vn -0.0332 -0.9681 -0.2482
vn -0.0882 -0.9677 -0.2362
vn -0.0423 0.9816 0.1860
vn -0.0925 0.9751 0.2015
vn 0.0450 -0.9586 -0.2812
vn 0.0669 -0.9608 -0.2690
vn 0.0587 0.9701 0.2355
vn 0.0343 0.9770 0.2107
vn 0.0388 0.9569 0.2879
vn 0.1049 0.9602 0.2589
vn 0.0515 0.9711 0.2329
vn 0.0508 0.9636 0.2624
vn 0.1036 0.9652 0.2400
vn 0.0097 -0.9946 -0.1035
vn 0.0503 -0.9664 -0.2521
vn 0.0725 -0.9706 -0.2297
vn 0.0316 -0.9750 -0.2199
vn 0.0941 -0.9620 -0.2565
vn -0.0470 -0.9986 -0.0225
vn -0.0580 -0.9751 -0.2141
vn -0.0482 -0.9799 -0.1938
vn -0.0720 0.9694 0.2346
vn -0.0772 0.9750 0.2083
vn -0.1367 0.9692 0.2049
vn -0.1391 0.9687 0.2057
vn -0.0689 0.9781 0.1963
vn -0.0442 -0.9968 -0.0667
vn -0.1246 -0.9704 -0.2067
vn -0.0959 -0.9748 -0.2012
vn -0.1218 -0.9668 0.2247
vn -0.0682 -0.9546 0.2898
vn -0.1140 -0.9718 0.2062
vn -0.1019 0.9725 -0.2096
vn 0.0694 0.9882 -0.1363
vn -0.0952 0.9720 -0.2148
vn -0.1982 0.9651 -0.1709
vn -0.1999 0.9663 -0.1623
vn -0.0756 -0.9514 0.2985
vn 0.0364 -0.9626 0.2686
vn 0.0387 -0.9645 0.2611
vn 0.0845 -0.9820 0.1691
vn 0.1412 0.9829 -0.1178
vn 0.0738 0.9878 -0.1373
vn 0.0065 0.9848 -0.1735
vn 0.0030 -0.9822 0.1879
vn -0.0013 0.2226 0.9749
vn 0.0785 0.9934 -0.0836
vn 0.0267 -0.9982 0.0545
vn -0.0695 0.9703 -0.2315
vn 0.0632 -0.9673 -0.2455
vn 0.1113 0.9713 0.2104
vn -0.0375 0.9520 0.3038
vn 0.0672 -0.9302 -0.3608
vn 0.0168 0.2088 -0.9778
vn 0.1075 0.9736 0.2016
vn 0.0432 -0.9856 -0.1635
vn -0.1282 0.9494 0.2868
vn 0.0867 -0.9841 0.1547
vn 0.1404 0.9834 -0.1152
vn 0.0019 0.6224 -0.7827
vn 0.0239 0.7599 -0.6496
vn 0.0003 0.6111 -0.7916
vn 0.0271 0.8044 -0.5934
vn 0.0405 0.8748 -0.4829
vn 0.0263 0.7996 -0.5999
vn 0.0534 0.9448 -0.3234
vn 0.0638 0.9765 -0.2061
vn 0.0529 0.9428 -0.3290
vn 0.0541 0.7498 -0.6595
vn 0.0558 0.8406 -0.5388
vn 0.0558 0.8421 -0.5364
vn 0.0414 0.8667 -0.4970
vn 0.0514 0.9176 -0.3943
vn 0.0409 0.8640 -0.5018
vn -0.0250 0.9989 -0.0397
vn -0.0024 0.9729 -0.2311
vn -0.0007 0.9695 -0.2452
vn -0.0370 0.9540 -0.2975
vn -0.0199 0.9001 -0.4351
vn -0.0188 0.8961 -0.4434
vn -0.0284 0.7744 -0.6320
vn -0.0411 0.8631 -0.5033
vn -0.0281 0.7729 -0.6339
vn -0.0737 0.9572 -0.2799
vn -0.0828 0.9891 -0.1219
vn -0.0735 0.9564 -0.2827
vn -0.0510 0.9112 -0.4088
vn -0.0307 0.8522 -0.5223
vn -0.0299 0.8495 -0.5268
vn -0.0228 -0.7567 0.6533
vn 0.0003 -0.6134 0.7898
vn 0.0020 -0.6016 0.7988
vn -0.0397 -0.8733 0.4856
vn -0.0262 -0.8031 0.5953
vn -0.0253 -0.7983 0.6017
vn -0.0635 -0.9776 0.2008
vn -0.0529 -0.9465 0.3183
vn -0.0524 -0.9446 0.3240
vn -0.0529 -0.7466 0.6632
vn -0.0547 -0.8383 0.5424
vn -0.0529 -0.7448 0.6652
vn -0.0508 -0.9176 0.3942
vn -0.0406 -0.8670 0.4967
vn -0.0401 -0.8642 0.5015
vn 0.0033 -0.9748 0.2230
vn 0.0257 -0.9992 0.0306
vn 0.0016 -0.9715 0.2371
vn 0.0212 -0.9019 0.4315
vn 0.0377 -0.9543 0.2964
vn 0.0201 -0.8980 0.4396
vn 0.0290 -0.7722 0.6347
vn 0.0415 -0.8611 0.5067
vn 0.0417 -0.8625 0.5043
vn 0.0748 -0.9591 0.2732
vn 0.0836 -0.9898 0.1152
vn 0.0837 -0.9902 0.1119
vn 0.0317 -0.8523 0.5221
vn 0.0516 -0.9107 0.4097
vn 0.0308 -0.8496 0.5265
vn 0.9918 0.0472 0.1187
vn 0.9918 0.0471 0.1187
vn 0.0373 0.5264 0.8494
vn 0.0258 0.3802 0.9245
vn 0.0257 0.3795 0.9249
vn 0.0992 -0.3686 -0.9243
vn 0.1101 -0.5258 -0.8435
vn 0.1101 -0.5264 -0.8431
vn -0.9996 -0.0143 -0.0231
vn -0.9961 -0.0467 -0.0747
vn 0.9995 0.0114 0.0278
vn 0.9952 0.0361 0.0907
vn -0.9932 -0.0616 -0.0986
vn -0.9942 -0.0569 -0.0910
vn -0.9934 -0.0608 -0.0972
vn 0.9862 0.0610 0.1537
vn 0.9862 0.0609 0.1537
vn -0.9944 -0.0566 -0.0893
vn -0.0003 0.4015 0.9159
vn 0.0104 0.3575 0.9339
vn 0.0100 0.3577 0.9338
vn 0.0114 0.3568 0.9341
vn 0.0089 0.3595 0.9331
vn 0.0085 0.3597 0.9330
vn 0.0113 0.3580 0.9337
vn 0.0003 -0.4015 -0.9159
vn -0.0104 -0.3575 -0.9339
vn -0.0100 -0.3577 -0.9338
vn -0.0089 -0.3585 -0.9335
vn -0.0089 -0.3595 -0.9331
vn -0.0085 -0.3597 -0.9330
vn -0.0060 -0.3613 -0.9324
vn 0.2640 0.8835 -0.3870
vn 0.2640 0.8834 -0.3872
vn -1.0000 0.0018 -0.0011
vn -0.0896 -0.9122 0.3999
vn -0.0896 -0.9123 0.3997
vn 0.9582 -0.2621 0.1151
vn 0.9974 0.0664 -0.0264
vn -0.4150 0.8341 -0.3633
vn -0.4150 0.8342 -0.3631
vn -0.8982 -0.4041 0.1729
vn -0.8982 -0.4042 0.1727
vn 0.0975 -0.9129 0.3965
vn 0.0975 -0.9128 0.3965
vn 0.9918 0.1148 -0.0565
vn -0.3620 0.8545 -0.3725
vn -0.3620 0.8544 -0.3727
vn -0.9219 -0.3525 0.1609
vn 0.0975 -0.9116 0.3994
vn 0.0975 -0.9116 0.3993
vn 0.0068 0.5067 -0.8621
vn 0.0079 0.5059 -0.8626
vn 0.0118 0.5031 -0.8642
vn -0.0670 0.5066 -0.8596
vn -0.0662 0.5062 -0.8599
vn -0.0729 0.5097 -0.8573
vn 0.0142 0.5098 -0.8602
vn 0.0197 0.5141 -0.8575
vn -0.0010 0.4981 -0.8671
vn -0.0068 -0.5067 0.8621
vn -0.0079 -0.5059 0.8626
vn -0.0026 -0.5097 0.8603
vn 0.0670 -0.5066 0.8596
vn 0.0662 -0.5062 0.8599
vn 0.0598 -0.5027 0.8624
vn -0.0142 -0.5098 0.8601
vn -0.0197 -0.5141 0.8575
vn -0.0321 -0.5234 0.8515
vn -0.2776 0.8190 0.5022
vn -0.2776 0.8188 0.5025
vn 1.0000 0.0021 0.0016
vn 1.0000 0.0022 0.0014
vn 0.0890 -0.8491 -0.5207
vn -0.9275 -0.3188 -0.1955
vn -0.9275 -0.3187 -0.1956
vn -0.1235 0.8508 0.5107
vn 0.9917 0.1104 0.0663
vn 0.0453 -0.8567 -0.5138
vn 0.0453 -0.8565 -0.5141
vn -0.9489 -0.2705 -0.1624
vn -0.9489 -0.2706 -0.1623
vn -0.9970 0.0665 0.0408
vn 0.1511 0.8425 0.5170
vn 0.8077 -0.5025 -0.3084
vn 0.8077 -0.5026 -0.3082
vn -0.0255 -0.8521 -0.5228
vn -0.0255 -0.8522 -0.5226
vn 0.0107 0.6837 -0.7297
vn 0.0111 0.6891 -0.7245
vn 0.0106 0.6835 -0.7299
vn 0.0141 0.8530 0.5218
vn 0.0161 0.8636 0.5040
vn 0.0163 0.8643 0.5028
vn -0.0086 -0.8899 0.4560
vn -0.0078 -0.8809 0.4733
vn -0.0078 -0.8807 0.4736
vn 0.0002 0.8319 -0.5549
vn 0.0041 0.8534 -0.5213
vn -0.0001 0.8304 -0.5572
vn 0.0104 0.7544 -0.6564
vn 0.0119 0.7656 -0.6433
vn 0.0103 0.7538 -0.6571
vn 0.0030 0.5376 -0.8432
vn 0.0047 0.5517 -0.8340
vn 0.0029 0.5366 -0.8438
vn -0.0094 -0.8650 0.5017
vn -0.0081 -0.8557 0.5173
vn -0.0080 -0.8553 0.5180
vn -0.0077 -0.6105 0.7920
vn -0.0051 -0.5959 0.8031
vn -0.0048 -0.5944 0.8041
vn -0.0025 -0.8333 0.5527
vn -0.0004 -0.8516 0.5241
vn -0.0026 -0.8325 0.5540
vn -0.0040 -0.7140 0.7001
vn -0.0015 -0.6968 0.7173
vn -0.0014 -0.6956 0.7184
vn 0.0057 0.6673 -0.7448
vn 0.0078 0.6415 -0.7671
vn 0.0079 0.6403 -0.7681
vn -0.0052 -0.7958 0.6055
vn -0.0067 -0.8086 0.5883
vn -0.0068 -0.8092 0.5875
vn 0.0090 0.7399 -0.6727
vn 0.0103 0.7534 -0.6574
vn 0.0090 0.7394 -0.6732
vn -0.0091 0.4684 0.8835
vn -0.0067 0.5168 0.8561
vn -0.0066 0.5186 0.8550
vn -0.0167 0.9646 -0.2630
vn -0.0144 0.9715 -0.2366
vn -0.0168 0.9642 -0.2647
vn 0.0075 -0.7636 -0.6456
vn 0.0076 -0.7599 -0.6500
vn 0.0075 -0.7637 -0.6455
vn -0.0067 0.7299 0.6836
vn -0.0007 0.7724 0.6351
vn -0.0002 0.7753 0.6316
vn -0.0079 0.6464 0.7630
vn -0.0107 0.6156 0.7880
vn -0.0108 0.6140 0.7893
vn -0.0107 0.3627 0.9318
vn -0.0054 0.4179 0.9085
vn -0.0050 0.4219 0.9066
vn 0.0071 -0.7220 -0.6918
vn 0.0073 -0.7202 -0.6938
vn 0.0071 -0.7221 -0.6917
vn 0.0039 -0.4132 -0.9106
vn 0.0063 -0.3969 -0.9179
vn 0.0036 -0.4151 -0.9098
vn 0.0008 -0.7653 -0.6437
vn 0.0029 -0.7850 -0.6195
vn 0.0030 -0.7858 -0.6184
vn 0.0021 -0.6442 -0.7649
vn 0.0046 -0.6209 -0.7839
vn 0.0020 -0.6457 -0.7636
vn -0.0109 0.5110 0.8595
vn -0.0138 0.5415 0.8406
vn -0.0108 0.5095 0.8604
vn 0.0063 -0.6707 -0.7417
vn 0.0054 -0.6818 -0.7315
vn 0.0064 -0.6702 -0.7421
vn -0.0111 0.6276 0.7785
vn -0.0120 0.6098 0.7925
vn -0.0121 0.6091 0.7930
vn 0.0258 0.7704 -0.6370
vn 0.0414 0.8790 -0.4751
vn 0.0644 0.9777 -0.1997
vn 0.0541 0.7480 -0.6615
vn 0.0520 0.9199 -0.3887
vn -0.0269 0.9994 -0.0232
vn -0.0381 0.9569 -0.2878
vn -0.0413 0.8645 -0.5009
vn -0.0829 0.9895 -0.1186
vn -0.0527 0.9154 -0.3992
vn -0.0248 -0.7677 0.6404
vn -0.0406 -0.8775 0.4779
vn -0.0640 -0.9788 0.1944
vn -0.0548 -0.8399 0.5399
vn -0.0513 -0.9200 0.3887
vn 0.0276 -0.9995 0.0140
vn 0.0388 -0.9571 0.2870
vn 0.0288 -0.7707 0.6366
vn 0.0746 -0.9582 0.2760
vn 0.0532 -0.9149 0.4003
vn 0.0374 0.5270 0.8491
vn 0.0991 -0.3678 -0.9246
vn 0.9862 0.0609 0.1538
vn -0.0003 0.4016 0.9158
vn 0.0089 0.3585 0.9335
vn 0.0060 0.3613 0.9324
vn 0.0003 -0.4016 -0.9158
vn -0.0114 -0.3568 -0.9341
vn -0.0113 -0.3580 -0.9337
vn 0.0026 0.5097 -0.8603
vn -0.0598 0.5027 -0.8624
vn 0.0321 0.5234 -0.8515
vn -0.0118 -0.5031 0.8642
vn 0.0729 -0.5097 0.8573
vn 0.0010 -0.4981 0.8671
vn 0.0111 0.6893 -0.7244
vn 0.0139 0.8522 0.5230
vn -0.0086 -0.8901 0.4557
vn 0.0043 0.8548 -0.5189
vn 0.0120 0.7662 -0.6425
vn 0.0048 0.5527 -0.8334
vn -0.0095 -0.8654 0.5009
vn -0.0079 -0.6119 0.7909
vn -0.0003 -0.8525 0.5228
vn -0.0042 -0.7152 0.6989
vn 0.0056 0.6685 -0.7437
vn -0.0051 -0.7953 0.6063
vn 0.0103 0.7539 -0.6569
vn -0.0092 0.4666 0.8844
vn -0.0142 0.9719 -0.2349
vn 0.0076 -0.7598 -0.6501
vn -0.0071 0.7269 0.6867
vn -0.0078 0.6481 0.7615
vn -0.0111 0.3589 0.9333
vn 0.0073 -0.7201 -0.6939
vn 0.0066 -0.3950 -0.9187
vn 0.0007 -0.7644 -0.6447
vn 0.0048 -0.6194 -0.7850
vn -0.0139 0.5430 0.8396
vn 0.0054 -0.6823 -0.7310
vn -0.0110 0.6282 0.7779
vt 0.020713 0.374763
vt 0.000002 0.359483
vt 0.020713 0.359483
vt 0.320088 0.015281
vt 0.340799 0.000000
vt 0.340799 0.015281
vt 0.859516 0.640515
vt 0.867362 0.625236
vt 0.867362 0.640515
vt 0.963782 0.013385
vt 0.971620 0.000000
vt 0.971620 0.013380
vt 0.963782 0.320061
vt 0.971620 0.299346
vt 0.971620 0.320056
vt 0.626791 0.000000
vt 0.626791 0.015281
vt 0.306705 0.374763
vt 0.306705 0.359483
vt 0.320086 0.374763
vt 0.320086 0.359483
vt 0.640173 0.000000
vt 0.640173 0.015281
vt 0.963782 0.299351
vt 0.878402 0.792377
vt 0.870556 0.812618
vt 0.870556 0.792377
vt 0.875209 0.625236
vt 0.867363 0.640517
vt 0.867363 0.625236
vt 0.626791 0.058306
vt 0.640173 0.058306
vt 0.306705 0.316457
vt 0.320086 0.316457
vt 0.340799 0.058306
vt 0.859516 0.683538
vt 0.867362 0.683538
vt 0.320088 0.058306
vt 0.000002 0.316457
vt 0.020713 0.316457
vt 0.020711 0.207615
vt 0.000000 0.187374
vt 0.020711 0.187374
vt 0.020713 0.273432
vt 0.000002 0.214263
vt 0.020713 0.214263
vt 0.000002 0.273432
vt 0.320087 0.187388
vt 0.340798 0.167148
vt 0.340798 0.187388
vt 0.320088 0.160501
vt 0.340799 0.101331
vt 0.340800 0.160501
vt 0.320088 0.101331
vt 0.856323 0.812605
vt 0.864169 0.792366
vt 0.864169 0.812605
vt 0.859516 0.785726
vt 0.867362 0.726560
vt 0.867362 0.785726
vt 0.859516 0.726560
vt 0.626790 0.167148
vt 0.626790 0.187388
vt 0.626792 0.101331
vt 0.626792 0.160501
vt 0.320084 0.207615
vt 0.306703 0.187374
vt 0.320084 0.187374
vt 0.320086 0.273432
vt 0.306705 0.214262
vt 0.320086 0.214262
vt 0.306705 0.273432
vt 0.640171 0.167148
vt 0.640171 0.187388
vt 0.640173 0.101331
vt 0.640173 0.160501
vt 0.875209 0.640517
vt 0.867363 0.683542
vt 0.875209 0.683542
vt 0.867363 0.726567
vt 0.875209 0.785737
vt 0.867363 0.785737
vt 0.875209 0.726567
vt 0.306703 0.207615
vt 0.320087 0.167148
vt 0.000000 0.207615
vt 0.000002 0.015281
vt 0.020713 0.000000
vt 0.020713 0.015281
vt 0.340800 0.374763
vt 0.320089 0.359482
vt 0.340800 0.359482
vt 0.867362 0.999974
vt 0.859516 0.984694
vt 0.867362 0.984694
vt 0.328870 0.374763
vt 0.336712 0.388146
vt 0.328870 0.388139
vt 0.328870 0.674008
vt 0.336712 0.694717
vt 0.328870 0.694710
vt 0.626792 0.374763
vt 0.626792 0.359482
vt 0.306705 0.000000
vt 0.306705 0.015281
vt 0.320087 0.000000
vt 0.320087 0.015281
vt 0.640173 0.374763
vt 0.640173 0.359482
vt 0.336712 0.674015
vt 0.878402 0.832859
vt 0.870556 0.832859
vt 0.867363 0.984719
vt 0.875209 1.000000
vt 0.867363 1.000000
vt 0.626792 0.316457
vt 0.640173 0.316457
vt 0.306705 0.058306
vt 0.320087 0.058306
vt 0.340800 0.316457
vt 0.859516 0.941672
vt 0.867362 0.941672
vt 0.320089 0.316457
vt 0.000002 0.058306
vt 0.020713 0.058306
vt 0.020711 0.167133
vt 0.000002 0.160501
vt 0.020713 0.101331
vt 0.020713 0.160501
vt 0.000002 0.101331
vt 0.340798 0.207629
vt 0.340800 0.273432
vt 0.320088 0.214263
vt 0.340800 0.214263
vt 0.320089 0.273432
vt 0.864169 0.832844
vt 0.867362 0.898650
vt 0.859516 0.839484
vt 0.867362 0.839484
vt 0.859516 0.898650
vt 0.626790 0.207629
vt 0.626792 0.273432
vt 0.626792 0.214263
vt 0.320084 0.167133
vt 0.306705 0.160501
vt 0.320086 0.101331
vt 0.320086 0.160501
vt 0.306705 0.101331
vt 0.640171 0.207629
vt 0.640173 0.273432
vt 0.640173 0.214263
vt 0.867363 0.941694
vt 0.875209 0.984719
vt 0.867363 0.898669
vt 0.875209 0.941694
vt 0.875209 0.839499
vt 0.867363 0.839499
vt 0.875209 0.898669
vt 0.306703 0.167133
vt 0.856323 0.832844
vt 0.320087 0.207629
vt 0.000000 0.167133
vt 0.000002 0.374763
vt 0.320088 0.000000
vt 0.859516 0.625236
vt 0.963782 0.000005
vt 0.878402 0.812618
vt 0.856323 0.792366
vt 0.000002 0.000000
vt 0.320089 0.374763
vt 0.859516 0.999974
vt 0.336712 0.374770
vt 0.642138 0.112211
vt 0.922110 0.160628
vt 0.641444 0.156262
vt 0.642737 0.073916
vt 0.922805 0.116577
vt 0.643688 0.012469
vt 0.923881 0.047565
vt 0.643214 0.043199
vt 0.924316 0.004366
vt 0.924355 0.016835
vt 0.923403 0.078282
vt 0.640767 0.200383
vt 0.921433 0.204750
vt 0.640173 0.238696
vt 0.643072 0.289775
vt 0.923799 0.279206
vt 0.643760 0.300420
vt 0.924355 0.291404
vt 0.644315 0.312618
vt 0.920839 0.243062
vt 0.642417 0.473247
vt 0.922389 0.424830
vt 0.923083 0.468881
vt 0.641723 0.429195
vt 0.921791 0.386533
vt 0.640647 0.360183
vt 0.920839 0.325087
vt 0.921314 0.355817
vt 0.640212 0.316984
vt 0.920878 0.312618
vt 0.641125 0.390899
vt 0.923761 0.513002
vt 0.924355 0.551314
vt 0.643095 0.517368
vt 0.921455 0.602394
vt 0.640728 0.591824
vt 0.641416 0.581179
vt 0.920768 0.613038
vt 0.640173 0.604021
vt 0.643688 0.555680
vt 0.884621 0.637715
vt 0.881352 0.668460
vt 0.878486 0.668482
vt 0.881737 0.900107
vt 0.883098 0.889450
vt 0.884642 0.900084
vt 0.904787 0.781463
vt 0.917405 0.737459
vt 0.920363 0.737479
vt 0.916790 0.825640
vt 0.901416 0.781440
vt 0.287766 0.374765
vt 0.290742 0.655438
vt 0.287766 0.655440
vt 0.328870 0.653580
vt 0.326059 0.374763
vt 0.328870 0.374774
vt 0.898046 0.781444
vt 0.885387 0.737454
vt 0.901416 0.781417
vt 0.886083 0.825628
vt 0.883125 0.825651
vt 0.918080 0.637713
vt 0.917363 0.625236
vt 0.920344 0.625257
vt 0.921011 0.925647
vt 0.921542 0.937831
vt 0.918106 0.925627
vt 0.885326 0.625236
vt 0.887660 0.637691
vt 0.881214 0.912299
vt 0.878402 0.912321
vt 0.921497 0.699177
vt 0.924355 0.699197
vt 0.919748 0.825660
vt 0.920348 0.863974
vt 0.921376 0.668456
vt 0.915041 0.637692
vt 0.919644 0.915001
vt 0.922510 0.915021
vt 0.882429 0.737477
vt 0.881260 0.699179
vt 0.882561 0.863963
vt 0.879703 0.863986
vt 0.878402 0.699201
vt 0.880231 0.889473
vt 0.924242 0.668476
vt 0.923206 0.863994
vt 0.761385 0.658007
vt 0.640173 0.752183
vt 0.640173 0.625236
vt 0.382437 0.794214
vt 0.457212 0.663238
vt 0.488433 0.755113
vt 0.105995 0.814281
vt 0.190562 0.693810
vt 0.216474 0.787326
vt 0.609644 0.787708
vt 0.488433 0.693531
vt 0.609644 0.660761
vt 0.105995 0.824533
vt 0.031221 0.693559
vt 0.105995 0.691081
vt 0.326951 0.814281
vt 0.242385 0.693812
vt 0.326951 0.691081
vt 0.323121 0.496222
vt 0.321596 0.374792
vt 0.323121 0.374763
vt 0.287529 0.374763
vt 0.286001 0.500836
vt 0.286001 0.374763
vt 0.348768 0.660760
vt 0.350281 0.753495
vt 0.348768 0.753479
vt 0.327342 0.754797
vt 0.328870 0.653581
vt 0.328870 0.754798
vt 0.286001 0.500905
vt 0.287527 0.614515
vt 0.286001 0.614585
vt 0.324645 0.374817
vt 0.323121 0.497980
vt 0.321596 0.680333
vt 0.323122 0.612648
vt 0.323122 0.680408
vt 0.350281 0.757209
vt 0.351794 0.660760
vt 0.351794 0.757198
vt 0.324533 0.508947
vt 0.326059 0.622559
vt 0.324533 0.622634
vt 0.323120 0.496310
vt 0.321596 0.612515
vt 0.321596 0.496251
vt 0.343001 0.739406
vt 0.344528 0.660834
vt 0.344528 0.739479
vt 0.351794 0.757226
vt 0.353307 0.660761
vt 0.353307 0.757204
vt 0.578600 0.906525
vt 0.504938 0.795626
vt 0.578600 0.787708
vt 0.206557 0.815985
vt 0.124574 0.909589
vt 0.728714 0.752183
vt 0.644971 0.841439
vt 0.761385 0.879714
vt 0.835048 0.768815
vt 0.851554 0.854046
vt 0.382437 0.795917
vt 0.464419 0.889523
vt 0.382437 0.897192
vt 0.761385 0.625236
vt 0.838894 0.719958
vt 0.761385 0.760897
vt 0.320181 0.489421
vt 0.321596 0.374763
vt 0.321596 0.489400
vt 0.320177 0.685570
vt 0.321596 0.590956
vt 0.321596 0.685592
vt 0.345931 0.747003
vt 0.344528 0.660760
vt 0.345931 0.660784
vt 0.341604 0.730171
vt 0.340186 0.660802
vt 0.341604 0.660760
vt 0.323121 0.498150
vt 0.324530 0.598456
vt 0.323121 0.598572
vt 0.320181 0.590927
vt 0.321600 0.489428
vt 0.321600 0.590934
vt 0.343002 0.660861
vt 0.341604 0.743106
vt 0.348768 0.660787
vt 0.347349 0.753449
vt 0.347349 0.660760
vt 0.347349 0.750032
vt 0.345931 0.660801
vt 0.324645 0.508810
vt 0.326059 0.374825
vt 0.326059 0.508872
vt 0.286001 0.614618
vt 0.287419 0.684996
vt 0.286001 0.685030
vt 0.324530 0.598574
vt 0.323128 0.687956
vt 0.323128 0.598572
vt 0.959076 0.472880
vt 0.937848 0.515903
vt 0.932768 0.472880
vt 0.285994 0.691081
vt 0.000003 0.673498
vt 0.285995 0.673497
vt 0.932509 -0.000000
vt 0.959458 0.031400
vt 0.924355 0.042255
vt 0.320087 0.660896
vt 0.290742 0.374763
vt 0.320087 0.374929
vt 0.929061 0.128946
vt 0.950289 0.171972
vt 0.932933 0.171971
vt 0.411291 0.660759
vt 0.400793 0.374766
vt 0.411291 0.374767
vt 0.961680 0.057511
vt 0.929107 0.064088
vt 0.285997 0.575961
vt 0.000008 0.532948
vt 0.286001 0.532948
vt 0.931882 0.074580
vt 0.963782 0.074580
vt 0.000001 0.647381
vt 0.285993 0.647381
vt 0.955628 0.343943
vt 0.928679 0.375341
vt 0.926909 0.357754
vt 0.285992 0.607629
vt 0.000005 0.575961
vt 0.956255 0.418518
vt 0.926457 0.401450
vt 0.959030 0.408027
vt 0.928023 0.151731
vt 0.928023 0.171971
vt 0.400793 0.660758
vt 0.378949 0.374763
vt 0.378949 0.660755
vt 0.336712 0.374768
vt 0.960114 0.495664
vt 0.955204 0.515903
vt 0.488433 0.374765
vt 0.465651 0.660758
vt 0.465651 0.374766
vt 0.433974 0.374768
vt 0.963782 0.386195
vt 0.954789 0.441196
vt 0.924667 0.441196
vt 0.933348 0.097260
vt 0.955369 0.128946
vt -0.000000 0.630307
vt 0.285992 0.630307
vt 0.924355 0.418518
vt 0.433974 0.660760
vt 0.959076 0.558925
vt 0.000003 0.392355
vt 0.285994 0.374763
vt 0.285995 0.392355
vt 0.959458 0.312543
vt 0.932509 0.343943
vt 0.924355 0.301688
vt 0.382437 0.660761
vt 0.353306 0.947009
vt 0.353306 0.661140
vt 0.929061 0.214997
vt 0.576078 0.374766
vt 0.565592 0.660760
vt 0.565592 0.374768
vt 0.961680 0.286432
vt 0.929107 0.279855
vt 0.285997 0.489911
vt 0.931882 0.269363
vt 0.000002 0.418461
vt 0.285994 0.418461
vt 0.955628 0.687862
vt 0.928679 0.656465
vt 0.963782 0.645611
vt 0.000005 0.489911
vt 0.285993 0.458205
vt 0.926457 0.630356
vt 0.956255 0.613288
vt 0.959030 0.623779
vt 0.928023 0.192213
vt 0.597901 0.374763
vt 0.576078 0.660758
vt 0.640173 0.374768
vt 0.597901 0.660755
vt 0.960114 0.536142
vt 0.960114 0.515903
vt 0.511220 0.660758
vt 0.511220 0.374766
vt 0.542916 0.374768
vt 0.954789 0.590610
vt 0.932768 0.558925
vt 0.955369 0.214997
vt 0.933348 0.246684
vt 0.963782 0.269363
vt 0.000000 0.435525
vt 0.285992 0.435525
vt 0.924355 0.613288
vt 0.924667 0.590610
vt 0.542916 0.660760
vt 0.643650 -0.000000
vt 0.923112 0.268561
vt 0.640173 0.329453
vt 0.920212 0.625236
vt 0.326059 0.653569
vt 0.924355 0.937851
vt 0.882346 0.625260
vt 0.745027 0.749537
vt 0.382437 0.660760
vt 0.504791 0.785061
vt 0.000000 0.785435
vt 0.216474 0.787329
vt 0.287528 0.500836
vt 0.350281 0.660776
vt 0.327342 0.653580
vt 0.287527 0.500836
vt 0.324645 0.498034
vt 0.321596 0.612574
vt 0.350281 0.660770
vt 0.323120 0.612574
vt 0.343001 0.660760
vt 0.351794 0.660784
vt 0.488433 0.880859
vt 0.206557 0.917258
vt 0.719529 0.887532
vt 0.482999 0.794214
vt 0.849725 0.631233
vt 0.320181 0.374784
vt 0.320177 0.590934
vt 0.344528 0.746979
vt 0.340186 0.730212
vt 0.324530 0.498034
vt 0.343002 0.743206
vt 0.348768 0.753476
vt 0.345931 0.750073
vt 0.324645 0.374763
vt 0.287419 0.614585
vt 0.324530 0.687958
vt 0.000001 0.691081
vt 0.961228 0.013812
vt 0.290742 0.660730
vt 0.000000 0.607629
vt 0.336712 0.660760
vt 0.488433 0.660757
vt 0.963470 0.097260
vt 0.961228 0.330131
vt 0.382437 0.946629
vt 0.926909 0.674051
vt 0.000000 0.458205
vt 0.640173 0.660760
vt 0.488433 0.660758
vt 0.963470 0.246684
s 1
usemtl DarkRed
f 97/1/1 106/2/2 107/3/3
f 105/4/4 98/5/5 103/6/6
f 106/7/7 94/8/7 105/9/7
f 100/10/8 93/11/9 99/12/10
f 95/13/11 98/14/12 94/15/13
f 103/6/6 99/16/14 104/17/15
f 100/18/16 107/3/3 108/19/17
f 96/20/18 108/19/17 102/21/19
f 104/17/15 93/22/20 101/23/21
f 97/24/22 99/12/10 98/14/12
f 126/25/23 173/26/23 123/27/23
f 96/28/23 101/29/23 93/30/23
f 134/31/24 101/23/21 125/32/25
f 102/21/19 120/33/26 128/34/27
f 131/35/28 104/17/15 134/31/24
f 114/36/7 105/9/7 111/37/7
f 111/38/29 103/6/6 131/35/28
f 107/3/3 114/39/30 117/40/31
f 119/41/32 176/42/33 178/43/34
f 118/44/35 143/45/36 142/46/37
f 117/40/31 115/47/38 118/44/35
f 174/48/39 129/49/40 177/50/41
f 144/51/42 130/52/43 163/53/44
f 112/54/45 131/35/28 130/52/43
f 176/55/7 113/56/7 174/57/7
f 143/58/7 112/59/7 144/60/7
f 115/61/7 111/37/7 112/59/7
f 177/50/41 132/62/46 180/63/47
f 163/53/44 133/64/48 164/65/49
f 130/52/43 134/31/24 133/64/48
f 126/66/50 179/67/51 175/68/52
f 127/69/53 141/70/54 139/71/55
f 128/34/27 121/72/56 127/69/53
f 180/63/47 123/73/57 173/74/58
f 164/65/49 124/75/59 140/76/60
f 133/64/48 125/32/25 124/75/59
f 102/77/23 125/78/23 101/29/23
f 128/79/23 124/80/23 125/78/23
f 139/81/23 123/27/23 140/82/23
f 132/62/61 140/76/62 123/73/63
f 127/83/23 140/82/23 124/80/23
f 118/44/35 121/72/56 120/33/26
f 142/46/64 122/84/65 141/70/66
f 139/71/67 122/84/65 126/66/68
f 129/49/69 164/65/70 132/62/61
f 113/56/7 143/58/7 144/60/7
f 113/85/71 163/53/72 129/49/69
f 142/46/64 116/86/73 119/41/74
f 186/87/75 169/88/76 187/89/77
f 170/90/78 185/91/79 183/92/80
f 166/93/7 186/94/7 185/95/7
f 165/96/81 172/97/82 171/98/83
f 170/99/84 167/100/85 166/101/86
f 171/102/87 183/92/80 184/103/88
f 187/89/77 172/104/89 188/105/90
f 188/105/90 168/106/91 182/107/92
f 165/108/93 184/103/88 181/109/94
f 171/98/83 169/110/95 170/99/84
f 173/26/23 208/111/23 205/112/23
f 181/113/23 168/114/23 165/115/23
f 181/109/94 216/116/96 207/117/97
f 202/118/98 182/107/92 210/119/99
f 184/103/88 213/120/100 216/116/96
f 185/95/7 196/121/7 193/122/7
f 183/92/80 193/123/101 213/120/100
f 196/124/102 187/89/77 199/125/103
f 176/42/33 201/126/104 178/43/34
f 225/127/105 200/128/106 224/129/107
f 197/130/108 199/125/103 200/128/106
f 211/131/109 174/48/39 177/50/41
f 212/132/110 226/133/111 247/134/112
f 213/120/100 194/135/113 212/132/110
f 195/136/7 176/55/7 174/57/7
f 194/137/7 225/138/7 226/139/7
f 193/122/7 197/140/7 194/137/7
f 214/141/114 177/50/41 180/63/47
f 215/142/115 247/134/112 248/143/116
f 216/116/96 212/132/110 215/142/115
f 179/67/51 208/144/117 175/68/52
f 223/145/118 209/146/119 221/147/120
f 203/148/121 210/119/99 209/146/119
f 205/149/122 180/63/47 173/74/58
f 206/150/123 248/143/116 222/151/124
f 207/117/97 215/142/115 206/150/123
f 207/152/23 182/153/23 181/113/23
f 206/154/23 210/155/23 207/152/23
f 205/112/23 221/156/23 222/157/23
f 222/151/125 214/141/126 205/149/127
f 222/157/23 209/158/23 206/154/23
f 202/118/98 203/148/121 200/128/106
f 204/159/128 224/129/129 223/145/130
f 204/159/128 221/147/131 208/144/132
f 248/143/133 211/131/134 214/141/126
f 195/136/7 225/138/7 198/160/7
f 247/134/135 195/161/136 211/131/134
f 198/162/137 224/129/129 201/126/138
f 97/1/1 95/163/139 106/2/2
f 105/4/4 94/164/140 98/5/5
f 106/7/7 95/165/7 94/8/7
f 100/10/8 96/166/141 93/11/9
f 95/13/11 97/24/22 98/14/12
f 103/6/6 98/5/5 99/16/14
f 100/18/16 97/1/1 107/3/3
f 96/20/18 100/18/16 108/19/17
f 104/17/15 99/16/14 93/22/20
f 97/24/22 100/10/8 99/12/10
f 126/25/23 175/167/23 173/26/23
f 96/28/23 102/77/23 101/29/23
f 134/31/24 104/17/15 101/23/21
f 102/21/19 108/19/17 120/33/26
f 131/35/28 103/6/6 104/17/15
f 114/36/7 106/7/7 105/9/7
f 111/38/29 105/4/4 103/6/6
f 107/3/3 106/2/2 114/39/30
f 119/41/32 116/86/142 176/42/33
f 118/44/35 115/47/38 143/45/36
f 117/40/31 114/39/30 115/47/38
f 174/48/39 113/85/143 129/49/40
f 144/51/42 112/54/45 130/52/43
f 112/54/45 111/38/29 131/35/28
f 176/55/7 116/168/7 113/56/7
f 143/58/7 115/61/7 112/59/7
f 115/61/7 114/36/7 111/37/7
f 177/50/41 129/49/40 132/62/46
f 163/53/44 130/52/43 133/64/48
f 130/52/43 131/35/28 134/31/24
f 126/66/50 122/84/144 179/67/51
f 127/69/53 121/72/56 141/70/54
f 128/34/27 120/33/26 121/72/56
f 180/63/47 132/62/46 123/73/57
f 164/65/49 133/64/48 124/75/59
f 133/64/48 134/31/24 125/32/25
f 102/77/23 128/79/23 125/78/23
f 128/79/23 127/83/23 124/80/23
f 139/81/23 126/25/23 123/27/23
f 132/62/61 164/65/70 140/76/62
f 127/83/23 139/81/23 140/82/23
f 108/19/17 107/3/3 117/40/31
f 118/44/35 142/46/37 141/70/54
f 108/19/17 117/40/31 118/44/35
f 120/33/26 108/19/17 118/44/35
f 118/44/35 141/70/54 121/72/56
f 142/46/64 119/41/74 122/84/65
f 139/71/67 141/70/66 122/84/65
f 129/49/69 163/53/72 164/65/70
f 113/56/7 116/168/7 143/58/7
f 113/85/71 144/51/145 163/53/72
f 142/46/64 143/45/146 116/86/73
f 186/87/75 167/169/147 169/88/76
f 170/90/78 166/170/148 185/91/79
f 166/93/7 167/171/7 186/94/7
f 165/96/81 168/172/149 172/97/82
f 170/99/84 169/110/95 167/100/85
f 171/102/87 170/90/78 183/92/80
f 187/89/77 169/88/76 172/104/89
f 188/105/90 172/104/89 168/106/91
f 165/108/93 171/102/87 184/103/88
f 171/98/83 172/97/82 169/110/95
f 173/26/23 175/167/23 208/111/23
f 181/113/23 182/153/23 168/114/23
f 181/109/94 184/103/88 216/116/96
f 202/118/98 188/105/90 182/107/92
f 184/103/88 183/92/80 213/120/100
f 185/95/7 186/94/7 196/121/7
f 183/92/80 185/91/79 193/123/101
f 196/124/102 186/87/75 187/89/77
f 176/42/33 198/162/150 201/126/104
f 225/127/105 197/130/108 200/128/106
f 197/130/108 196/124/102 199/125/103
f 211/131/109 195/161/151 174/48/39
f 212/132/110 194/135/113 226/133/111
f 213/120/100 193/123/101 194/135/113
f 195/136/7 198/160/7 176/55/7
f 194/137/7 197/140/7 225/138/7
f 193/122/7 196/121/7 197/140/7
f 214/141/114 211/131/109 177/50/41
f 215/142/115 212/132/110 247/134/112
f 216/116/96 213/120/100 212/132/110
f 179/67/51 204/159/152 208/144/117
f 223/145/118 203/148/121 209/146/119
f 203/148/121 202/118/98 210/119/99
f 205/149/122 214/141/114 180/63/47
f 206/150/123 215/142/115 248/143/116
f 207/117/97 216/116/96 215/142/115
f 207/152/23 210/155/23 182/153/23
f 206/154/23 209/158/23 210/155/23
f 205/112/23 208/111/23 221/156/23
f 222/151/125 248/143/133 214/141/126
f 222/157/23 221/156/23 209/158/23
f 199/125/103 187/89/77 188/105/90
f 199/125/103 188/105/90 202/118/98
f 223/145/118 224/129/107 200/128/106
f 200/128/106 199/125/103 202/118/98
f 203/148/121 223/145/118 200/128/106
f 204/159/128 201/126/138 224/129/129
f 204/159/128 223/145/130 221/147/131
f 248/143/133 247/134/135 211/131/134
f 195/136/7 226/139/7 225/138/7
f 247/134/135 226/133/153 195/161/136
f 198/162/137 225/127/154 224/129/129
usemtl Beige
f 2/173/155 11/174/156 12/175/157
f 4/176/158 1/177/159 2/173/160
f 6/178/161 10/179/162 9/180/163
f 6/178/164 7/181/165 5/182/166
f 9/180/167 3/183/168 4/176/169
f 11/174/170 14/184/171 12/175/172
f 13/185/173 16/186/174 14/184/175
f 21/187/176 17/188/177 18/189/178
f 18/189/179 19/190/180 20/191/181
f 15/192/182 21/187/183 16/186/184
f 24/193/185 25/194/186 23/195/187
f 26/196/188 27/197/189 25/194/190
f 32/198/191 29/199/192 31/200/193
f 29/199/194 34/201/195 33/202/196
f 28/203/197 31/200/198 27/197/199
f 35/204/200 24/193/201 23/195/202
f 37/205/203 36/206/204 35/204/205
f 41/207/206 40/208/207 42/209/208
f 39/210/209 44/211/210 40/208/211
f 41/207/212 38/212/213 37/205/214
f 5/213/7 32/214/7 10/215/7
f 17/216/215 42/217/216 40/218/215
f 12/219/23 25/220/23 2/221/23
f 12/219/23 35/222/23 23/223/23
f 8/224/217 34/225/218 7/226/219
f 19/227/220 43/228/221 20/229/222
f 11/230/7 26/231/7 24/232/7
f 11/230/7 36/233/7 13/234/7
f 6/235/223 33/236/223 8/237/223
f 18/238/224 43/239/224 39/240/224
f 5/213/225 34/241/225 30/242/225
f 17/216/226 44/243/226 19/244/226
f 2/221/23 27/245/23 4/246/23
f 14/247/23 37/248/23 35/222/23
f 6/235/23 31/249/23 29/250/23
f 18/238/227 41/251/228 21/252/229
f 1/253/7 28/254/7 26/231/7
f 13/234/7 38/255/7 15/256/7
f 10/215/7 28/254/7 3/257/7
f 22/258/230 38/255/231 42/217/230
f 9/259/23 27/245/23 31/249/23
f 21/252/229 37/248/232 16/260/232
f 46/261/233 47/262/233 45/263/233
f 49/264/234 52/265/235 51/266/236
f 53/267/237 56/268/238 55/269/239
f 59/270/240 58/271/240 57/272/240
f 61/273/241 64/274/242 62/275/243
f 65/276/244 68/277/245 66/278/246
f 47/279/247 57/280/248 45/281/248
f 46/282/249 57/283/249 58/284/249
f 46/285/250 60/286/251 48/287/251
f 47/288/252 60/289/252 59/290/252
f 51/291/253 61/292/253 49/293/253
f 50/294/254 61/295/255 62/281/254
f 52/296/256 62/297/257 64/298/256
f 51/299/258 64/300/259 63/301/258
f 55/302/260 65/303/260 53/304/260
f 54/305/261 65/306/262 66/307/261
f 56/308/263 66/309/263 68/310/263
f 55/311/264 68/312/265 67/313/264
f 69/314/266 72/315/267 71/316/268
f 73/317/269 76/318/270 75/267/271
f 77/319/272 80/320/273 79/262/274
f 81/321/275 84/322/276 82/323/277
f 85/324/278 88/325/279 86/326/280
f 89/327/281 92/328/282 90/329/283
f 69/330/284 83/331/285 81/332/284
f 70/333/286 81/334/287 82/335/286
f 70/336/288 84/337/288 72/338/288
f 72/339/289 83/340/290 71/341/290
f 75/342/291 85/343/291 73/344/291
f 74/345/292 85/346/292 86/347/292
f 76/348/293 86/349/294 88/341/293
f 75/350/295 88/351/296 87/352/295
f 79/353/297 89/354/297 77/352/297
f 78/355/298 89/356/298 90/357/298
f 78/358/299 92/359/300 80/360/300
f 79/361/301 92/362/302 91/363/301
f 150/364/7 190/365/7 136/366/7
f 110/367/303 135/368/304 137/369/305
f 146/370/23 137/371/23 148/372/23
f 145/373/306 110/374/307 146/375/308
f 147/376/23 192/377/23 230/378/23
f 161/379/309 154/380/310 160/381/311
f 148/372/23 152/382/23 154/383/23
f 138/384/312 190/385/313 192/386/314
f 160/387/23 152/382/23 157/388/23
f 137/369/315 151/389/316 152/390/317
f 145/391/7 135/392/7 109/393/7
f 158/394/318 136/395/319 138/384/320
f 161/396/7 151/397/7 153/398/7
f 122/399/23 230/378/23 179/400/23
f 153/401/321 148/402/322 154/380/323
f 149/403/324 146/404/325 148/402/326
f 119/405/7 227/406/7 150/364/7
f 122/407/327 150/408/328 147/409/329
f 150/408/330 159/410/331 147/409/332
f 149/411/7 151/397/7 135/392/7
f 162/412/7 136/366/7 156/413/7
f 159/414/23 138/415/23 147/376/23
f 157/388/23 159/414/23 160/387/23
f 155/416/333 158/394/334 157/417/335
f 162/412/7 155/418/7 161/396/7
f 160/381/336 162/419/337 161/379/338
f 152/390/339 155/416/340 157/417/341
f 234/420/7 190/365/7 227/406/7
f 217/421/342 191/422/343 219/423/344
f 219/424/23 229/425/23 232/426/23
f 191/427/345 228/428/346 229/429/347
f 192/377/23 231/430/23 230/378/23
f 238/431/348 245/432/349 244/433/350
f 236/434/23 232/426/23 238/435/23
f 190/385/351 220/436/352 192/386/353
f 244/437/23 236/434/23 238/435/23
f 235/438/354 219/423/355 236/439/356
f 228/440/7 217/441/7 233/442/7
f 218/443/357 242/444/358 220/436/359
f 235/445/7 245/446/7 237/447/7
f 230/378/23 204/448/23 179/400/23
f 232/449/360 237/450/361 238/431/362
f 229/451/363 233/452/364 232/449/365
f 201/453/7 227/406/7 178/454/7
f 234/455/366 204/407/367 231/456/368
f 243/457/369 234/455/370 231/456/371
f 233/442/7 235/445/7 237/447/7
f 246/458/7 218/459/7 234/420/7
f 220/460/23 243/461/23 231/430/23
f 243/461/23 241/462/23 244/437/23
f 242/444/372 239/463/373 241/464/374
f 246/458/7 239/465/7 240/466/7
f 246/467/375 244/433/376 245/432/377
f 239/463/378 236/439/379 241/464/380
f 2/173/155 1/177/381 11/174/156
f 4/176/158 3/183/382 1/177/159
f 6/178/161 5/182/383 10/179/162
f 6/178/164 8/468/384 7/181/165
f 9/180/167 10/179/385 3/183/168
f 11/174/170 13/185/386 14/184/171
f 13/185/173 15/192/387 16/186/174
f 21/187/176 22/469/388 17/188/177
f 18/189/179 17/188/389 19/190/180
f 15/192/182 22/469/390 21/187/183
f 24/193/185 26/196/391 25/194/186
f 26/196/188 28/203/392 27/197/189
f 32/198/191 30/470/393 29/199/192
f 29/199/194 30/470/394 34/201/195
f 28/203/197 32/198/395 31/200/198
f 35/204/200 36/206/396 24/193/201
f 37/205/203 38/212/397 36/206/204
f 41/207/206 39/210/398 40/208/207
f 39/210/209 43/471/399 44/211/210
f 41/207/212 42/209/400 38/212/213
f 5/213/7 30/242/7 32/214/7
f 17/216/215 22/258/216 42/217/216
f 12/219/23 23/223/23 25/220/23
f 12/219/23 14/247/23 35/222/23
f 8/224/217 33/374/401 34/225/218
f 19/227/220 44/472/402 43/228/221
f 11/230/7 1/253/7 26/231/7
f 11/230/7 24/232/7 36/233/7
f 6/235/223 29/250/223 33/236/223
f 18/238/224 20/473/224 43/239/224
f 5/213/225 7/474/225 34/241/225
f 17/216/226 40/218/226 44/243/226
f 2/221/23 25/220/23 27/245/23
f 14/247/23 16/260/23 37/248/23
f 6/235/23 9/259/23 31/249/23
f 18/238/227 39/240/227 41/251/228
f 1/253/7 3/257/7 28/254/7
f 13/234/7 36/233/7 38/255/7
f 10/215/7 32/214/7 28/254/7
f 22/258/230 15/256/403 38/255/231
f 9/259/23 4/246/23 27/245/23
f 21/252/229 41/251/228 37/248/232
f 46/261/233 48/475/404 47/262/233
f 49/264/234 50/476/405 52/265/235
f 53/267/237 54/275/406 56/268/238
f 59/270/240 60/477/407 58/271/240
f 61/273/241 63/478/408 64/274/242
f 65/276/244 67/479/409 68/277/245
f 47/279/247 59/307/247 57/280/248
f 46/282/249 45/480/249 57/283/249
f 46/285/250 58/481/250 60/286/251
f 47/288/252 48/482/252 60/289/252
f 51/291/253 63/483/253 61/292/253
f 50/294/254 49/484/255 61/295/255
f 52/296/256 50/485/257 62/297/257
f 51/299/258 52/486/259 64/300/259
f 55/302/260 67/357/260 65/303/260
f 54/305/261 53/487/262 65/306/262
f 56/308/263 54/488/263 66/309/263
f 55/311/264 56/489/265 68/312/265
f 69/314/266 70/490/410 72/315/267
f 73/317/269 74/491/411 76/318/270
f 77/319/272 78/492/412 80/320/273
f 81/321/275 83/329/413 84/322/276
f 85/324/278 87/493/414 88/325/279
f 89/327/281 91/494/415 92/328/282
f 69/330/284 71/495/285 83/331/285
f 70/333/286 69/496/287 81/334/287
f 70/336/288 82/497/288 84/337/288
f 72/339/289 84/498/289 83/340/290
f 75/342/291 87/499/291 85/343/291
f 74/345/292 73/330/292 85/346/292
f 76/348/293 74/500/294 86/349/294
f 75/350/295 76/501/296 88/351/296
f 79/353/297 91/502/297 89/354/297
f 78/355/298 77/503/298 89/356/298
f 78/358/299 90/504/299 92/359/300
f 79/361/301 80/505/302 92/362/302
f 150/364/7 227/406/7 190/365/7
f 110/367/303 109/506/416 135/368/304
f 146/370/23 110/507/23 137/371/23
f 145/373/306 109/508/417 110/374/307
f 147/376/23 138/415/23 192/377/23
f 161/379/309 153/401/418 154/380/310
f 148/372/23 137/371/23 152/382/23
f 138/384/312 136/395/419 190/385/313
f 160/387/23 154/383/23 152/382/23
f 137/369/315 135/368/420 151/389/316
f 145/391/7 149/411/7 135/392/7
f 158/394/318 156/509/421 136/395/319
f 161/396/7 155/418/7 151/397/7
f 122/399/23 147/376/23 230/378/23
f 153/401/321 149/403/422 148/402/322
f 149/403/324 145/510/423 146/404/325
f 119/405/7 178/454/7 227/406/7
f 122/407/327 119/511/424 150/408/328
f 150/408/330 162/419/425 159/410/331
f 149/411/7 153/398/7 151/397/7
f 162/412/7 150/364/7 136/366/7
f 159/414/23 158/512/23 138/415/23
f 157/388/23 158/512/23 159/414/23
f 155/416/333 156/509/426 158/394/334
f 162/412/7 156/413/7 155/418/7
f 160/381/336 159/410/427 162/419/337
f 152/390/339 151/389/428 155/416/340
f 234/420/7 218/459/7 190/365/7
f 217/421/342 189/163/429 191/422/343
f 219/424/23 191/513/23 229/425/23
f 191/427/345 189/514/430 228/428/346
f 192/377/23 220/460/23 231/430/23
f 238/431/348 237/450/431 245/432/349
f 236/434/23 219/424/23 232/426/23
f 190/385/351 218/443/432 220/436/352
f 244/437/23 241/462/23 236/434/23
f 235/438/354 217/421/433 219/423/355
f 228/440/7 189/515/7 217/441/7
f 218/443/357 240/516/434 242/444/358
f 235/445/7 239/465/7 245/446/7
f 230/378/23 231/430/23 204/448/23
f 232/449/360 233/452/435 237/450/361
f 229/451/363 228/517/436 233/452/364
f 201/453/7 234/420/7 227/406/7
f 234/455/366 201/518/437 204/407/367
f 243/457/369 246/467/438 234/455/370
f 233/442/7 217/441/7 235/445/7
f 246/458/7 240/466/7 218/459/7
f 220/460/23 242/519/23 243/461/23
f 243/461/23 242/519/23 241/462/23
f 242/444/372 240/516/439 239/463/373
f 246/458/7 245/446/7 239/465/7
f 246/467/375 243/457/440 244/433/376
f 239/463/378 235/438/441 236/439/379
