# Blender 4.4.1
# www.blender.org
mtllib door.mtl
o 平面
v 14.999999 15.000001 0.000000
v 15.000001 -14.999999 0.000000
v -0.000001 15.000000 0.000000
v 0.000001 -15.000000 0.000000
vn -0.0000 -0.0000 -1.0000
vt 0.000000 1.000000
vt 0.000000 0.000000
vt 1.000000 0.000000
vt 1.000000 1.000000
s 1
usemtl マテリアル
f 1/1/1 2/2/1 4/3/1 3/4/1
o 平面.001
v -0.000001 15.000000 0.000000
v 0.000001 -15.000000 0.000000
v -15.000001 14.999999 0.000000
v -14.999999 -15.000001 0.000000
vn -0.0000 -0.0000 -1.0000
vt 0.000000 0.000000
vt 1.000000 0.000000
vt 1.000000 1.000000
vt 0.000000 1.000000
s 1
usemtl マテリアル.001
f 5/5/2 6/6/2 8/7/2 7/8/2
