# Blender 4.4.1
# www.blender.org
mtllib bookshelf.mtl
o medieval_bookcase
v -1.376718 0.000000 -0.450000
v -1.376718 -0.000000 0.450000
v -1.500000 0.000000 -0.450000
v -1.500000 -0.000000 0.450000
v -1.376718 9.390029 -0.449999
v -1.376718 11.928000 0.000001
v -1.376718 10.184876 -0.416708
v -1.376718 10.850527 -0.333512
v -1.376718 11.429931 -0.198392
v -1.376718 11.739334 -0.082748
v -1.376718 9.390029 0.450001
v -1.376718 11.739334 0.082750
v -1.376718 11.429931 0.198394
v -1.376718 10.850527 0.333514
v -1.376718 10.184876 0.416710
v -1.500000 11.928000 0.000001
v -1.500000 9.390029 -0.449999
v -1.500000 11.739334 -0.082748
v -1.500000 11.429931 -0.198392
v -1.500000 10.850527 -0.333512
v -1.500000 10.184876 -0.416708
v -1.500000 9.390029 0.450001
v -1.500000 10.184876 0.416710
v -1.500000 10.850527 0.333514
v -1.500000 11.429931 0.198394
v -1.500000 11.739334 0.082750
v -1.500000 9.390029 0.000001
v -1.376718 9.390029 0.000001
v -1.500000 0.000000 -0.251523
v -1.376718 0.000000 -0.251523
v -1.500000 -0.000000 0.251523
v -1.376718 -0.000000 0.251523
v -1.500000 0.168500 0.241602
v -1.500000 0.455070 0.184914
v -1.500000 0.168500 -0.241602
v -1.500000 0.455070 -0.184914
v -1.376718 0.455070 0.184914
v -1.376718 0.168500 0.241602
v -1.376718 0.168500 -0.241602
v -1.376718 0.455070 -0.184914
v -1.500000 1.236090 0.000000
v -1.500000 1.127767 0.092082
v -1.500000 1.207940 0.049833
v -1.500000 0.866254 0.130221
v -1.500000 0.724728 0.120309
v -1.500000 1.007788 0.120309
v -1.500000 0.643831 0.101277
v -1.500000 1.127767 -0.092082
v -1.500000 1.207940 -0.049833
v -1.500000 0.866254 -0.130221
v -1.500000 0.724728 -0.120309
v -1.500000 1.007788 -0.120309
v -1.500000 0.643831 -0.101277
v -1.376718 1.236090 0.000000
v -1.376718 0.643831 0.101277
v -1.376718 0.866254 0.130221
v -1.376718 1.007788 0.120309
v -1.376718 0.724728 0.120309
v -1.376718 1.207940 0.049833
v -1.376718 1.127767 0.092082
v -1.376718 1.127767 -0.092082
v -1.376718 1.207940 -0.049833
v -1.376718 0.866254 -0.130221
v -1.376718 0.643831 -0.101277
v -1.376718 0.724728 -0.120309
v -1.376718 1.007788 -0.120309
v -1.500000 10.184876 0.000001
v -1.500000 10.850527 0.000001
v -1.500000 11.429931 0.000001
v -1.376718 11.429931 0.000001
v -1.376718 10.850527 0.000001
v -1.376718 10.184876 0.000001
v -1.376718 0.168500 -0.450000
v -1.500000 0.168500 -0.450000
v -1.376718 0.168500 0.450000
v -1.500000 0.168500 0.450000
v -1.376718 0.455070 0.450000
v -1.500000 0.455070 0.450000
v -1.376718 0.455070 -0.450000
v -1.500000 0.455070 -0.450000
v -1.376718 0.643831 0.450000
v -1.500000 0.643831 0.450000
v -1.376718 0.643831 -0.450000
v -1.500000 0.643831 -0.450000
v -1.500000 1.602143 0.450000
v -1.376718 1.602143 -0.450000
v -1.376718 1.602143 0.000000
v -1.376718 1.602143 0.450000
v -1.500000 1.602143 0.000000
v -1.500000 1.602143 -0.450000
v -1.500000 0.724728 0.450000
v -1.376718 0.724728 0.450000
v -1.376718 0.724728 -0.450000
v -1.500000 0.724728 -0.450000
v -1.376718 0.866254 -0.450000
v -1.500000 0.866254 -0.450000
v -1.500000 0.866254 0.450000
v -1.376718 0.866254 0.450000
v -1.500000 1.007788 0.450000
v -1.376718 1.007788 0.450000
v -1.376718 1.007788 -0.450000
v -1.500000 1.007788 -0.450000
v -1.500000 1.127767 0.450000
v -1.376718 1.127767 0.450000
v -1.376718 1.127767 -0.450000
v -1.500000 1.127767 -0.450000
v 1.376718 0.000000 -0.450000
v 1.376718 -0.000000 0.450000
v 1.500000 0.000000 -0.450000
v 1.500000 -0.000000 0.450000
v 1.376718 9.390029 -0.449999
v 1.376718 11.928000 0.000001
v 1.376718 10.184876 -0.416708
v 1.376718 10.850527 -0.333512
v 1.376718 11.429931 -0.198392
v 1.376718 11.739334 -0.082748
v 1.376718 9.390029 0.450001
v 1.376718 11.739334 0.082750
v 1.376718 11.429931 0.198394
v 1.376718 10.850527 0.333514
v 1.376718 10.184876 0.416710
v 1.500000 11.928000 0.000001
v 1.500000 9.390029 -0.449999
v 1.500000 11.739334 -0.082748
v 1.500000 11.429931 -0.198392
v 1.500000 10.850527 -0.333512
v 1.500000 10.184876 -0.416708
v 1.500000 9.390029 0.450001
v 1.500000 10.184876 0.416710
v 1.500000 10.850527 0.333514
v 1.500000 11.429931 0.198394
v 1.500000 11.739334 0.082750
v 1.500000 9.390029 0.000001
v 1.376718 9.390029 0.000001
v 1.500000 0.000000 -0.251523
v 1.376718 0.000000 -0.251523
v 1.500000 -0.000000 0.251523
v 1.376718 -0.000000 0.251523
v 1.500000 0.168500 0.241602
v 1.500000 0.455070 0.184914
v 1.500000 0.168500 -0.241602
v 1.500000 0.455070 -0.184914
v 1.376718 0.455070 0.184914
v 1.376718 0.168500 0.241602
v 1.376718 0.168500 -0.241602
v 1.376718 0.455070 -0.184914
v 1.500000 1.236090 0.000000
v 1.500000 1.127767 0.092082
v 1.500000 1.207940 0.049833
v 1.500000 0.866254 0.130221
v 1.500000 0.724728 0.120309
v 1.500000 1.007788 0.120309
v 1.500000 0.643831 0.101277
v 1.500000 1.127767 -0.092082
v 1.500000 1.207940 -0.049833
v 1.500000 0.866254 -0.130221
v 1.500000 0.724728 -0.120309
v 1.500000 1.007788 -0.120309
v 1.500000 0.643831 -0.101277
v 1.376718 1.236090 0.000000
v 1.376718 0.643831 0.101277
v 1.376718 0.866254 0.130221
v 1.376718 1.007788 0.120309
v 1.376718 0.724728 0.120309
v 1.376718 1.207940 0.049833
v 1.376718 1.127767 0.092082
v 1.376718 1.127767 -0.092082
v 1.376718 1.207940 -0.049833
v 1.376718 0.866254 -0.130221
v 1.376718 0.643831 -0.101277
v 1.376718 0.724728 -0.120309
v 1.376718 1.007788 -0.120309
v 1.500000 10.184876 0.000001
v 1.500000 10.850527 0.000001
v 1.500000 11.429931 0.000001
v 1.376718 11.429931 0.000001
v 1.376718 10.850527 0.000001
v 1.376718 10.184876 0.000001
v 1.376718 0.168500 -0.450000
v 1.500000 0.168500 -0.450000
v 1.376718 0.168500 0.450000
v 1.500000 0.168500 0.450000
v 1.376718 0.455070 0.450000
v 1.500000 0.455070 0.450000
v 1.376718 0.455070 -0.450000
v 1.500000 0.455070 -0.450000
v 1.376718 0.643831 0.450000
v 1.500000 0.643831 0.450000
v 1.376718 0.643831 -0.450000
v 1.500000 0.643831 -0.450000
v 1.500000 1.602143 0.450000
v 1.376718 1.602143 -0.450000
v 1.376718 1.602143 0.000000
v 1.376718 1.602143 0.450000
v 1.500000 1.602143 0.000000
v 1.500000 1.602143 -0.450000
v 1.500000 0.724728 0.450000
v 1.376718 0.724728 0.450000
v 1.376718 0.724728 -0.450000
v 1.500000 0.724728 -0.450000
v 1.376718 0.866254 -0.450000
v 1.500000 0.866254 -0.450000
v 1.500000 0.866254 0.450000
v 1.376718 0.866254 0.450000
v 1.500000 1.007788 0.450000
v 1.376718 1.007788 0.450000
v 1.376718 1.007788 -0.450000
v 1.500000 1.007788 -0.450000
v 1.500000 1.127767 0.450000
v 1.376718 1.127767 0.450000
v 1.376718 1.127767 -0.450000
v 1.500000 1.127767 -0.450000
v 1.376718 9.477197 -0.382076
v 1.376718 9.477197 0.382078
v 1.376718 9.703429 -0.382076
v 1.376718 9.703429 0.382078
v -1.376718 9.477197 -0.382076
v -1.376718 9.477197 0.382078
v -1.376718 9.703429 -0.382076
v -1.376718 9.703429 0.382078
v 1.376718 7.183221 -0.382077
v 1.376718 7.183221 0.382077
v 1.376718 7.409452 -0.382077
v 1.376718 7.409452 0.382078
v -1.376718 7.183221 -0.382076
v -1.376718 7.183221 0.382078
v -1.376718 7.409452 -0.382076
v -1.376718 7.409452 0.382078
v 1.376718 4.889245 -0.382077
v 1.376718 4.889245 0.382077
v 1.376718 5.115477 -0.382077
v 1.376718 5.115477 0.382077
v -1.376718 4.889245 -0.382077
v -1.376718 4.889245 0.382077
v -1.376718 5.115477 -0.382077
v -1.376718 5.115477 0.382077
v 1.376718 2.595269 -0.382077
v 1.376718 2.595269 0.382077
v 1.376718 2.821501 -0.382077
v 1.376718 2.821501 0.382077
v -1.376718 2.595269 -0.382077
v -1.376718 2.595269 0.382077
v -1.376718 2.821501 -0.382077
v -1.376718 2.821501 0.382077
v 1.460000 9.622105 0.421773
v 1.460000 -0.204297 0.421773
v -1.460000 9.622105 0.421773
v -1.460000 -0.204297 0.421773
vn -0.0000 -0.0000 1.0000
vn -1.0000 -0.0000 -0.0000
vn -0.0000 -1.0000 -0.0000
vn 1.0000 -0.0000 -0.0000
vn -0.0000 -0.0000 -1.0000
vn -0.0000 0.4017 0.9158
vn -0.0000 0.3751 0.9270
vn -0.0000 0.2844 0.9587
vn -0.0000 0.1731 0.9849
vn -0.0000 0.0821 0.9966
vn -0.0000 0.0209 0.9998
vn -0.0000 0.4017 -0.9158
vn -0.0000 0.3751 -0.9270
vn -0.0000 0.2844 -0.9587
vn -0.0000 0.1731 -0.9849
vn -0.0000 0.0821 -0.9966
vn -0.0000 0.0209 -0.9998
vn -0.0000 -0.0588 0.9983
vn -0.0000 -0.1231 0.9924
vn -0.0000 -0.2873 0.9578
vn -0.0000 -0.4051 0.9143
vn -0.0000 -0.2873 -0.9578
vn -0.0000 -0.4051 -0.9143
vn -0.0000 -0.1231 -0.9924
vn -0.0000 -0.0588 -0.9983
vn -0.0000 0.1443 -0.9895
vn -0.0000 0.2290 -0.9734
vn -0.0000 0.2290 0.9734
vn -0.0000 0.1443 0.9895
vn -0.0000 -0.1443 0.9895
vn -0.0000 -0.3321 0.9432
vn -0.0000 -0.6477 0.7619
vn -0.0000 -0.6477 -0.7619
vn -0.0000 -0.3321 -0.9432
vn -0.0000 -0.1443 -0.9895
vn -0.0000 1.0000 -0.0000
vt 0.971360 -0.000000
vt 0.971360 0.004095
vt 0.962850 0.004095
vt 0.962850 -0.000000
vt 0.456779 0.722187
vt 0.456779 0.710081
vt 0.462491 0.714667
vt 0.470474 0.722187
vt 0.443084 0.722187
vt 0.451067 0.714667
vt 0.646130 0.710081
vt 0.654640 0.710081
vt 0.654639 0.723781
vt 0.646130 0.723781
vt 0.394653 0.722187
vt 0.394653 0.710081
vt 0.400366 0.714667
vt 0.408348 0.722187
vt 0.637620 0.710081
vt 0.646130 0.710081
vt 0.646130 0.723781
vt 0.637620 0.723781
vt 0.979869 -0.000000
vt 0.979869 0.004095
vt 0.971360 0.004095
vt 0.971360 -0.000000
vt 0.971360 0.300026
vt 0.962850 0.300026
vt 0.962850 0.292701
vt 0.971360 0.292701
vt 0.962850 0.281734
vt 0.971360 0.281734
vt 0.962850 0.264843
vt 0.971360 0.264843
vt 0.962850 0.247676
vt 0.971360 0.247676
vt 0.962850 0.228221
vt 0.971360 0.228221
vt 0.979869 0.300025
vt 0.971360 0.300025
vt 0.971360 0.292700
vt 0.979869 0.292700
vt 0.971360 0.281733
vt 0.979869 0.281733
vt 0.971360 0.264843
vt 0.979869 0.264843
vt 0.971360 0.247675
vt 0.979869 0.247675
vt 0.971360 0.228220
vt 0.979869 0.228220
vt 0.380959 0.722187
vt 0.388941 0.714667
vt 0.444014 0.988939
vt 0.425716 0.988939
vt 0.425716 0.984351
vt 0.449788 0.984351
vt 0.460219 0.970640
vt 0.487842 0.961059
vt 0.487842 0.972589
vt 0.463135 0.972589
vt 0.394653 0.771769
vt 0.425716 0.771769
vt 0.425716 0.961059
vt 0.394653 0.961059
vt 0.387662 0.984351
vt 0.363591 0.984351
vt 0.363591 0.982385
vt 0.386348 0.982385
vt 0.629111 0.788912
vt 0.620601 0.788912
vt 0.620601 0.784760
vt 0.629111 0.784760
vt 0.620601 0.776771
vt 0.629111 0.776771
vt 0.620601 0.769397
vt 0.629111 0.769397
vt 0.620601 0.722222
vt 0.629111 0.722222
vt 0.629111 0.729596
vt 0.620601 0.729596
vt 0.629111 0.714234
vt 0.620601 0.714234
vt 0.629111 0.710081
vt 0.620601 0.710081
vt 0.629111 0.731961
vt 0.629111 0.735468
vt 0.620601 0.735468
vt 0.620601 0.731961
vt 0.620601 0.767033
vt 0.629111 0.767033
vt 0.620601 0.763526
vt 0.629111 0.763526
vt 0.620601 0.760018
vt 0.629111 0.760018
vt 0.620601 0.756511
vt 0.629111 0.756511
vt 0.620601 0.753004
vt 0.629111 0.753004
vt 0.629111 0.749497
vt 0.620601 0.749497
vt 0.620601 0.745989
vt 0.629111 0.745989
vt 0.620601 0.742482
vt 0.629111 0.742482
vt 0.620601 0.738975
vt 0.629111 0.738975
vt 0.456779 0.771769
vt 0.428014 0.752449
vt 0.456779 0.752449
vt 0.485543 0.752449
vt 0.487842 0.771769
vt 0.433757 0.736270
vt 0.456779 0.736270
vt 0.479801 0.736270
vt 0.394653 0.736270
vt 0.417675 0.736270
vt 0.371631 0.736270
vt 0.394653 0.752449
vt 0.423418 0.752449
vt 0.365889 0.752449
vt 0.363591 0.771769
vt 0.473456 0.995905
vt 0.487842 0.995904
vt 0.487842 1.000000
vt 0.474141 1.000000
vt 0.979869 0.011060
vt 0.971360 0.011060
vt 0.363591 0.995905
vt 0.377976 0.995905
vt 0.377291 1.000000
vt 0.363591 1.000000
vt 0.411331 0.995905
vt 0.425716 0.995905
vt 0.425716 1.000000
vt 0.412016 1.000000
vt 0.971360 0.011060
vt 0.962850 0.011060
vt 0.440102 0.995905
vt 0.439417 1.000000
vt 0.971360 0.015648
vt 0.962850 0.015648
vt 0.407418 0.988939
vt 0.469543 0.988939
vt 0.487842 0.988939
vt 0.979869 0.015648
vt 0.971360 0.015648
vt 0.363591 0.988939
vt 0.381889 0.988939
vt 0.401645 0.984351
vt 0.425716 0.982385
vt 0.448474 0.982385
vt 0.971360 0.017614
vt 0.962850 0.017614
vt 0.979869 0.017614
vt 0.971360 0.017614
vt 0.463770 0.984351
vt 0.487842 0.984351
vt 0.456779 0.961059
vt 0.962850 0.038940
vt 0.971360 0.038940
vt 0.425716 0.972589
vt 0.401010 0.972589
vt 0.398093 0.970640
vt 0.971360 0.038939
vt 0.979869 0.038940
vt 0.363591 0.961059
vt 0.425716 0.978945
vt 0.447790 0.978945
vt 0.971360 0.021054
vt 0.962850 0.021054
vt 0.402958 0.982385
vt 0.425716 0.982385
vt 0.465084 0.982385
vt 0.487842 0.982385
vt 0.979869 0.021054
vt 0.971360 0.021054
vt 0.363591 0.978945
vt 0.385664 0.978945
vt 0.465768 0.978945
vt 0.487842 0.978945
vt 0.979869 0.024494
vt 0.971360 0.024494
vt 0.363591 0.975505
vt 0.386348 0.975505
vt 0.425716 0.975505
vt 0.448474 0.975505
vt 0.403642 0.978945
vt 0.425716 0.978945
vt 0.971360 0.024494
vt 0.962850 0.024494
vt 0.402958 0.975505
vt 0.971360 0.027410
vt 0.962850 0.027410
vt 0.425716 0.972589
vt 0.450423 0.972589
vt 0.465084 0.975505
vt 0.487842 0.975505
vt 0.979869 0.027410
vt 0.971360 0.027410
vt 0.363591 0.972589
vt 0.388297 0.972589
vt 0.453339 0.970640
vt 0.456779 0.969956
vt 0.391213 0.970640
vt 0.394653 0.969956
vt 0.581030 0.771768
vt 0.549967 0.771768
vt 0.552265 0.752449
vt 0.581030 0.752449
vt 0.620601 0.756511
vt 0.612092 0.756511
vt 0.612092 0.753004
vt 0.612092 0.749497
vt 0.962850 0.564869
vt 0.962850 0.547702
vt 0.971359 0.547702
vt 0.971359 0.564869
vt 0.620601 0.738975
vt 0.620601 0.742483
vt 0.612092 0.742483
vt 0.612092 0.738975
vt 0.962850 0.528247
vt 0.971359 0.528247
vt 0.581030 0.736270
vt 0.581030 0.722187
vt 0.594724 0.722187
vt 0.604051 0.736270
vt 0.962850 0.592727
vt 0.962850 0.581760
vt 0.971359 0.581760
vt 0.971359 0.592727
vt 0.962850 0.600051
vt 0.971359 0.600051
vt 0.962850 0.600051
vt 0.971359 0.604147
vt 0.962850 0.604147
vt 0.637620 0.710081
vt 0.637620 0.723781
vt 0.629111 0.723781
vt 0.629111 0.710081
vt 0.962850 0.300026
vt 0.971359 0.300026
vt 0.971359 0.304121
vt 0.962850 0.304121
vt 0.518904 0.722187
vt 0.505209 0.722187
vt 0.513192 0.714667
vt 0.518904 0.710081
vt 0.524616 0.714667
vt 0.532599 0.722187
vt 0.567335 0.722187
vt 0.575318 0.714667
vt 0.581030 0.710081
vt 0.654640 0.723781
vt 0.654640 0.710081
vt 0.663149 0.710081
vt 0.663149 0.723781
vt 0.612092 0.735468
vt 0.568265 0.988936
vt 0.564352 0.995902
vt 0.549967 0.995902
vt 0.549967 0.988936
vt 0.587386 0.972586
vt 0.584469 0.970637
vt 0.612092 0.961056
vt 0.612092 0.972586
vt 0.971359 0.615700
vt 0.971359 0.617666
vt 0.962850 0.617666
vt 0.962850 0.615700
vt 0.971359 0.317640
vt 0.971359 0.321080
vt 0.962850 0.321080
vt 0.962850 0.317640
vt 0.962850 0.881785
vt 0.962850 0.864894
vt 0.971359 0.864894
vt 0.971359 0.881785
vt 0.962850 0.847726
vt 0.971359 0.847726
vt 0.620601 0.729597
vt 0.612092 0.729597
vt 0.612092 0.722222
vt 0.962850 0.828272
vt 0.971359 0.828272
vt 0.962850 0.900076
vt 0.962850 0.892751
vt 0.971359 0.892751
vt 0.971359 0.900076
vt 0.531668 0.988938
vt 0.525895 0.984350
vt 0.549967 0.984350
vt 0.549967 0.988938
vt 0.515465 0.970639
vt 0.512548 0.972588
vt 0.487842 0.972588
vt 0.487842 0.961058
vt 0.612092 0.710081
vt 0.612092 0.714234
vt 0.612092 0.731961
vt 0.612092 0.784760
vt 0.612092 0.776771
vt 0.612092 0.769397
vt 0.620601 0.769397
vt 0.581030 0.961056
vt 0.549967 0.961056
vt 0.588021 0.984349
vt 0.589334 0.982382
vt 0.612092 0.982382
vt 0.612092 0.984348
vt 0.612092 0.788912
vt 0.586741 0.714667
vt 0.612092 0.767033
vt 0.612092 0.763526
vt 0.620601 0.760018
vt 0.612092 0.760018
vt 0.620601 0.745990
vt 0.612092 0.745990
vt 0.518904 0.771769
vt 0.518904 0.752449
vt 0.547669 0.752449
vt 0.549967 0.771769
vt 0.487842 0.771769
vt 0.490140 0.752449
vt 0.518904 0.736270
vt 0.541926 0.736270
vt 0.495882 0.736270
vt 0.558008 0.736270
vt 0.971359 0.311086
vt 0.962850 0.311086
vt 0.609794 0.752449
vt 0.971359 0.611112
vt 0.962850 0.611112
vt 0.612092 0.771768
vt 0.549967 0.995904
vt 0.535582 0.995904
vt 0.502227 0.995904
vt 0.501542 0.999999
vt 0.487842 0.999999
vt 0.487842 0.995904
vt 0.612092 0.995902
vt 0.612092 0.999997
vt 0.598392 0.999997
vt 0.597707 0.995902
vt 0.549967 0.999999
vt 0.536267 0.999999
vt 0.563667 0.999997
vt 0.549967 0.999997
vt 0.971359 0.315674
vt 0.962850 0.315674
vt 0.971359 0.638991
vt 0.962850 0.638991
vt 0.572725 0.982382
vt 0.574039 0.984349
vt 0.549967 0.984349
vt 0.549967 0.982382
vt 0.612092 0.988936
vt 0.593793 0.988936
vt 0.506140 0.988938
vt 0.487842 0.988938
vt 0.971359 0.338965
vt 0.962850 0.338965
vt 0.511913 0.984350
vt 0.487842 0.984350
vt 0.522344 0.970639
vt 0.518904 0.969955
vt 0.518904 0.961058
vt 0.549967 0.961058
vt 0.577590 0.970637
vt 0.574673 0.972586
vt 0.549967 0.972586
vt 0.971359 0.621105
vt 0.971359 0.624545
vt 0.962850 0.624545
vt 0.962850 0.621105
vt 0.590018 0.978942
vt 0.589334 0.975503
vt 0.612092 0.975503
vt 0.612092 0.978942
vt 0.527209 0.982384
vt 0.527893 0.978944
vt 0.549967 0.978944
vt 0.549967 0.982384
vt 0.510599 0.982384
vt 0.487842 0.982384
vt 0.509915 0.978944
vt 0.487842 0.978944
vt 0.527209 0.975504
vt 0.525261 0.972588
vt 0.549967 0.972588
vt 0.549967 0.975504
vt 0.971359 0.324520
vt 0.971359 0.327436
vt 0.962850 0.327436
vt 0.962850 0.324520
vt 0.572041 0.978942
vt 0.549967 0.978942
vt 0.572725 0.975502
vt 0.549967 0.975502
vt 0.971359 0.627462
vt 0.962850 0.627462
vt 0.510599 0.975504
vt 0.487842 0.975504
vt 0.581030 0.969953
vt 0.030167 0.738541
vt 0.000000 0.054971
vt 0.090898 -0.000000
vt 0.090898 0.783807
vt 0.008502 0.054454
vt 0.033965 0.755892
vt 0.084492 0.070646
vt 0.084492 0.731813
vt 0.211962 0.738541
vt 0.181795 0.054971
vt 0.272693 0.000000
vt 0.272693 0.783807
vt 0.190298 0.054454
vt 0.215760 0.755892
vt 0.266287 0.070646
vt 0.266287 0.731813
vt 0.121064 0.738541
vt 0.090898 0.054971
vt 0.181795 -0.000000
vt 0.181795 0.783807
vt 0.099400 0.054454
vt 0.124862 0.755893
vt 0.175390 0.070646
vt 0.175390 0.731813
vt 0.302860 0.738542
vt 0.272693 0.054971
vt 0.363591 -0.000000
vt 0.363591 0.783807
vt 0.281195 0.054454
vt 0.306658 0.755893
vt 0.357185 0.070646
vt 0.357185 0.731813
vt 0.962850 0.000000
vt 0.962850 0.710081
vt 0.363591 0.710081
vt 0.363591 0.000000
s 1
f 2/1/1 75/2/1 76/3/1 4/4/1
f 69/5/2 16/6/2 18/7/2 19/8/2
f 69/5/2 25/9/2 26/10/2 16/6/2
f 3/11/3 1/12/3 30/13/3 29/14/3
f 70/15/4 6/16/4 12/17/4 13/18/4
f 2/19/3 4/20/3 31/21/3 32/22/3
f 3/23/5 74/24/5 73/25/5 1/26/5
f 6/27/6 16/28/6 26/29/7 12/30/7
f 12/30/7 26/29/7 25/31/8 13/32/8
f 13/32/8 25/31/8 24/33/9 14/34/9
f 14/34/9 24/33/9 23/35/10 15/36/10
f 15/36/10 23/35/10 22/37/11 11/38/11
f 16/39/12 6/40/12 10/41/13 18/42/13
f 18/42/13 10/41/13 9/43/14 19/44/14
f 19/44/14 9/43/14 8/45/15 20/46/15
f 20/46/15 8/45/15 7/47/16 21/48/16
f 21/48/16 7/47/16 5/49/17 17/50/17
f 70/15/4 9/51/4 10/52/4 6/16/4
f 34/53/2 78/54/2 82/55/2 47/56/2
f 49/57/2 90/58/2 106/59/2 48/60/2
f 28/61/4 11/62/4 88/63/4 87/64/4
f 64/65/4 83/66/4 93/67/4 65/68/4
f 29/69/18 30/70/18 39/71/19 35/72/19
f 40/73/20 36/74/20 35/72/19 39/71/19
f 36/74/20 40/73/20 64/75/21 53/76/21
f 37/77/22 34/78/22 47/79/23 55/80/23
f 33/81/24 34/78/22 37/77/22 38/82/24
f 31/83/25 33/81/24 38/82/24 32/84/25
f 45/85/26 44/86/5 56/87/5 58/88/26
f 47/79/27 45/85/26 58/88/26 55/80/27
f 64/75/28 65/89/29 51/90/29 53/76/28
f 63/91/1 50/92/1 51/90/29 65/89/29
f 66/93/30 52/94/30 50/92/1 63/91/1
f 52/94/30 66/93/30 61/95/31 48/96/31
f 62/97/32 49/98/32 48/96/31 61/95/31
f 41/99/3 49/98/32 62/97/32 54/100/3
f 59/101/33 43/102/33 41/99/3 54/100/3
f 60/103/34 42/104/34 43/102/33 59/101/33
f 57/105/35 46/106/35 42/104/34 60/103/34
f 44/86/5 46/106/35 57/105/35 56/87/5
f 27/107/2 22/62/2 23/108/2 67/109/2
f 27/107/2 67/109/2 21/110/2 17/111/2
f 67/109/2 23/108/2 24/112/2 68/113/2
f 67/109/2 68/113/2 20/114/2 21/110/2
f 68/113/2 24/112/2 25/9/2 69/5/2
f 68/113/2 69/5/2 19/8/2 20/114/2
f 71/115/4 70/15/4 13/18/4 14/116/4
f 71/115/4 8/117/4 9/51/4 70/15/4
f 72/118/4 71/115/4 14/116/4 15/119/4
f 72/118/4 7/120/4 8/117/4 71/115/4
f 28/61/4 72/118/4 15/119/4 11/62/4
f 28/61/4 5/121/4 7/120/4 72/118/4
f 35/122/2 74/123/2 3/124/2 29/125/2
f 73/25/5 74/24/5 80/126/5 79/127/5
f 73/128/4 39/129/4 30/130/4 1/131/4
f 38/132/4 75/133/4 2/134/4 32/135/4
f 76/3/1 75/2/1 77/136/1 78/137/1
f 76/133/2 33/138/2 31/139/2 4/134/2
f 78/137/1 77/136/1 81/140/1 82/141/1
f 37/142/4 77/54/4 75/133/4 38/132/4
f 78/54/2 34/53/2 33/138/2 76/133/2
f 36/143/2 80/144/2 74/123/2 35/122/2
f 79/127/5 80/126/5 84/145/5 83/146/5
f 79/147/4 40/148/4 39/129/4 73/128/4
f 55/149/4 81/55/4 77/54/4 37/142/4
f 47/56/2 82/55/2 91/150/2 45/151/2
f 82/141/1 81/140/1 92/152/1 91/153/1
f 83/146/5 84/145/5 94/154/5 93/155/5
f 53/156/2 84/157/2 80/144/2 36/143/2
f 83/66/4 64/65/4 40/148/4 79/147/4
f 89/158/2 85/63/2 22/62/2 27/107/2
f 90/58/2 89/158/2 27/107/2 17/111/2
f 85/159/1 88/160/1 11/38/11 22/37/11
f 88/63/4 104/161/4 60/162/4 59/163/4
f 86/164/5 90/165/5 17/50/17 5/49/17
f 87/64/4 86/166/4 5/121/4 28/61/4
f 45/151/2 91/150/2 97/167/2 44/168/2
f 91/153/1 92/152/1 98/169/1 97/170/1
f 58/171/4 92/172/4 81/55/4 55/149/4
f 51/173/2 94/174/2 84/157/2 53/156/2
f 93/155/5 94/154/5 96/175/5 95/176/5
f 65/68/4 93/67/4 95/177/4 63/178/4
f 50/179/2 96/180/2 94/174/2 51/173/2
f 95/176/5 96/175/5 102/181/5 101/182/5
f 63/178/4 95/177/4 101/183/4 66/184/4
f 44/168/2 97/167/2 99/185/2 46/186/2
f 56/187/4 98/188/4 92/172/4 58/171/4
f 97/170/1 98/169/1 100/189/1 99/190/1
f 57/191/4 100/185/4 98/188/4 56/187/4
f 99/190/1 100/189/1 104/192/1 103/193/1
f 46/186/2 99/185/2 103/194/2 42/195/2
f 52/196/2 102/197/2 96/180/2 50/179/2
f 101/182/5 102/181/5 106/198/5 105/199/5
f 66/184/4 101/183/4 105/200/4 61/201/4
f 103/193/1 104/192/1 88/160/1 85/159/1
f 60/162/4 104/161/4 100/185/4 57/191/4
f 43/202/2 85/63/2 89/158/2 41/203/2
f 48/60/2 106/59/2 102/197/2 52/196/2
f 62/204/4 86/166/4 87/64/4 54/205/4
f 105/199/5 106/198/5 90/165/5 86/164/5
f 41/203/2 89/158/2 90/58/2 49/57/2
f 42/195/2 103/194/2 85/63/2 43/202/2
f 61/201/4 105/200/4 86/166/4 62/204/4
f 87/64/4 88/63/4 59/163/4 54/205/4
f 134/206/2 117/207/2 121/208/2 178/209/2
f 168/97/32 167/210/31 154/211/31 155/212/32
f 147/213/3 160/100/3 168/97/32 155/212/32
f 120/214/9 121/215/10 129/216/10 130/217/9
f 163/218/35 166/219/34 148/220/34 152/221/35
f 121/215/10 117/222/11 128/223/11 129/216/10
f 177/224/2 176/225/2 115/226/2 114/227/2
f 118/228/7 119/229/8 131/230/8 132/231/7
f 119/229/8 120/214/9 130/217/9 131/230/8
f 112/232/6 118/228/7 132/231/7 122/233/6
f 109/234/5 107/233/5 179/235/5 180/236/5
f 108/237/3 138/238/3 137/239/3 110/240/3
f 108/241/1 110/242/1 182/243/1 181/244/1
f 175/245/4 125/246/4 124/247/4 122/248/4
f 175/245/4 122/248/4 132/249/4 131/250/4
f 176/225/2 119/251/2 118/252/2 112/253/2
f 109/254/3 135/255/3 136/256/3 107/257/3
f 150/258/5 162/87/5 163/218/35 152/221/35
f 143/259/2 144/260/2 181/261/2 183/262/2
f 167/263/2 168/264/2 192/265/2 211/266/2
f 189/267/5 199/268/5 200/269/5 190/270/5
f 197/271/1 203/272/1 204/273/1 198/274/1
f 125/275/14 126/276/15 114/277/15 115/278/14
f 126/276/15 127/279/16 113/280/16 114/277/15
f 143/77/22 161/281/23 153/282/23 140/283/22
f 127/279/16 123/284/17 111/285/17 113/280/16
f 122/286/12 124/287/13 116/288/13 112/289/12
f 124/287/13 125/275/14 115/278/14 116/288/13
f 140/290/4 153/291/4 188/292/4 184/293/4
f 155/294/4 154/295/4 212/296/4 196/297/4
f 137/298/25 138/84/25 144/82/24 139/299/24
f 139/299/24 144/82/24 143/77/22 140/283/22
f 151/300/26 164/88/26 162/87/5 150/258/5
f 153/282/27 161/281/27 164/88/26 151/300/26
f 146/73/20 145/71/19 141/301/19 142/302/20
f 142/302/20 159/303/21 170/304/21 146/73/20
f 134/206/2 193/305/2 194/306/2 117/207/2
f 170/307/2 171/308/2 199/309/2 189/310/2
f 135/311/18 141/301/19 145/71/19 136/70/18
f 176/225/2 112/253/2 116/312/2 115/226/2
f 170/304/28 159/303/28 157/313/29 171/89/29
f 169/91/1 171/89/29 157/313/29 156/314/1
f 172/315/30 169/91/1 156/314/1 158/316/30
f 158/316/30 154/211/31 167/210/31 172/315/30
f 165/317/33 160/100/3 147/213/3 149/318/33
f 166/219/34 165/317/33 149/318/33 148/220/34
f 133/319/4 173/320/4 129/321/4 128/322/4
f 133/319/4 123/323/4 127/324/4 173/320/4
f 173/320/4 174/325/4 130/326/4 129/321/4
f 173/320/4 127/324/4 126/327/4 174/325/4
f 174/325/4 175/245/4 131/250/4 130/326/4
f 174/325/4 126/327/4 125/246/4 175/245/4
f 178/209/2 121/208/2 120/328/2 177/224/2
f 182/243/1 184/329/1 183/330/1 181/244/1
f 177/224/2 120/328/2 119/251/2 176/225/2
f 178/209/2 177/224/2 114/227/2 113/331/2
f 179/235/5 185/332/5 186/333/5 180/236/5
f 134/206/2 178/209/2 113/331/2 111/334/2
f 184/293/4 182/335/4 139/336/4 140/290/4
f 141/337/4 135/338/4 109/339/4 180/340/4
f 179/341/2 107/342/2 136/343/2 145/344/2
f 182/335/4 110/345/4 137/346/4 139/336/4
f 185/332/5 189/267/5 190/270/5 186/333/5
f 144/260/2 138/347/2 108/348/2 181/261/2
f 184/329/1 188/349/1 187/350/1 183/330/1
f 192/351/5 111/285/17 123/284/17 196/352/5
f 193/305/2 134/206/2 111/334/2 192/265/2
f 164/353/2 161/354/2 187/355/2 198/356/2
f 185/357/2 179/341/2 145/344/2 146/358/2
f 142/359/4 141/337/4 180/340/4 186/360/4
f 189/310/2 185/357/2 146/358/2 170/307/2
f 191/361/1 128/223/11 117/222/11 194/362/1
f 159/363/4 142/359/4 186/360/4 190/364/4
f 149/365/4 147/366/4 195/367/4 191/368/4
f 194/306/2 165/369/2 166/370/2 210/371/2
f 161/354/2 143/259/2 183/262/2 187/355/2
f 201/372/5 207/373/5 208/374/5 202/375/5
f 169/376/2 172/377/2 207/378/2 201/379/2
f 151/380/4 150/381/4 203/382/4 197/383/4
f 157/384/4 159/363/4 190/364/4 200/385/4
f 171/308/2 169/376/2 201/379/2 199/309/2
f 199/268/5 201/372/5 202/375/5 200/269/5
f 156/386/4 157/384/4 200/385/4 202/387/4
f 152/388/4 148/389/4 209/390/4 205/391/4
f 205/392/1 209/393/1 210/394/1 206/395/1
f 162/396/2 164/353/2 198/356/2 204/397/2
f 150/381/4 152/388/4 205/391/4 203/382/4
f 203/272/1 205/392/1 206/395/1 204/273/1
f 163/398/2 162/396/2 204/397/2 206/399/2
f 209/393/1 191/361/1 194/362/1 210/394/1
f 207/373/5 211/400/5 212/401/5 208/374/5
f 158/402/4 156/386/4 202/387/4 208/403/4
f 147/366/4 155/294/4 196/297/4 195/367/4
f 168/264/2 160/404/2 193/305/2 192/265/2
f 154/295/4 158/402/4 208/403/4 212/296/4
f 166/370/2 163/398/2 206/399/2 210/371/2
f 195/367/4 133/319/4 128/322/4 191/368/4
f 148/389/4 149/365/4 191/368/4 209/390/4
f 153/291/4 151/380/4 197/383/4 188/292/4
f 193/305/2 160/404/2 165/369/2 194/306/2
f 196/297/4 123/323/4 133/319/4 195/367/4
f 172/377/2 167/263/2 211/266/2 207/378/2
f 211/400/5 192/351/5 196/352/5 212/401/5
f 188/349/1 197/271/1 198/274/1 187/350/1
f 220/405/36 216/406/36 215/407/36 219/408/36
f 215/407/5 213/409/5 217/410/5 219/408/5
f 217/410/3 213/409/3 214/411/3 218/412/3
f 218/412/1 214/411/1 216/406/1 220/405/1
f 228/413/36 224/414/36 223/415/36 227/416/36
f 223/415/5 221/417/5 225/418/5 227/416/5
f 225/418/3 221/417/3 222/419/3 226/420/3
f 226/420/1 222/419/1 224/414/1 228/413/1
f 236/421/36 232/422/36 231/423/36 235/424/36
f 231/423/5 229/425/5 233/426/5 235/424/5
f 233/426/3 229/425/3 230/427/3 234/428/3
f 234/428/1 230/427/1 232/422/1 236/421/1
f 244/429/36 240/430/36 239/431/36 243/432/36
f 239/431/5 237/433/5 241/434/5 243/432/5
f 241/434/3 237/433/3 238/435/3 242/436/3
f 242/436/1 238/435/1 240/430/1 244/429/1
s 0
f 245/437/5 246/438/5 248/439/5 247/440/5
