# Blender 4.4.1
# www.blender.org
mtllib enemy.mtl
o Book1_Open_Cube.106
v -0.987340 -3.161430 0.506430
v -0.987340 3.329160 0.506430
v -1.873160 -3.161430 0.592550
v -1.873160 3.329160 0.592550
v -3.293800 -3.161430 0.437540
v -3.293800 3.329160 0.437540
v -3.582180 -3.156020 0.487860
v -3.582180 3.334560 0.487860
v -2.583480 3.329160 0.585000
v -2.583480 -3.161430 0.585000
v 0.032180 -3.161430 0.153360
v 0.032180 3.329160 0.153360
v 1.051700 -3.161430 0.506430
v 1.051700 3.329160 0.506430
v 1.937510 -3.161430 0.592550
v 1.937510 3.329160 0.592550
v 2.772180 -3.242890 0.552130
v 3.363380 3.224010 0.552130
v 3.053810 -3.260070 0.631470
v 3.645010 3.206820 0.631470
v 3.117440 3.243750 0.585000
v 2.526240 -3.223140 0.585000
v 0.032180 3.329160 0.075420
v 0.032180 -3.161430 0.075420
v -0.987340 3.329160 0.438030
v -0.987340 -3.161430 0.438030
v -1.873160 3.329160 0.526470
v -1.873160 -3.161430 0.526470
v -3.293800 3.329160 0.367270
v -3.293800 -3.161430 0.367270
v -2.583480 3.329160 0.518720
v -2.583480 -3.161430 0.518720
v -3.582180 3.334560 0.418950
v -3.582180 -3.156020 0.418950
v 1.051700 3.329160 0.438030
v 1.051700 -3.161430 0.438030
v 1.937510 3.329160 0.526470
v 1.937510 -3.161430 0.526470
v 3.363380 3.224010 0.484960
v 2.772180 -3.242890 0.484960
v 3.117440 3.243750 0.518720
v 2.526240 -3.223140 0.518720
v 3.645010 3.206820 0.566440
v 3.053810 -3.260070 0.566440
v 4.212240 2.756910 0.106490
v 1.309470 2.763040 -0.161910
v 3.440160 -0.075110 0.035840
v 1.117630 0.621640 -0.178940
v 4.290530 -2.660880 0.149310
v 3.017220 0.149730 -0.003100
v 1.685800 -2.849220 -0.221240
v 1.466520 -0.616220 -0.226460
v 3.995960 -2.509570 0.274070
v 2.970920 0.148160 0.150250
v 1.389100 -2.847760 -0.095030
v 1.169830 -0.614670 -0.100250
v 4.215490 2.756900 0.071310
v 1.312720 2.763030 -0.197100
v 3.443420 -0.075120 0.000660
v 1.120890 0.621630 -0.214120
v 4.293910 -2.660960 0.114140
v 3.020600 0.149630 -0.038270
v 1.689180 -2.849300 -0.256410
v 1.469900 -0.616310 -0.261630
v 3.999200 -2.509370 0.238890
v 2.974160 0.148380 0.115070
v 1.392340 -2.847560 -0.130210
v 1.173070 -0.614450 -0.135430
v -4.361080 -2.371310 0.117710
v -2.192650 -2.377010 -0.176740
v -3.601980 0.269150 0.040070
v -2.015010 -0.377470 -0.195540
v -4.022740 -1.957220 0.293530
v -1.700110 -2.261480 -0.020220
v -3.759400 0.353370 0.087820
v -1.629490 -0.358910 -0.145540
v -3.998690 2.707350 0.121910
v -3.539460 -0.395850 -0.033100
v -1.957040 2.868830 -0.183550
v -1.904640 0.802670 -0.189280
v -4.365000 -2.371310 0.085130
v -2.196570 -2.377000 -0.209320
v -3.605890 0.269150 0.007500
v -2.018930 -0.377470 -0.228120
v -4.026970 -1.957220 0.260990
v -1.704340 -2.261480 -0.052760
v -3.763630 0.353370 0.055280
v -1.633730 -0.358910 -0.178080
v -4.002600 2.707350 0.089330
v -3.543370 -0.395850 -0.065680
v -1.960950 2.868830 -0.216120
v -1.908560 0.802670 -0.221850
v -4.300610 3.700630 -0.631470
v -4.300610 -3.700630 -0.631470
v -4.300610 -3.700630 -0.450040
v -4.300610 3.700630 -0.450040
v -4.300610 -3.221730 -0.450040
v -4.300610 -3.221730 -0.631470
v -4.300610 3.391220 -0.631470
v -4.300610 3.391220 -0.450040
v -3.947280 3.700630 -0.631470
v -3.947280 3.700630 -0.450040
v -3.947280 -3.221730 -0.631470
v -3.947280 3.391220 -0.631470
v -3.947280 -3.700630 -0.631470
v -3.947280 -3.700630 -0.450040
v -3.947280 -3.221730 -0.450040
v -3.947280 3.391220 -0.450040
v -3.624900 -3.221730 0.391580
v -3.624900 3.391220 0.391580
v -2.952410 -3.700630 -0.631470
v -1.957540 -3.700630 -0.631470
v -0.435830 -3.700630 -0.557630
v -2.952410 -3.700630 -0.450040
v -1.957540 -3.700630 -0.450040
v -0.435830 -3.700630 -0.376200
v -2.952410 -3.221730 -0.450040
v -1.957540 -3.221730 -0.450040
v -0.435830 -3.221730 -0.376200
v -2.952410 3.391220 -0.450040
v -1.957540 3.391220 -0.450040
v -0.435830 3.391220 -0.376200
v -0.435830 3.700630 -0.557630
v -1.957540 3.700630 -0.631470
v -2.952410 3.700630 -0.631470
v -0.435830 3.700630 -0.376200
v -1.957540 3.700630 -0.450040
v -2.952410 3.700630 -0.450040
v -0.435830 -3.221730 -0.557630
v -1.957540 -3.221730 -0.631470
v -2.952410 -3.221730 -0.631470
v -0.435830 3.391220 -0.557630
v -1.957540 3.391220 -0.631470
v -2.952410 3.391220 -0.631470
v -3.218220 -3.221730 0.350660
v -0.962680 -3.221730 0.256120
v -3.218220 3.391220 0.350670
v -0.962680 3.391220 0.256120
v -0.589370 3.700630 -0.450040
v -0.589370 3.700630 -0.631470
v -0.589370 3.391220 -0.450040
v -0.589370 -3.221730 -0.450040
v -0.589370 -3.700630 -0.450040
v -0.589370 -3.700630 -0.631470
v -3.944280 -3.221730 -0.272470
v -3.944280 3.391220 -0.272470
v -0.962680 3.391220 -0.352200
v -2.967230 3.391220 -0.461030
v -2.967230 -3.221730 -0.461030
v -0.962680 -3.221730 -0.352200
v -2.614460 -3.221730 0.402040
v -2.614460 3.391220 0.402040
v -2.462380 -3.221730 -0.351140
v -2.462380 3.391220 -0.351140
v -2.219770 -3.221730 0.450650
v -1.695360 -3.221730 0.443420
v -2.219770 3.391220 0.450650
v -1.695360 3.391220 0.443420
v -1.695360 3.391220 -0.253080
v -2.219770 3.391220 -0.286970
v -2.219770 -3.221730 -0.286970
v -1.695360 -3.221730 -0.253080
v -0.589370 -3.221730 -0.631470
v -0.589370 3.391220 -0.631470
v 4.365000 3.700630 -0.631470
v 4.365000 -3.700630 -0.631470
v 4.365000 -3.700630 -0.450040
v 4.365000 3.700630 -0.450040
v 4.365000 -3.221730 -0.450040
v 4.365000 -3.221730 -0.631470
v 4.365000 3.391220 -0.631470
v 4.365000 3.391220 -0.450040
v 0.032190 3.700630 -0.557630
v 0.032190 -3.700630 -0.557630
v 0.032190 3.700630 -0.376200
v 0.032190 -3.700630 -0.376200
v 0.032190 -3.221730 -0.557630
v 0.032190 -3.221730 -0.376200
v 0.032190 3.391220 -0.376200
v 0.032190 3.391220 -0.557630
v 4.011660 3.700630 -0.631470
v 4.011660 3.700630 -0.450040
v 4.011660 -3.221730 -0.631470
v 4.011660 3.391220 -0.631470
v 4.011660 -3.700630 -0.631470
v 4.011660 -3.700630 -0.450040
v 4.011660 -3.221730 -0.450040
v 4.011660 3.391220 -0.450040
v 3.689290 -3.221730 0.391580
v 0.032190 -3.221730 0.138640
v 3.689290 3.391220 0.391580
v 0.032190 3.391220 0.138640
v 3.016800 -3.700630 -0.631470
v 2.021930 -3.700630 -0.631470
v 0.500220 -3.700630 -0.557630
v 3.016800 -3.700630 -0.450040
v 2.021930 -3.700630 -0.450040
v 0.500220 -3.700630 -0.376200
v 3.016800 -3.221730 -0.450040
v 2.021930 -3.221730 -0.450040
v 0.500220 -3.221730 -0.376200
v 3.016800 3.391220 -0.450040
v 2.021930 3.391220 -0.450040
v 0.500220 3.391220 -0.376200
v 0.500220 3.700630 -0.557630
v 2.021930 3.700630 -0.631470
v 3.016800 3.700630 -0.631470
v 0.500220 3.700630 -0.376200
v 2.021930 3.700630 -0.450040
v 3.016800 3.700630 -0.450040
v 0.500220 -3.221730 -0.557630
v 2.021930 -3.221730 -0.631470
v 3.016800 -3.221730 -0.631470
v 0.500220 3.391220 -0.557630
v 2.021930 3.391220 -0.631470
v 3.016800 3.391220 -0.631470
v 3.282610 -3.221730 0.350660
v 1.027060 -3.221730 0.256120
v 3.282610 3.391220 0.350670
v 1.027060 3.391220 0.256120
v 0.653760 3.700630 -0.450040
v 0.653760 3.700630 -0.631470
v 0.653760 3.391220 -0.450040
v 0.653760 -3.221730 -0.450040
v 0.653760 -3.700630 -0.450040
v 0.653760 -3.700630 -0.631470
v 0.032190 -3.221730 -0.262680
v 4.008660 -3.221730 -0.272470
v 4.008660 3.391220 -0.272470
v 0.032190 3.391220 -0.262680
v 1.027060 3.391220 -0.352200
v 3.031610 3.391220 -0.461030
v 3.031610 -3.221730 -0.461030
v 1.027060 -3.221730 -0.352200
v 2.678850 -3.221730 0.402040
v 2.678850 3.391220 0.402040
v 2.526770 -3.221730 -0.351140
v 2.526770 3.391220 -0.351140
v 2.284160 -3.221730 0.450650
v 1.759750 -3.221730 0.443420
v 2.284160 3.391220 0.450650
v 1.759750 3.391220 0.443420
v 1.759750 3.391220 -0.253080
v 2.284160 3.391220 -0.286970
v 2.284160 -3.221730 -0.286970
v 1.759750 -3.221730 -0.253080
v 0.653760 -3.221730 -0.631470
v 0.653760 3.391220 -0.631470
vn -0.0000 -0.0000 1.0000
vn -0.0000 -0.0000 -1.0000
vn -0.0000 -1.0000 -0.0000
vn -1.0000 -0.0000 -0.0000
vn -0.0000 1.0000 -0.0000
vn 0.4334 -0.0000 -0.9012
vn -0.4334 -0.0000 0.9012
vn 1.0000 -0.0000 -0.0000
vn -0.4334 -0.0000 -0.9012
vn 0.4334 -0.0000 0.9012
vn 0.3272 -0.0000 0.9449
vn 0.0968 -0.0000 0.9953
vn -0.2033 -0.0000 0.9791
vn 0.1719 -0.0000 0.9851
vn -0.0106 -0.0000 0.9999
vn -0.3272 -0.0000 0.9449
vn -0.0968 -0.0000 0.9953
vn 0.1315 -0.0120 0.9912
vn -0.2697 0.0247 0.9626
vn 0.0120 -0.0010 0.9999
vn 0.0068 -0.0001 1.0000
vn 0.0064 -0.0000 1.0000
vn -0.3351 -0.0000 -0.9422
vn -0.0993 -0.0000 -0.9951
vn 0.2085 -0.0000 -0.9780
vn -0.1764 -0.0000 -0.9843
vn 0.0109 -0.0000 -0.9999
vn 0.3351 -0.0000 -0.9422
vn 0.0993 -0.0000 -0.9951
vn -0.1350 0.0123 -0.9908
vn 0.2764 -0.0253 -0.9607
vn -0.0069 0.0001 -1.0000
vn -0.0123 0.0011 -0.9999
vn -0.0066 -0.0000 -1.0000
vn -0.0800 -0.9968 -0.0000
vn 0.9958 -0.0910 -0.0000
vn 0.0187 0.9998 -0.0000
vn 0.0609 0.9981 -0.0000
vn -0.0188 -0.9998 -0.0000
vn -0.0609 -0.9981 -0.0000
vn 0.0800 0.9968 -0.0000
vn 0.0724 0.9974 -0.0000
vn 0.0798 0.9968 -0.0000
vn -0.1042 -0.9946 -0.0000
vn 0.0722 0.9974 -0.0000
vn -0.0920 0.0003 0.9958
vn -0.0921 0.0003 0.9958
vn -0.1393 -0.0104 0.9902
vn -0.1390 -0.0100 0.9902
vn -0.1400 -0.0114 0.9901
vn -0.1371 -0.0089 0.9905
vn -0.1369 -0.0085 0.9905
vn -0.1387 -0.0113 0.9903
vn 0.0920 -0.0003 -0.9958
vn 0.0921 -0.0003 -0.9958
vn 0.1393 0.0104 -0.9902
vn 0.1390 0.0100 -0.9902
vn 0.1382 0.0089 -0.9904
vn 0.1371 0.0089 -0.9905
vn 0.1369 0.0085 -0.9905
vn 0.1353 0.0060 -0.9908
vn 0.9604 -0.2640 0.0891
vn 0.9604 -0.2640 0.0888
vn 0.0021 1.0000 -0.0001
vn -0.9918 0.0896 -0.0916
vn -0.9917 0.0896 -0.0919
vn -0.2850 -0.9582 -0.0261
vn 0.0708 -0.9974 0.0091
vn 0.9058 0.4150 0.0859
vn 0.9057 0.4150 0.0861
vn -0.4373 0.8982 -0.0443
vn -0.4373 0.8982 -0.0446
vn -0.9907 -0.0975 -0.0950
vn 0.1278 -0.9918 0.0061
vn 0.9280 0.3620 0.0878
vn 0.9281 0.3620 0.0875
vn -0.3863 0.9219 -0.0298
vn -0.9910 -0.0975 -0.0918
vn -0.9910 -0.0975 -0.0919
vn 0.1380 -0.0068 0.9904
vn 0.1390 -0.0079 0.9903
vn 0.1422 -0.0118 0.9898
vn 0.1366 0.0670 0.9884
vn 0.1371 0.0662 0.9883
vn 0.1327 0.0729 0.9885
vn 0.1344 -0.0142 0.9908
vn 0.1294 -0.0197 0.9914
vn 0.1479 0.0010 0.9890
vn -0.1380 0.0068 -0.9904
vn -0.1390 0.0079 -0.9903
vn -0.1345 0.0026 -0.9909
vn -0.1366 -0.0670 -0.9884
vn -0.1371 -0.0662 -0.9883
vn -0.1413 -0.0598 -0.9882
vn -0.1344 0.0142 -0.9908
vn -0.1294 0.0197 -0.9914
vn -0.1183 0.0321 -0.9925
vn -0.9538 0.2776 0.1148
vn -0.9539 0.2776 0.1145
vn -0.0026 -1.0000 -0.0000
vn -0.0026 -1.0000 0.0003
vn 0.9889 -0.0890 -0.1190
vn 0.3713 0.9275 -0.0447
vn 0.3713 0.9275 -0.0446
vn -0.9841 0.1235 0.1279
vn -0.1277 -0.9917 0.0166
vn 0.9906 -0.0453 -0.1291
vn 0.9906 -0.0453 -0.1288
vn 0.3129 0.9489 -0.0407
vn 0.3129 0.9489 -0.0408
vn -0.0775 0.9970 0.0093
vn -0.9815 -0.1511 0.1178
vn 0.5854 -0.8077 -0.0703
vn 0.5854 -0.8077 -0.0705
vn 0.9925 0.0255 -0.1192
vn 0.9925 0.0255 -0.1194
vn 0.1001 -0.0000 0.9950
vn -0.9012 -0.0000 0.4334
vn 0.2557 -0.0000 -0.9668
vn 0.1173 -0.0000 0.9931
vn -0.0848 -0.0000 0.9964
vn 0.2477 -0.0000 0.9688
vn 0.2127 -0.0000 -0.9771
vn -0.1895 -0.0000 -0.9819
vn -0.0455 -0.0000 -0.9990
vn -0.1341 -0.0000 -0.9910
vn 0.0138 -0.0000 0.9999
vn 0.0645 -0.0000 -0.9979
vn -0.1222 -0.0000 0.9925
vn -0.1001 -0.0000 0.9950
vn 0.9012 -0.0000 0.4334
vn -0.2557 -0.0000 -0.9668
vn -0.1173 -0.0000 0.9931
vn 0.0848 -0.0000 0.9964
vn -0.2477 -0.0000 0.9688
vn -0.2127 -0.0000 -0.9771
vn 0.1895 -0.0000 -0.9819
vn 0.0455 -0.0000 -0.9990
vn 0.1341 -0.0000 -0.9910
vn -0.0138 -0.0000 0.9999
vn -0.0645 -0.0000 -0.9979
vn 0.1222 -0.0000 0.9925
vn 0.0127 -0.0012 0.9999
vn -0.0130 0.0012 -0.9999
vn -0.1382 -0.0089 0.9904
vn -0.1353 -0.0060 0.9908
vn 0.1400 0.0114 -0.9901
vn 0.1387 0.0113 -0.9903
vn 0.1345 -0.0026 0.9909
vn 0.1413 0.0598 0.9882
vn 0.1183 -0.0321 0.9925
vn -0.1422 0.0118 -0.9898
vn -0.1327 -0.0729 -0.9885
vn -0.1479 -0.0010 -0.9890
vt 0.020785 0.376064
vt 0.000002 0.360730
vt 0.020785 0.360730
vt 0.321199 0.015334
vt 0.341982 0.000000
vt 0.341982 0.015334
vt 0.979345 0.015333
vt 0.987218 0.000000
vt 0.987218 0.015333
vt 0.950170 0.676621
vt 0.958034 0.663190
vt 0.958034 0.676616
vt 0.950170 0.984362
vt 0.958034 0.963575
vt 0.958034 0.984357
vt 0.628967 0.000000
vt 0.628967 0.015334
vt 0.307769 0.376064
vt 0.307769 0.360730
vt 0.321197 0.376064
vt 0.321197 0.360730
vt 0.642394 0.000000
vt 0.642394 0.015334
vt 0.950170 0.963580
vt 1.000000 0.543785
vt 0.992127 0.564096
vt 0.992127 0.543785
vt 0.996796 0.376064
vt 0.988922 0.391398
vt 0.988922 0.376064
vt 0.628967 0.058508
vt 0.642395 0.058508
vt 0.307770 0.317556
vt 0.321197 0.317556
vt 0.341982 0.058508
vt 0.979345 0.058504
vt 0.987218 0.058504
vt 0.321199 0.058508
vt 0.000002 0.317556
vt 0.020785 0.317556
vt 0.020783 0.208336
vt 0.000000 0.188025
vt 0.020783 0.188025
vt 0.020785 0.274381
vt 0.000002 0.215006
vt 0.020785 0.215006
vt 0.000002 0.274381
vt 0.321198 0.188039
vt 0.341981 0.167728
vt 0.341981 0.188039
vt 0.321199 0.161058
vt 0.341982 0.101683
vt 0.341982 0.161058
vt 0.321199 0.101683
vt 0.976140 0.188019
vt 0.984014 0.167710
vt 0.984014 0.188019
vt 0.979345 0.161047
vt 0.987218 0.101676
vt 0.987218 0.161047
vt 0.979345 0.101676
vt 0.628965 0.167728
vt 0.628965 0.188039
vt 0.628967 0.101683
vt 0.628967 0.161058
vt 0.321195 0.208336
vt 0.307768 0.188025
vt 0.321195 0.188025
vt 0.321197 0.274381
vt 0.307770 0.215006
vt 0.321197 0.215006
vt 0.307770 0.274381
vt 0.642393 0.167728
vt 0.642393 0.188039
vt 0.642395 0.101683
vt 0.642395 0.161058
vt 0.996796 0.391398
vt 0.988922 0.434572
vt 0.996796 0.434572
vt 0.988922 0.477747
vt 0.996796 0.537122
vt 0.988922 0.537122
vt 0.996796 0.477747
vt 0.307768 0.208336
vt 0.321198 0.167728
vt -0.000000 0.208336
vt 0.000002 0.015334
vt 0.020785 0.000000
vt 0.020785 0.015334
vt 0.341983 0.376064
vt 0.321200 0.360730
vt 0.341983 0.360730
vt 0.987218 0.376039
vt 0.979345 0.360706
vt 0.987218 0.360706
vt 0.958034 0.663190
vt 0.965904 0.676619
vt 0.958034 0.676612
vt 0.958034 0.963473
vt 0.965904 0.984254
vt 0.958034 0.984247
vt 0.628967 0.376064
vt 0.628967 0.360730
vt 0.307770 0.000000
vt 0.307770 0.015334
vt 0.321198 0.000000
vt 0.321197 0.015334
vt 0.642395 0.376064
vt 0.642395 0.360730
vt 0.965904 0.963480
vt 1.000000 0.584408
vt 0.992127 0.584408
vt 0.988922 0.736795
vt 0.996796 0.752129
vt 0.988922 0.752129
vt 0.628967 0.317556
vt 0.642395 0.317556
vt 0.307770 0.058508
vt 0.321197 0.058508
vt 0.341983 0.317556
vt 0.979345 0.317535
vt 0.987218 0.317535
vt 0.321200 0.317556
vt 0.000002 0.058508
vt 0.020785 0.058508
vt 0.020783 0.167714
vt 0.000002 0.161058
vt 0.020785 0.101683
vt 0.020785 0.161058
vt 0.000002 0.101683
vt 0.341981 0.208350
vt 0.341983 0.274381
vt 0.321199 0.215006
vt 0.341982 0.215006
vt 0.321200 0.274381
vt 0.984014 0.208329
vt 0.987218 0.274363
vt 0.979345 0.214992
vt 0.987218 0.214992
vt 0.979345 0.274363
vt 0.628965 0.208350
vt 0.628967 0.274381
vt 0.628967 0.215006
vt 0.321195 0.167714
vt 0.307770 0.161058
vt 0.321197 0.101683
vt 0.321197 0.161058
vt 0.307770 0.101683
vt 0.642393 0.208350
vt 0.642395 0.274381
vt 0.642395 0.215006
vt 0.988922 0.693621
vt 0.996796 0.736795
vt 0.988922 0.650446
vt 0.996796 0.693621
vt 0.996796 0.591071
vt 0.988922 0.591071
vt 0.996796 0.650446
vt 0.307768 0.167714
vt 0.976140 0.208329
vt 0.321198 0.208350
vt 0.000000 0.167714
vt 0.000002 0.376064
vt 0.321199 0.000000
vt 0.979345 0.000000
vt 0.950170 0.663195
vt 1.000000 0.564096
vt 0.976140 0.167710
vt 0.000002 0.000000
vt 0.321200 0.376064
vt 0.979345 0.376039
vt 0.965904 0.663197
vt 0.574133 0.488665
vt 0.855077 0.537252
vt 0.573436 0.532871
vt 0.574734 0.450235
vt 0.855774 0.493046
vt 0.575689 0.388576
vt 0.856853 0.423794
vt 0.575213 0.419412
vt 0.857290 0.380445
vt 0.857329 0.392958
vt 0.856374 0.454616
vt 0.572757 0.577143
vt 0.854397 0.581524
vt 0.572161 0.615588
vt 0.575071 0.666845
vt 0.856772 0.656238
vt 0.575760 0.677527
vt 0.857329 0.668478
vt 0.576318 0.689766
vt 0.853802 0.619969
vt 0.289245 0.537251
vt 0.570189 0.488665
vt 0.570886 0.532870
vt 0.288548 0.493046
vt 0.569589 0.450235
vt 0.287469 0.423794
vt 0.568634 0.388576
vt 0.569109 0.419413
vt 0.287032 0.380445
vt 0.568672 0.376064
vt 0.287948 0.454617
vt 0.571565 0.577143
vt 0.572161 0.615588
vt 0.289925 0.581524
vt 0.569252 0.666845
vt 0.287550 0.656239
vt 0.288241 0.645557
vt 0.568562 0.677527
vt 0.286993 0.668478
vt 0.290521 0.619969
vt 0.840475 0.702289
vt 0.837196 0.733140
vt 0.834319 0.733162
vt 0.837582 0.965591
vt 0.838947 0.954898
vt 0.840496 0.965568
vt 0.969286 0.532834
vt 0.981948 0.488676
vt 0.984917 0.488697
vt 0.981331 0.577163
vt 0.965904 0.532810
vt 0.947182 0.663192
vt 0.950170 0.944839
vt 0.947182 0.944841
vt 0.968725 0.969548
vt 0.965904 0.689764
vt 0.968725 0.689775
vt 0.853947 0.846516
vt 0.841244 0.802373
vt 0.857329 0.846489
vt 0.841943 0.890854
vt 0.838974 0.890877
vt 0.982625 0.388584
vt 0.981906 0.376064
vt 0.984897 0.376085
vt 0.985567 0.677518
vt 0.986100 0.689744
vt 0.982652 0.677498
vt 0.841183 0.689766
vt 0.843525 0.702265
vt 0.837057 0.977826
vt 0.834235 0.977848
vt 0.986054 0.450262
vt 0.988922 0.450282
vt 0.984300 0.577184
vt 0.984901 0.615631
vt 0.985933 0.419434
vt 0.979576 0.388563
vt 0.984195 0.666835
vt 0.987071 0.666855
vt 0.838276 0.802397
vt 0.837103 0.763965
vt 0.838408 0.929322
vt 0.835541 0.929345
vt 0.834235 0.763988
vt 0.836071 0.954920
vt 0.988809 0.419454
vt 0.987769 0.615651
vt 0.408624 0.722650
vt 0.286993 0.817154
vt 0.286993 0.689767
vt 0.530255 0.823682
vt 0.605287 0.692254
vt 0.636616 0.784449
vt 0.114111 0.817107
vt 0.198970 0.696220
vt 0.224971 0.790061
vt 0.530255 0.817154
vt 0.408624 0.722650
vt 0.530255 0.689767
vt 0.742978 0.823681
vt 0.667945 0.692253
vt 0.742978 0.689767
vt 0.114111 0.813585
vt 0.003019 0.716255
vt 0.084810 0.693480
vt 0.230983 0.815361
vt 0.229453 0.693509
vt 0.230983 0.693480
vt 0.226505 0.693480
vt 0.224971 0.819990
vt 0.224971 0.693480
vt 0.244403 0.693480
vt 0.245922 0.786537
vt 0.244404 0.786521
vt 0.236996 0.795048
vt 0.238529 0.693481
vt 0.238529 0.795049
vt 0.232512 0.693550
vt 0.234044 0.807554
vt 0.232512 0.807624
vt 0.229453 0.693534
vt 0.227924 0.817124
vt 0.227924 0.693480
vt 0.646736 0.354985
vt 0.648268 0.287065
vt 0.648268 0.355060
vt 0.240047 0.790263
vt 0.241565 0.693480
vt 0.241565 0.790253
vt 0.234044 0.693555
vt 0.235575 0.807561
vt 0.234044 0.807637
vt 0.232512 0.693539
vt 0.230983 0.810148
vt 0.230983 0.693480
vt 0.643803 0.365908
vt 0.645334 0.287063
vt 0.645334 0.365982
vt 0.238529 0.790280
vt 0.240047 0.693480
vt 0.240047 0.790258
vt 0.090482 0.932815
vt 0.016563 0.821530
vt 0.090482 0.813585
vt 0.488816 0.818862
vt 0.406549 0.912795
vt 0.387904 0.817154
vt 0.945977 0.721201
vt 0.868198 0.816252
vt 0.857329 0.727218
vt 0.114111 0.936337
vt 0.188030 0.825052
vt 0.204594 0.910580
vt 0.286993 0.818862
vt 0.369260 0.912795
vt 0.286993 0.920490
vt 0.827015 0.779332
vt 0.752197 0.825585
vt 0.235575 0.808536
vt 0.236995 0.693480
vt 0.236996 0.808515
vt 0.245922 0.788444
vt 0.247346 0.693502
vt 0.247346 0.788466
vt 0.643803 0.373532
vt 0.642395 0.286990
vt 0.643803 0.287014
vt 0.651115 0.356642
vt 0.649692 0.287032
vt 0.651115 0.286990
vt 0.242989 0.693597
vt 0.244403 0.794252
vt 0.242989 0.794368
vt 0.241565 0.795339
vt 0.242989 0.693487
vt 0.242989 0.795346
vt 0.646736 0.287091
vt 0.645334 0.369621
vt 0.645334 0.286990
vt 0.248770 0.693507
vt 0.247346 0.786490
vt 0.247346 0.693480
vt 0.250193 0.783062
vt 0.248770 0.693521
vt 0.250193 0.693480
vt 0.226505 0.827992
vt 0.227924 0.693542
vt 0.227924 0.828054
vt 0.648268 0.287024
vt 0.649692 0.357646
vt 0.648268 0.357680
vt 0.251601 0.693481
vt 0.250193 0.783174
vt 0.250193 0.693480
vt 0.931735 0.505449
vt 0.910434 0.548621
vt 0.905336 0.505449
vt 0.286986 0.693480
vt 0.000003 0.675835
vt 0.286987 0.675835
vt 0.865512 0.376064
vt 0.892555 0.407573
vt 0.857329 0.418465
vt 0.965904 0.663190
vt 0.936458 0.376064
vt 0.965904 0.376231
vt 0.862052 0.505458
vt 0.883353 0.548633
vt 0.865937 0.548632
vt 0.869499 0.286989
vt 0.858965 0.000003
vt 0.869499 0.000004
vt 0.894784 0.433775
vt 0.862098 0.440375
vt 0.286990 0.577959
vt 0.000008 0.534796
vt 0.286993 0.534796
vt 0.864883 0.450903
vt 0.896894 0.450903
vt 0.000001 0.649629
vt 0.286986 0.649629
vt 0.928275 0.376064
vt 0.901233 0.407571
vt 0.899457 0.389923
vt 0.286985 0.609738
vt 0.000005 0.577960
vt 0.928904 0.450898
vt 0.899003 0.433771
vt 0.931689 0.440370
vt 0.861011 0.528322
vt 0.861011 0.548632
vt 0.858965 0.286988
vt 0.837045 0.000000
vt 0.837045 0.286985
vt 0.794661 0.000005
vt 0.932777 0.528311
vt 0.927850 0.548621
vt 0.946909 0.000002
vt 0.924047 0.286987
vt 0.924047 0.000003
vt 0.892260 0.000005
vt 0.936458 0.418463
vt 0.927434 0.473655
vt 0.897207 0.473655
vt 0.866354 0.473661
vt 0.888452 0.505458
vt -0.000000 0.632496
vt 0.286985 0.632496
vt 0.896894 0.450898
vt 0.892260 0.286990
vt 0.931735 0.591792
vt 0.000003 0.393717
vt 0.286987 0.376064
vt 0.286988 0.393717
vt 0.892555 0.689692
vt 0.865512 0.721201
vt 0.857329 0.678799
vt 0.976140 0.000000
vt 0.946909 0.287242
vt 0.946909 0.000380
vt 0.862052 0.591807
vt 0.730344 0.000003
vt 0.719821 0.286989
vt 0.719821 0.000005
vt 0.894784 0.663491
vt 0.862098 0.656891
vt 0.286990 0.491610
vt 0.864883 0.646362
vt 0.000002 0.419913
vt 0.286986 0.419913
vt 0.928275 0.721177
vt 0.901233 0.689671
vt 0.936458 0.678779
vt 0.000005 0.491610
vt 0.286985 0.459796
vt 0.899003 0.663471
vt 0.928904 0.646343
vt 0.931689 0.656871
vt 0.861011 0.568944
vt 0.752243 0.000000
vt 0.730344 0.286988
vt 0.794661 0.000005
vt 0.752243 0.286985
vt 0.932777 0.568931
vt 0.932777 0.548621
vt 0.665261 0.286988
vt 0.642395 0.000002
vt 0.665261 0.000003
vt 0.697067 0.000005
vt 0.927434 0.623587
vt 0.905336 0.591792
vt 0.888452 0.591807
vt 0.866354 0.623604
vt 0.896894 0.646362
vt 0.000000 0.437037
vt 0.286985 0.437037
vt 0.896894 0.646344
vt 0.897207 0.623587
vt 0.697067 0.286990
vt 0.575650 0.376064
vt 0.856082 0.645556
vt 0.286993 0.392957
vt 0.568004 0.689766
vt 0.950170 0.663190
vt 0.965904 0.969538
vt 0.988922 0.689764
vt 0.838193 0.689790
vt 0.392210 0.814498
vt 0.530255 0.689767
vt 0.114111 0.693480
vt 0.425038 0.814498
vt 0.636616 0.784448
vt 0.000000 0.813585
vt 0.229453 0.815390
vt 0.226504 0.819990
vt 0.245922 0.693496
vt 0.236996 0.693480
vt 0.234044 0.693480
vt 0.229453 0.817178
vt 0.646736 0.286990
vt 0.240047 0.693490
vt 0.235575 0.693480
vt 0.232512 0.810206
vt 0.643803 0.286990
vt 0.238529 0.693503
vt 0.000000 0.907058
vt 0.488816 0.920489
vt 0.945977 0.857332
vt 0.114111 0.817107
vt 0.387904 0.817154
vt 0.831829 0.689767
vt 0.235575 0.693501
vt 0.245922 0.693480
vt 0.642395 0.373508
vt 0.649692 0.356683
vt 0.244403 0.693480
vt 0.241565 0.693480
vt 0.646736 0.369722
vt 0.248770 0.786518
vt 0.248770 0.783103
vt 0.226505 0.693480
vt 0.649692 0.286990
vt 0.251601 0.783176
vt 0.000001 0.693480
vt 0.894330 0.389924
vt 0.936458 0.663023
vt 0.000000 0.609738
vt 0.794661 0.286990
vt 0.946909 0.286987
vt 0.896580 0.473661
vt 0.000002 0.376064
vt 0.894330 0.707341
vt 0.976140 0.286861
vt 0.899457 0.707318
vt 0.000000 0.459796
vt 0.794661 0.286990
vt 0.642395 0.286987
vt 0.896580 0.623604
s 1
usemtl DarkRed
f 97/1/1 106/2/1 107/3/1
f 105/4/2 98/5/2 103/6/2
f 106/7/3 94/8/3 105/9/3
f 100/10/4 93/11/4 99/12/4
f 95/13/4 98/14/4 94/15/4
f 103/6/2 99/16/2 104/17/2
f 100/18/1 107/3/1 108/19/1
f 96/20/1 108/19/1 102/21/1
f 104/17/2 93/22/2 101/23/2
f 97/24/4 99/12/4 98/14/4
f 126/25/5 173/26/5 123/27/5
f 96/28/5 101/29/5 93/30/5
f 134/31/2 101/23/2 125/32/2
f 102/21/1 120/33/1 128/34/1
f 131/35/2 104/17/2 134/31/2
f 114/36/3 105/9/3 111/37/3
f 111/38/2 103/6/2 131/35/2
f 107/3/1 114/39/1 117/40/1
f 119/41/1 176/42/1 178/43/1
f 118/44/1 143/45/1 142/46/1
f 117/40/1 115/47/1 118/44/1
f 174/48/2 129/49/2 177/50/2
f 144/51/2 130/52/2 163/53/2
f 112/54/2 131/35/2 130/52/2
f 176/55/3 113/56/3 174/57/3
f 143/58/3 112/59/3 144/60/3
f 115/61/3 111/37/3 112/59/3
f 177/50/2 132/62/2 180/63/2
f 163/53/2 133/64/2 164/65/2
f 130/52/2 134/31/2 133/64/2
f 126/66/1 179/67/1 175/68/1
f 127/69/1 141/70/1 139/71/1
f 128/34/1 121/72/1 127/69/1
f 180/63/2 123/73/2 173/74/2
f 164/65/2 124/75/2 140/76/2
f 133/64/2 125/32/2 124/75/2
f 102/77/5 125/78/5 101/29/5
f 128/79/5 124/80/5 125/78/5
f 139/81/5 123/27/5 140/82/5
f 132/62/6 140/76/6 123/73/6
f 127/83/5 140/82/5 124/80/5
f 118/44/1 121/72/1 120/33/1
f 142/46/7 122/84/7 141/70/7
f 139/71/7 122/84/7 126/66/7
f 129/49/6 164/65/6 132/62/6
f 113/56/3 143/58/3 144/60/3
f 113/85/6 163/53/6 129/49/6
f 142/46/7 116/86/7 119/41/7
f 186/87/1 169/88/1 187/89/1
f 170/90/2 185/91/2 183/92/2
f 166/93/3 186/94/3 185/95/3
f 165/96/8 172/97/8 171/98/8
f 170/99/8 167/100/8 166/101/8
f 171/102/2 183/92/2 184/103/2
f 187/89/1 172/104/1 188/105/1
f 188/105/1 168/106/1 182/107/1
f 165/108/2 184/103/2 181/109/2
f 171/98/8 169/110/8 170/99/8
f 173/26/5 208/111/5 205/112/5
f 181/113/5 168/114/5 165/115/5
f 181/109/2 216/116/2 207/117/2
f 202/118/1 182/107/1 210/119/1
f 184/103/2 213/120/2 216/116/2
f 185/95/3 196/121/3 193/122/3
f 183/92/2 193/123/2 213/120/2
f 196/124/1 187/89/1 199/125/1
f 176/42/1 201/126/1 178/43/1
f 225/127/1 200/128/1 224/129/1
f 197/130/1 199/125/1 200/128/1
f 211/131/2 174/48/2 177/50/2
f 212/132/2 226/133/2 247/134/2
f 213/120/2 194/135/2 212/132/2
f 195/136/3 176/55/3 174/57/3
f 194/137/3 225/138/3 226/139/3
f 193/122/3 197/140/3 194/137/3
f 214/141/2 177/50/2 180/63/2
f 215/142/2 247/134/2 248/143/2
f 216/116/2 212/132/2 215/142/2
f 179/67/1 208/144/1 175/68/1
f 223/145/1 209/146/1 221/147/1
f 203/148/1 210/119/1 209/146/1
f 205/149/2 180/63/2 173/74/2
f 206/150/2 248/143/2 222/151/2
f 207/117/2 215/142/2 206/150/2
f 207/152/5 182/153/5 181/113/5
f 206/154/5 210/155/5 207/152/5
f 205/112/5 221/156/5 222/157/5
f 222/151/9 214/141/9 205/149/9
f 222/157/5 209/158/5 206/154/5
f 202/118/1 203/148/1 200/128/1
f 204/159/10 224/129/10 223/145/10
f 204/159/10 221/147/10 208/144/10
f 248/143/9 211/131/9 214/141/9
f 195/136/3 225/138/3 198/160/3
f 247/134/9 195/161/9 211/131/9
f 198/162/10 224/129/10 201/126/10
f 97/1/1 95/163/1 106/2/1
f 105/4/2 94/164/2 98/5/2
f 106/7/3 95/165/3 94/8/3
f 100/10/4 96/166/4 93/11/4
f 95/13/4 97/24/4 98/14/4
f 103/6/2 98/5/2 99/16/2
f 100/18/1 97/1/1 107/3/1
f 96/20/1 100/18/1 108/19/1
f 104/17/2 99/16/2 93/22/2
f 97/24/4 100/10/4 99/12/4
f 126/25/5 175/167/5 173/26/5
f 96/28/5 102/77/5 101/29/5
f 134/31/2 104/17/2 101/23/2
f 102/21/1 108/19/1 120/33/1
f 131/35/2 103/6/2 104/17/2
f 114/36/3 106/7/3 105/9/3
f 111/38/2 105/4/2 103/6/2
f 107/3/1 106/2/1 114/39/1
f 119/41/1 116/86/1 176/42/1
f 118/44/1 115/47/1 143/45/1
f 117/40/1 114/39/1 115/47/1
f 174/48/2 113/85/2 129/49/2
f 144/51/2 112/54/2 130/52/2
f 112/54/2 111/38/2 131/35/2
f 176/55/3 116/168/3 113/56/3
f 143/58/3 115/61/3 112/59/3
f 115/61/3 114/36/3 111/37/3
f 177/50/2 129/49/2 132/62/2
f 163/53/2 130/52/2 133/64/2
f 130/52/2 131/35/2 134/31/2
f 126/66/1 122/84/1 179/67/1
f 127/69/1 121/72/1 141/70/1
f 128/34/1 120/33/1 121/72/1
f 180/63/2 132/62/2 123/73/2
f 164/65/2 133/64/2 124/75/2
f 133/64/2 134/31/2 125/32/2
f 102/77/5 128/79/5 125/78/5
f 128/79/5 127/83/5 124/80/5
f 139/81/5 126/25/5 123/27/5
f 132/62/6 164/65/6 140/76/6
f 127/83/5 139/81/5 140/82/5
f 108/19/1 107/3/1 117/40/1
f 118/44/1 142/46/1 141/70/1
f 108/19/1 117/40/1 118/44/1
f 120/33/1 108/19/1 118/44/1
f 118/44/1 141/70/1 121/72/1
f 142/46/7 119/41/7 122/84/7
f 139/71/7 141/70/7 122/84/7
f 129/49/6 163/53/6 164/65/6
f 113/56/3 116/168/3 143/58/3
f 113/85/6 144/51/6 163/53/6
f 142/46/7 143/45/7 116/86/7
f 186/87/1 167/169/1 169/88/1
f 170/90/2 166/170/2 185/91/2
f 166/93/3 167/171/3 186/94/3
f 165/96/8 168/172/8 172/97/8
f 170/99/8 169/110/8 167/100/8
f 171/102/2 170/90/2 183/92/2
f 187/89/1 169/88/1 172/104/1
f 188/105/1 172/104/1 168/106/1
f 165/108/2 171/102/2 184/103/2
f 171/98/8 172/97/8 169/110/8
f 173/26/5 175/167/5 208/111/5
f 181/113/5 182/153/5 168/114/5
f 181/109/2 184/103/2 216/116/2
f 202/118/1 188/105/1 182/107/1
f 184/103/2 183/92/2 213/120/2
f 185/95/3 186/94/3 196/121/3
f 183/92/2 185/91/2 193/123/2
f 196/124/1 186/87/1 187/89/1
f 176/42/1 198/162/1 201/126/1
f 225/127/1 197/130/1 200/128/1
f 197/130/1 196/124/1 199/125/1
f 211/131/2 195/161/2 174/48/2
f 212/132/2 194/135/2 226/133/2
f 213/120/2 193/123/2 194/135/2
f 195/136/3 198/160/3 176/55/3
f 194/137/3 197/140/3 225/138/3
f 193/122/3 196/121/3 197/140/3
f 214/141/2 211/131/2 177/50/2
f 215/142/2 212/132/2 247/134/2
f 216/116/2 213/120/2 212/132/2
f 179/67/1 204/159/1 208/144/1
f 223/145/1 203/148/1 209/146/1
f 203/148/1 202/118/1 210/119/1
f 205/149/2 214/141/2 180/63/2
f 206/150/2 215/142/2 248/143/2
f 207/117/2 216/116/2 215/142/2
f 207/152/5 210/155/5 182/153/5
f 206/154/5 209/158/5 210/155/5
f 205/112/5 208/111/5 221/156/5
f 222/151/9 248/143/9 214/141/9
f 222/157/5 221/156/5 209/158/5
f 199/125/1 187/89/1 188/105/1
f 199/125/1 188/105/1 202/118/1
f 223/145/1 224/129/1 200/128/1
f 200/128/1 199/125/1 202/118/1
f 203/148/1 223/145/1 200/128/1
f 204/159/10 201/126/10 224/129/10
f 204/159/10 223/145/10 221/147/10
f 248/143/9 247/134/9 211/131/9
f 195/136/3 226/139/3 225/138/3
f 247/134/9 226/133/9 195/161/9
f 198/162/10 225/127/10 224/129/10
usemtl Beige
f 2/173/11 11/174/11 12/175/11
f 4/176/12 1/177/12 2/173/12
f 6/178/13 10/179/13 9/180/13
f 6/178/14 7/181/14 5/182/14
f 9/180/15 3/183/15 4/176/15
f 11/174/16 14/184/16 12/175/16
f 13/185/17 16/186/17 14/184/17
f 21/187/18 17/188/18 18/189/18
f 18/189/19 19/190/19 20/191/19
f 15/192/20 21/187/21 16/186/22
f 24/193/23 25/194/23 23/195/23
f 26/196/24 27/197/24 25/194/24
f 32/198/25 29/199/25 31/200/25
f 29/199/26 34/201/26 33/202/26
f 28/203/27 31/200/27 27/197/27
f 35/204/28 24/193/28 23/195/28
f 37/205/29 36/206/29 35/204/29
f 41/207/30 40/208/30 42/209/30
f 39/210/31 44/211/31 40/208/31
f 41/207/32 38/212/33 37/205/34
f 5/213/3 32/214/3 10/215/3
f 17/216/35 42/217/35 40/218/35
f 12/219/5 25/220/5 2/221/5
f 12/219/5 35/222/5 23/223/5
f 8/224/4 34/225/4 7/226/4
f 19/227/36 43/228/36 20/229/36
f 11/230/3 26/231/3 24/232/3
f 11/230/3 36/233/3 13/234/3
f 6/235/37 33/236/37 8/237/37
f 18/238/38 43/239/38 39/240/38
f 5/213/39 34/241/39 30/242/39
f 17/216/40 44/243/40 19/244/40
f 2/221/5 27/245/5 4/246/5
f 14/247/5 37/248/5 35/222/5
f 6/235/5 31/249/5 29/250/5
f 18/238/41 41/251/42 21/252/43
f 1/253/3 28/254/3 26/231/3
f 13/234/3 38/255/3 15/256/3
f 10/215/3 28/254/3 3/257/3
f 22/258/44 38/255/44 42/217/44
f 9/259/5 27/245/5 31/249/5
f 21/252/43 37/248/45 16/260/45
f 46/261/46 47/262/46 45/263/47
f 49/264/48 52/265/49 51/266/50
f 53/267/51 56/268/52 55/269/53
f 59/270/54 58/271/54 57/272/55
f 61/273/56 64/274/57 62/275/58
f 65/276/59 68/277/60 66/278/61
f 47/279/62 57/280/63 45/281/63
f 46/282/64 57/283/64 58/284/64
f 46/285/65 60/286/66 48/287/66
f 47/288/67 60/289/67 59/290/67
f 51/291/68 61/292/68 49/293/68
f 50/294/69 61/295/70 62/296/69
f 52/297/71 62/298/72 64/299/71
f 51/300/73 64/301/73 63/302/73
f 55/303/74 65/304/74 53/305/74
f 54/306/75 65/307/76 66/308/75
f 56/309/77 66/310/77 68/311/77
f 55/312/78 68/313/79 67/314/78
f 69/315/80 72/316/81 71/317/82
f 73/318/83 76/319/84 75/320/85
f 77/321/86 80/322/87 79/323/88
f 81/324/89 84/325/90 82/326/91
f 85/327/92 88/328/93 86/329/94
f 89/275/95 92/330/96 90/331/97
f 69/332/98 83/333/99 81/334/98
f 70/335/100 81/336/101 82/337/100
f 70/338/102 84/339/102 72/340/102
f 72/341/103 83/342/104 71/343/104
f 75/344/105 85/345/105 73/346/105
f 74/347/106 85/348/106 86/349/106
f 76/350/107 86/351/108 88/352/107
f 75/353/109 88/354/110 87/355/109
f 79/356/111 89/357/111 77/358/111
f 78/359/112 89/360/112 90/361/112
f 78/362/113 92/363/114 80/364/114
f 79/365/115 92/366/116 91/367/115
f 150/368/3 190/369/3 136/370/3
f 110/371/117 135/372/117 137/373/117
f 146/374/5 137/375/5 148/376/5
f 145/377/118 110/378/118 146/379/118
f 147/380/5 192/381/5 230/382/5
f 161/383/119 154/384/119 160/385/119
f 148/376/5 152/386/5 154/387/5
f 138/388/120 190/389/120 192/390/120
f 160/391/5 152/386/5 157/392/5
f 137/373/121 151/393/121 152/394/121
f 145/395/3 135/396/3 109/397/3
f 158/398/122 136/399/122 138/388/122
f 161/400/3 151/401/3 153/402/3
f 122/403/5 230/382/5 179/404/5
f 153/405/123 148/406/123 154/384/123
f 149/407/124 146/408/124 148/406/124
f 119/409/3 227/410/3 150/368/3
f 122/411/125 150/412/125 147/413/125
f 150/412/126 159/414/126 147/413/126
f 149/415/3 151/401/3 135/396/3
f 162/416/3 136/370/3 156/417/3
f 159/418/5 138/419/5 147/380/5
f 157/392/5 159/418/5 160/391/5
f 155/420/127 158/398/127 157/421/127
f 162/416/3 155/422/3 161/400/3
f 160/385/128 162/423/128 161/383/128
f 152/394/129 155/420/129 157/421/129
f 234/424/3 190/369/3 227/410/3
f 217/425/130 191/426/130 219/427/130
f 219/428/5 229/429/5 232/430/5
f 191/431/131 228/432/131 229/433/131
f 192/381/5 231/434/5 230/382/5
f 238/435/132 245/436/132 244/437/132
f 236/438/5 232/430/5 238/439/5
f 190/389/133 220/440/133 192/390/133
f 244/441/5 236/438/5 238/439/5
f 235/442/134 219/427/134 236/443/134
f 228/444/3 217/445/3 233/446/3
f 218/447/135 242/448/135 220/440/135
f 235/449/3 245/450/3 237/451/3
f 230/382/5 204/452/5 179/404/5
f 232/453/136 237/454/136 238/435/136
f 229/455/137 233/456/137 232/453/137
f 201/457/3 227/410/3 178/458/3
f 234/459/138 204/460/138 231/461/138
f 243/462/139 234/459/139 231/461/139
f 233/446/3 235/449/3 237/451/3
f 246/463/3 218/464/3 234/424/3
f 220/465/5 243/466/5 231/434/5
f 243/466/5 241/467/5 244/441/5
f 242/448/140 239/468/140 241/469/140
f 246/463/3 239/470/3 240/471/3
f 246/472/141 244/437/141 245/436/141
f 239/468/142 236/443/142 241/469/142
f 2/173/11 1/177/11 11/174/11
f 4/176/12 3/183/12 1/177/12
f 6/178/13 5/182/13 10/179/13
f 6/178/14 8/473/14 7/181/14
f 9/180/15 10/179/15 3/183/15
f 11/174/16 13/185/16 14/184/16
f 13/185/17 15/192/17 16/186/17
f 21/187/18 22/474/18 17/188/18
f 18/189/19 17/188/19 19/190/19
f 15/192/20 22/474/143 21/187/21
f 24/193/23 26/196/23 25/194/23
f 26/196/24 28/203/24 27/197/24
f 32/198/25 30/475/25 29/199/25
f 29/199/26 30/475/26 34/201/26
f 28/203/27 32/198/27 31/200/27
f 35/204/28 36/206/28 24/193/28
f 37/205/29 38/212/29 36/206/29
f 41/207/30 39/210/30 40/208/30
f 39/210/31 43/476/31 44/211/31
f 41/207/32 42/209/144 38/212/33
f 5/213/3 30/242/3 32/214/3
f 17/216/35 22/258/35 42/217/35
f 12/219/5 23/223/5 25/220/5
f 12/219/5 14/247/5 35/222/5
f 8/224/4 33/477/4 34/225/4
f 19/227/36 44/478/36 43/228/36
f 11/230/3 1/253/3 26/231/3
f 11/230/3 24/232/3 36/233/3
f 6/235/37 29/250/37 33/236/37
f 18/238/38 20/479/38 43/239/38
f 5/213/39 7/480/39 34/241/39
f 17/216/40 40/218/40 44/243/40
f 2/221/5 25/220/5 27/245/5
f 14/247/5 16/260/5 37/248/5
f 6/235/5 9/259/5 31/249/5
f 18/238/41 39/240/41 41/251/42
f 1/253/3 3/257/3 28/254/3
f 13/234/3 36/233/3 38/255/3
f 10/215/3 32/214/3 28/254/3
f 22/258/44 15/256/44 38/255/44
f 9/259/5 4/246/5 27/245/5
f 21/252/43 41/251/42 37/248/45
f 46/261/46 48/481/46 47/262/46
f 49/264/48 50/482/145 52/265/49
f 53/267/51 54/483/146 56/268/52
f 59/270/54 60/484/54 58/271/54
f 61/273/56 63/485/147 64/274/57
f 65/276/59 67/486/148 68/277/60
f 47/279/62 59/487/62 57/280/63
f 46/282/64 45/488/64 57/283/64
f 46/285/65 58/489/65 60/286/66
f 47/288/67 48/490/67 60/289/67
f 51/291/68 63/491/68 61/292/68
f 50/294/69 49/492/70 61/295/70
f 52/297/71 50/493/72 62/298/72
f 51/300/73 52/494/73 64/301/73
f 55/303/74 67/495/74 65/304/74
f 54/306/75 53/496/76 65/307/76
f 56/309/77 54/497/77 66/310/77
f 55/312/78 56/498/79 68/313/79
f 69/315/80 70/499/149 72/316/81
f 73/318/83 74/500/150 76/319/84
f 77/321/86 78/501/151 80/322/87
f 81/324/89 83/502/152 84/325/90
f 85/327/92 87/503/153 88/328/93
f 89/275/95 91/504/154 92/330/96
f 69/332/98 71/505/99 83/333/99
f 70/335/100 69/506/101 81/336/101
f 70/338/102 82/507/102 84/339/102
f 72/341/103 84/508/103 83/342/104
f 75/344/105 87/509/105 85/345/105
f 74/347/106 73/510/106 85/348/106
f 76/350/107 74/511/108 86/351/108
f 75/353/109 76/512/110 88/354/110
f 79/356/111 91/513/111 89/357/111
f 78/359/112 77/514/112 89/360/112
f 78/362/113 90/515/113 92/363/114
f 79/365/115 80/516/116 92/366/116
f 150/368/3 227/410/3 190/369/3
f 110/371/117 109/517/117 135/372/117
f 146/374/5 110/518/5 137/375/5
f 145/377/118 109/519/118 110/378/118
f 147/380/5 138/419/5 192/381/5
f 161/383/119 153/405/119 154/384/119
f 148/376/5 137/375/5 152/386/5
f 138/388/120 136/399/120 190/389/120
f 160/391/5 154/387/5 152/386/5
f 137/373/121 135/372/121 151/393/121
f 145/395/3 149/415/3 135/396/3
f 158/398/122 156/520/122 136/399/122
f 161/400/3 155/422/3 151/401/3
f 122/403/5 147/380/5 230/382/5
f 153/405/123 149/407/123 148/406/123
f 149/407/124 145/521/124 146/408/124
f 119/409/3 178/458/3 227/410/3
f 122/411/125 119/522/125 150/412/125
f 150/412/126 162/423/126 159/414/126
f 149/415/3 153/402/3 151/401/3
f 162/416/3 150/368/3 136/370/3
f 159/418/5 158/523/5 138/419/5
f 157/392/5 158/523/5 159/418/5
f 155/420/127 156/520/127 158/398/127
f 162/416/3 156/417/3 155/422/3
f 160/385/128 159/414/128 162/423/128
f 152/394/129 151/393/129 155/420/129
f 234/424/3 218/464/3 190/369/3
f 217/425/130 189/524/130 191/426/130
f 219/428/5 191/525/5 229/429/5
f 191/431/131 189/526/131 228/432/131
f 192/381/5 220/465/5 231/434/5
f 238/435/132 237/454/132 245/436/132
f 236/438/5 219/428/5 232/430/5
f 190/389/133 218/447/133 220/440/133
f 244/441/5 241/467/5 236/438/5
f 235/442/134 217/425/134 219/427/134
f 228/444/3 189/527/3 217/445/3
f 218/447/135 240/528/135 242/448/135
f 235/449/3 239/470/3 245/450/3
f 230/382/5 231/434/5 204/452/5
f 232/453/136 233/456/136 237/454/136
f 229/455/137 228/529/137 233/456/137
f 201/457/3 234/424/3 227/410/3
f 234/459/138 201/530/138 204/460/138
f 243/462/139 246/472/139 234/459/139
f 233/446/3 217/445/3 235/449/3
f 246/463/3 240/471/3 218/464/3
f 220/465/5 242/531/5 243/466/5
f 243/466/5 242/531/5 241/467/5
f 242/448/140 240/528/140 239/468/140
f 246/463/3 245/450/3 239/470/3
f 246/472/141 243/462/141 244/437/141
f 239/468/142 235/442/142 236/443/142
