# Blender 4.4.1
# www.blender.org
mtllib Book1_Open.mtl
o Book1_Open_Cube.106
v 0.098734 0.050643 -0.316143
v 0.098734 0.050643 0.332916
v 0.187316 0.059255 -0.316143
v 0.187316 0.059255 0.332916
v 0.329380 0.043754 -0.316143
v 0.329380 0.043754 0.332916
v 0.358218 0.048786 -0.315602
v 0.358218 0.048786 0.333456
v 0.258348 0.058500 0.332916
v 0.258348 0.058500 -0.316143
v -0.003218 0.015336 -0.316143
v -0.003218 0.015336 0.332916
v -0.105170 0.050643 -0.316143
v -0.105170 0.050643 0.332916
v -0.193751 0.059255 -0.316143
v -0.193751 0.059255 0.332916
v -0.277218 0.055213 -0.324289
v -0.336338 0.055213 0.322401
v -0.305381 0.063147 -0.326007
v -0.364501 0.063147 0.320682
v -0.311744 0.058500 0.324375
v -0.252624 0.058500 -0.322314
v -0.003218 0.007542 0.332916
v -0.003218 0.007542 -0.316143
v 0.098734 0.043803 0.332916
v 0.098734 0.043803 -0.316143
v 0.187316 0.052647 0.332916
v 0.187316 0.052647 -0.316143
v 0.329380 0.036727 0.332916
v 0.329380 0.036727 -0.316143
v 0.258348 0.051872 0.332916
v 0.258348 0.051872 -0.316143
v 0.358218 0.041895 0.333456
v 0.358218 0.041895 -0.315602
v -0.105170 0.043803 0.332916
v -0.105170 0.043803 -0.316143
v -0.193751 0.052647 0.332916
v -0.193751 0.052647 -0.316143
v -0.336338 0.048496 0.322401
v -0.277218 0.048496 -0.324289
v -0.311744 0.051872 0.324375
v -0.252624 0.051872 -0.322314
v -0.364501 0.056644 0.320682
v -0.305381 0.056644 -0.326007
v -0.421224 0.010649 0.275691
v -0.130947 -0.016191 0.276304
v -0.344016 0.003584 -0.007511
v -0.111763 -0.017894 0.062164
v -0.429053 0.014931 -0.266088
v -0.301722 -0.000310 0.014973
v -0.168580 -0.022124 -0.284922
v -0.146652 -0.022646 -0.061622
v -0.399596 0.027407 -0.250957
v -0.297092 0.015025 0.014816
v -0.138910 -0.009503 -0.284776
v -0.116983 -0.010025 -0.061467
v -0.421549 0.007131 0.275690
v -0.131272 -0.019710 0.276303
v -0.344342 0.000066 -0.007512
v -0.112089 -0.021412 0.062163
v -0.429391 0.011414 -0.266096
v -0.302060 -0.003827 0.014963
v -0.168918 -0.025641 -0.284930
v -0.146990 -0.026163 -0.061631
v -0.399920 0.023889 -0.250937
v -0.297416 0.011507 0.014838
v -0.139234 -0.013021 -0.284756
v -0.117307 -0.013543 -0.061445
v 0.436108 0.011771 -0.237131
v 0.219265 -0.017674 -0.237701
v 0.360198 0.004007 0.026915
v 0.201501 -0.019554 -0.037747
v 0.402274 0.029353 -0.195722
v 0.170011 -0.002022 -0.226148
v 0.375940 0.008782 0.035337
v 0.162949 -0.014554 -0.035891
v 0.399869 0.012191 0.270735
v 0.353946 -0.003310 -0.039585
v 0.195704 -0.018355 0.286883
v 0.190464 -0.018928 0.080267
v 0.436500 0.008513 -0.237131
v 0.219657 -0.020932 -0.237700
v 0.360589 0.000750 0.026915
v 0.201893 -0.022812 -0.037747
v 0.402697 0.026099 -0.195722
v 0.170434 -0.005276 -0.226148
v 0.376363 0.005528 0.035337
v 0.163373 -0.017808 -0.035891
v 0.400260 0.008933 0.270735
v 0.354337 -0.006568 -0.039585
v 0.196095 -0.021612 0.286883
v 0.190856 -0.022185 0.080267
v 0.430061 -0.063147 0.370063
v 0.430061 -0.063147 -0.370063
v 0.430061 -0.045004 -0.370063
v 0.430061 -0.045004 0.370063
v 0.430061 -0.045004 -0.322173
v 0.430061 -0.063147 -0.322173
v 0.430061 -0.063147 0.339122
v 0.430061 -0.045004 0.339122
v 0.394728 -0.063147 0.370063
v 0.394728 -0.045004 0.370063
v 0.394728 -0.063147 -0.322173
v 0.394728 -0.063147 0.339122
v 0.394728 -0.063147 -0.370063
v 0.394728 -0.045004 -0.370063
v 0.394728 -0.045004 -0.322173
v 0.394728 -0.045004 0.339122
v 0.362490 0.039158 -0.322173
v 0.362490 0.039158 0.339122
v 0.295241 -0.063147 -0.370063
v 0.195754 -0.063147 -0.370063
v 0.043583 -0.055763 -0.370063
v 0.295241 -0.045004 -0.370063
v 0.195754 -0.045004 -0.370063
v 0.043583 -0.037620 -0.370063
v 0.295241 -0.045004 -0.322173
v 0.195754 -0.045004 -0.322173
v 0.043583 -0.037620 -0.322173
v 0.295241 -0.045004 0.339122
v 0.195754 -0.045004 0.339122
v 0.043583 -0.037620 0.339122
v 0.043583 -0.055763 0.370063
v 0.195754 -0.063147 0.370063
v 0.295241 -0.063147 0.370063
v 0.043583 -0.037620 0.370063
v 0.195754 -0.045004 0.370063
v 0.295241 -0.045004 0.370063
v 0.043583 -0.055763 -0.322173
v 0.195754 -0.063147 -0.322173
v 0.295241 -0.063147 -0.322173
v 0.043583 -0.055763 0.339122
v 0.195754 -0.063147 0.339122
v 0.295241 -0.063147 0.339122
v 0.321822 0.035066 -0.322173
v 0.096268 0.025612 -0.322173
v 0.321822 0.035067 0.339122
v 0.096268 0.025612 0.339122
v 0.058937 -0.045004 0.370063
v 0.058937 -0.063147 0.370063
v 0.058937 -0.045004 0.339122
v 0.058937 -0.045004 -0.322173
v 0.058937 -0.045004 -0.370063
v 0.058937 -0.063147 -0.370063
v 0.394428 -0.027247 -0.322173
v 0.394428 -0.027247 0.339122
v 0.096268 -0.035220 0.339122
v 0.296723 -0.046103 0.339122
v 0.296723 -0.046103 -0.322173
v 0.096268 -0.035220 -0.322173
v 0.261446 0.040204 -0.322173
v 0.261446 0.040204 0.339122
v 0.246238 -0.035114 -0.322173
v 0.246238 -0.035114 0.339122
v 0.221977 0.045065 -0.322173
v 0.169536 0.044342 -0.322173
v 0.221977 0.045065 0.339122
v 0.169536 0.044342 0.339122
v 0.169536 -0.025308 0.339122
v 0.221977 -0.028697 0.339122
v 0.221977 -0.028697 -0.322173
v 0.169536 -0.025308 -0.322173
v 0.058937 -0.063147 -0.322173
v 0.058937 -0.063147 0.339122
v -0.436500 -0.063147 0.370063
v -0.436500 -0.063147 -0.370063
v -0.436500 -0.045004 -0.370063
v -0.436500 -0.045004 0.370063
v -0.436500 -0.045004 -0.322173
v -0.436500 -0.063147 -0.322173
v -0.436500 -0.063147 0.339122
v -0.436500 -0.045004 0.339122
v -0.003219 -0.055763 0.370063
v -0.003219 -0.055763 -0.370063
v -0.003219 -0.037620 0.370063
v -0.003219 -0.037620 -0.370063
v -0.003219 -0.055763 -0.322173
v -0.003219 -0.037620 -0.322173
v -0.003219 -0.037620 0.339122
v -0.003219 -0.055763 0.339122
v -0.401166 -0.063147 0.370063
v -0.401166 -0.045004 0.370063
v -0.401166 -0.063147 -0.322173
v -0.401166 -0.063147 0.339122
v -0.401166 -0.063147 -0.370063
v -0.401166 -0.045004 -0.370063
v -0.401166 -0.045004 -0.322173
v -0.401166 -0.045004 0.339122
v -0.368929 0.039158 -0.322173
v -0.003219 0.013864 -0.322173
v -0.368929 0.039158 0.339122
v -0.003219 0.013864 0.339122
v -0.301680 -0.063147 -0.370063
v -0.202193 -0.063147 -0.370063
v -0.050022 -0.055763 -0.370063
v -0.301680 -0.045004 -0.370063
v -0.202193 -0.045004 -0.370063
v -0.050022 -0.037620 -0.370063
v -0.301680 -0.045004 -0.322173
v -0.202193 -0.045004 -0.322173
v -0.050022 -0.037620 -0.322173
v -0.301680 -0.045004 0.339122
v -0.202193 -0.045004 0.339122
v -0.050022 -0.037620 0.339122
v -0.050022 -0.055763 0.370063
v -0.202193 -0.063147 0.370063
v -0.301680 -0.063147 0.370063
v -0.050022 -0.037620 0.370063
v -0.202193 -0.045004 0.370063
v -0.301680 -0.045004 0.370063
v -0.050022 -0.055763 -0.322173
v -0.202193 -0.063147 -0.322173
v -0.301680 -0.063147 -0.322173
v -0.050022 -0.055763 0.339122
v -0.202193 -0.063147 0.339122
v -0.301680 -0.063147 0.339122
v -0.328261 0.035066 -0.322173
v -0.102706 0.025612 -0.322173
v -0.328261 0.035067 0.339122
v -0.102706 0.025612 0.339122
v -0.065376 -0.045004 0.370063
v -0.065376 -0.063147 0.370063
v -0.065376 -0.045004 0.339122
v -0.065376 -0.045004 -0.322173
v -0.065376 -0.045004 -0.370063
v -0.065376 -0.063147 -0.370063
v -0.003219 -0.026268 -0.322173
v -0.400866 -0.027247 -0.322173
v -0.400866 -0.027247 0.339122
v -0.003219 -0.026268 0.339122
v -0.102706 -0.035220 0.339122
v -0.303161 -0.046103 0.339122
v -0.303161 -0.046103 -0.322173
v -0.102706 -0.035220 -0.322173
v -0.267885 0.040204 -0.322173
v -0.267885 0.040204 0.339122
v -0.252677 -0.035114 -0.322173
v -0.252677 -0.035114 0.339122
v -0.228416 0.045065 -0.322173
v -0.175975 0.044342 -0.322173
v -0.228416 0.045065 0.339122
v -0.175975 0.044342 0.339122
v -0.175975 -0.025308 0.339122
v -0.228416 -0.028697 0.339122
v -0.228416 -0.028697 -0.322173
v -0.175975 -0.025308 -0.322173
v -0.065376 -0.063147 -0.322173
v -0.065376 -0.063147 0.339122
vn -0.0000 1.0000 -0.0000
vn -0.0000 -1.0000 -0.0000
vn -0.0000 -0.0000 -1.0000
vn 1.0000 -0.0000 -0.0000
vn -0.0000 -0.0000 1.0000
vn -0.4334 -0.9012 -0.0000
vn 0.4334 0.9012 -0.0000
vn -1.0000 -0.0000 -0.0000
vn 0.4334 -0.9012 -0.0000
vn -0.4334 0.9012 -0.0000
vn -0.3272 0.9449 -0.0000
vn -0.0968 0.9953 -0.0000
vn 0.2033 0.9791 -0.0000
vn -0.1719 0.9851 -0.0000
vn 0.0106 0.9999 -0.0000
vn 0.3272 0.9449 -0.0000
vn 0.0968 0.9953 -0.0000
vn -0.1315 0.9912 -0.0120
vn 0.2697 0.9626 0.0247
vn -0.0120 0.9999 -0.0010
vn -0.0068 1.0000 -0.0001
vn -0.0064 1.0000 -0.0000
vn 0.3351 -0.9422 -0.0000
vn 0.0993 -0.9951 -0.0000
vn -0.2085 -0.9780 -0.0000
vn 0.1764 -0.9843 -0.0000
vn -0.0109 -0.9999 -0.0000
vn -0.3351 -0.9422 -0.0000
vn -0.0993 -0.9951 -0.0000
vn 0.1350 -0.9908 0.0123
vn -0.2764 -0.9607 -0.0253
vn 0.0069 -1.0000 0.0001
vn 0.0123 -0.9999 0.0011
vn 0.0066 -1.0000 -0.0000
vn 0.0800 -0.0000 -0.9968
vn -0.9958 -0.0000 -0.0910
vn -0.0187 -0.0000 0.9998
vn -0.0609 -0.0000 0.9981
vn 0.0188 -0.0000 -0.9998
vn 0.0609 -0.0000 -0.9981
vn -0.0800 -0.0000 0.9968
vn -0.0724 -0.0000 0.9974
vn -0.0798 -0.0000 0.9968
vn 0.1042 -0.0000 -0.9946
vn -0.0722 -0.0000 0.9974
vn 0.0920 0.9958 0.0003
vn 0.0921 0.9958 0.0003
vn 0.1393 0.9902 -0.0104
vn 0.1390 0.9902 -0.0100
vn 0.1400 0.9901 -0.0114
vn 0.1371 0.9905 -0.0089
vn 0.1369 0.9905 -0.0085
vn 0.1387 0.9903 -0.0113
vn -0.0920 -0.9958 -0.0003
vn -0.0921 -0.9958 -0.0003
vn -0.1393 -0.9902 0.0104
vn -0.1390 -0.9902 0.0100
vn -0.1382 -0.9904 0.0089
vn -0.1371 -0.9905 0.0089
vn -0.1369 -0.9905 0.0085
vn -0.1353 -0.9908 0.0060
vn -0.9604 0.0891 -0.2640
vn -0.9604 0.0888 -0.2640
vn -0.0021 -0.0001 1.0000
vn 0.9918 -0.0916 0.0896
vn 0.9917 -0.0919 0.0896
vn 0.2850 -0.0261 -0.9582
vn -0.0708 0.0091 -0.9974
vn -0.9058 0.0859 0.4150
vn -0.9057 0.0861 0.4150
vn 0.4373 -0.0443 0.8982
vn 0.4373 -0.0446 0.8982
vn 0.9907 -0.0950 -0.0975
vn -0.1278 0.0061 -0.9918
vn -0.9280 0.0878 0.3620
vn -0.9281 0.0875 0.3620
vn 0.3863 -0.0298 0.9219
vn 0.9910 -0.0918 -0.0975
vn 0.9910 -0.0919 -0.0975
vn -0.1380 0.9904 -0.0068
vn -0.1390 0.9903 -0.0079
vn -0.1422 0.9898 -0.0118
vn -0.1366 0.9884 0.0670
vn -0.1371 0.9883 0.0662
vn -0.1327 0.9885 0.0729
vn -0.1344 0.9908 -0.0142
vn -0.1294 0.9914 -0.0197
vn -0.1479 0.9890 0.0010
vn 0.1380 -0.9904 0.0068
vn 0.1390 -0.9903 0.0079
vn 0.1345 -0.9909 0.0026
vn 0.1366 -0.9884 -0.0670
vn 0.1371 -0.9883 -0.0662
vn 0.1413 -0.9882 -0.0598
vn 0.1344 -0.9908 0.0142
vn 0.1294 -0.9914 0.0197
vn 0.1183 -0.9925 0.0321
vn 0.9538 0.1148 0.2776
vn 0.9539 0.1145 0.2776
vn 0.0026 -0.0000 -1.0000
vn 0.0026 0.0003 -1.0000
vn -0.9889 -0.1190 -0.0890
vn -0.3713 -0.0447 0.9275
vn -0.3713 -0.0446 0.9275
vn 0.9841 0.1279 0.1235
vn 0.1277 0.0166 -0.9917
vn -0.9906 -0.1291 -0.0453
vn -0.9906 -0.1288 -0.0453
vn -0.3129 -0.0407 0.9489
vn -0.3129 -0.0408 0.9489
vn 0.0775 0.0093 0.9970
vn 0.9815 0.1178 -0.1511
vn -0.5854 -0.0703 -0.8077
vn -0.5854 -0.0705 -0.8077
vn -0.9925 -0.1192 0.0255
vn -0.9925 -0.1194 0.0255
vn -0.1001 0.9950 -0.0000
vn 0.9012 0.4334 -0.0000
vn -0.2557 -0.9668 -0.0000
vn -0.1173 0.9931 -0.0000
vn 0.0848 0.9964 -0.0000
vn -0.2477 0.9688 -0.0000
vn -0.2127 -0.9771 -0.0000
vn 0.1895 -0.9819 -0.0000
vn 0.0455 -0.9990 -0.0000
vn 0.1341 -0.9910 -0.0000
vn -0.0138 0.9999 -0.0000
vn -0.0645 -0.9979 -0.0000
vn 0.1222 0.9925 -0.0000
vn 0.1001 0.9950 -0.0000
vn -0.9012 0.4334 -0.0000
vn 0.2557 -0.9668 -0.0000
vn 0.1173 0.9931 -0.0000
vn -0.0848 0.9964 -0.0000
vn 0.2477 0.9688 -0.0000
vn 0.2127 -0.9771 -0.0000
vn -0.1895 -0.9819 -0.0000
vn -0.0455 -0.9990 -0.0000
vn -0.1341 -0.9910 -0.0000
vn 0.0138 0.9999 -0.0000
vn 0.0645 -0.9979 -0.0000
vn -0.1222 0.9925 -0.0000
vn -0.0127 0.9999 -0.0012
vn 0.0130 -0.9999 0.0012
vn 0.1382 0.9904 -0.0089
vn 0.1353 0.9908 -0.0060
vn -0.1400 -0.9901 0.0114
vn -0.1387 -0.9903 0.0113
vn -0.1345 0.9909 -0.0026
vn -0.1413 0.9882 0.0598
vn -0.1183 0.9925 -0.0321
vn 0.1422 -0.9898 0.0118
vn 0.1327 -0.9885 -0.0729
vn 0.1479 -0.9890 -0.0010
vt 0.020713 0.374763
vt 0.000002 0.359483
vt 0.020713 0.359483
vt 0.320088 0.015281
vt 0.340799 0.000000
vt 0.340799 0.015281
vt 0.859516 0.640515
vt 0.867362 0.625236
vt 0.867362 0.640515
vt 0.963782 0.013385
vt 0.971620 0.000000
vt 0.971620 0.013380
vt 0.963782 0.320061
vt 0.971620 0.299346
vt 0.971620 0.320056
vt 0.626791 0.000000
vt 0.626791 0.015281
vt 0.306705 0.374763
vt 0.306705 0.359483
vt 0.320086 0.374763
vt 0.320086 0.359483
vt 0.640173 0.000000
vt 0.640173 0.015281
vt 0.963782 0.299351
vt 0.878402 0.792377
vt 0.870556 0.812618
vt 0.870556 0.792377
vt 0.875209 0.625236
vt 0.867363 0.640517
vt 0.867363 0.625236
vt 0.626791 0.058306
vt 0.640173 0.058306
vt 0.306705 0.316457
vt 0.320086 0.316457
vt 0.340799 0.058306
vt 0.859516 0.683538
vt 0.867362 0.683538
vt 0.320088 0.058306
vt 0.000002 0.316457
vt 0.020713 0.316457
vt 0.020711 0.207615
vt 0.000000 0.187374
vt 0.020711 0.187374
vt 0.020713 0.273432
vt 0.000002 0.214263
vt 0.020713 0.214263
vt 0.000002 0.273432
vt 0.320087 0.187388
vt 0.340798 0.167148
vt 0.340798 0.187388
vt 0.320088 0.160501
vt 0.340799 0.101331
vt 0.340800 0.160501
vt 0.320088 0.101331
vt 0.856323 0.812605
vt 0.864169 0.792366
vt 0.864169 0.812605
vt 0.859516 0.785726
vt 0.867362 0.726560
vt 0.867362 0.785726
vt 0.859516 0.726560
vt 0.626790 0.167148
vt 0.626790 0.187388
vt 0.626792 0.101331
vt 0.626792 0.160501
vt 0.320084 0.207615
vt 0.306703 0.187374
vt 0.320084 0.187374
vt 0.320086 0.273432
vt 0.306705 0.214262
vt 0.320086 0.214262
vt 0.306705 0.273432
vt 0.640171 0.167148
vt 0.640171 0.187388
vt 0.640173 0.101331
vt 0.640173 0.160501
vt 0.875209 0.640517
vt 0.867363 0.683542
vt 0.875209 0.683542
vt 0.867363 0.726567
vt 0.875209 0.785737
vt 0.867363 0.785737
vt 0.875209 0.726567
vt 0.306703 0.207615
vt 0.320087 0.167148
vt 0.000000 0.207615
vt 0.000002 0.015281
vt 0.020713 0.000000
vt 0.020713 0.015281
vt 0.340800 0.374763
vt 0.320089 0.359482
vt 0.340800 0.359482
vt 0.867362 0.999974
vt 0.859516 0.984694
vt 0.867362 0.984694
vt 0.328870 0.374763
vt 0.336712 0.388146
vt 0.328870 0.388139
vt 0.328870 0.674008
vt 0.336712 0.694717
vt 0.328870 0.694710
vt 0.626792 0.374763
vt 0.626792 0.359482
vt 0.306705 0.000000
vt 0.306705 0.015281
vt 0.320087 0.000000
vt 0.320087 0.015281
vt 0.640173 0.374763
vt 0.640173 0.359482
vt 0.336712 0.674015
vt 0.878402 0.832859
vt 0.870556 0.832859
vt 0.867363 0.984719
vt 0.875209 1.000000
vt 0.867363 1.000000
vt 0.626792 0.316457
vt 0.640173 0.316457
vt 0.306705 0.058306
vt 0.320087 0.058306
vt 0.340800 0.316457
vt 0.859516 0.941672
vt 0.867362 0.941672
vt 0.320089 0.316457
vt 0.000002 0.058306
vt 0.020713 0.058306
vt 0.020711 0.167133
vt 0.000002 0.160501
vt 0.020713 0.101331
vt 0.020713 0.160501
vt 0.000002 0.101331
vt 0.340798 0.207629
vt 0.340800 0.273432
vt 0.320088 0.214263
vt 0.340800 0.214263
vt 0.320089 0.273432
vt 0.864169 0.832844
vt 0.867362 0.898650
vt 0.859516 0.839484
vt 0.867362 0.839484
vt 0.859516 0.898650
vt 0.626790 0.207629
vt 0.626792 0.273432
vt 0.626792 0.214263
vt 0.320084 0.167133
vt 0.306705 0.160501
vt 0.320086 0.101331
vt 0.320086 0.160501
vt 0.306705 0.101331
vt 0.640171 0.207629
vt 0.640173 0.273432
vt 0.640173 0.214263
vt 0.867363 0.941694
vt 0.875209 0.984719
vt 0.867363 0.898669
vt 0.875209 0.941694
vt 0.875209 0.839499
vt 0.867363 0.839499
vt 0.875209 0.898669
vt 0.306703 0.167133
vt 0.856323 0.832844
vt 0.320087 0.207629
vt 0.000000 0.167133
vt 0.642138 0.112211
vt 0.922110 0.160628
vt 0.641444 0.156262
vt 0.642737 0.073916
vt 0.922805 0.116577
vt 0.643688 0.012469
vt 0.923881 0.047565
vt 0.643214 0.043199
vt 0.924316 0.004366
vt 0.924355 0.016835
vt 0.923403 0.078282
vt 0.640767 0.200383
vt 0.921433 0.204750
vt 0.640173 0.238696
vt 0.643072 0.289775
vt 0.923799 0.279206
vt 0.643760 0.300420
vt 0.924355 0.291404
vt 0.644315 0.312618
vt 0.920839 0.243062
vt 0.642417 0.473247
vt 0.922389 0.424830
vt 0.923083 0.468881
vt 0.641723 0.429195
vt 0.921791 0.386533
vt 0.640647 0.360183
vt 0.920839 0.325087
vt 0.921314 0.355817
vt 0.640212 0.316984
vt 0.920878 0.312618
vt 0.641125 0.390899
vt 0.923761 0.513002
vt 0.924355 0.551314
vt 0.643095 0.517368
vt 0.921455 0.602394
vt 0.640728 0.591824
vt 0.641416 0.581179
vt 0.920768 0.613038
vt 0.640173 0.604021
vt 0.643688 0.555680
vt 0.884621 0.637715
vt 0.881352 0.668460
vt 0.878486 0.668482
vt 0.881737 0.900107
vt 0.883098 0.889450
vt 0.884642 0.900084
vt 0.904787 0.781463
vt 0.917405 0.737459
vt 0.920363 0.737479
vt 0.916790 0.825640
vt 0.901416 0.781440
vt 0.287766 0.374765
vt 0.290742 0.655438
vt 0.287766 0.655440
vt 0.328870 0.653580
vt 0.326059 0.374763
vt 0.328870 0.374774
vt 0.898046 0.781444
vt 0.885387 0.737454
vt 0.901416 0.781417
vt 0.886083 0.825628
vt 0.883125 0.825651
vt 0.918080 0.637713
vt 0.917363 0.625236
vt 0.920344 0.625257
vt 0.921011 0.925647
vt 0.921542 0.937831
vt 0.918106 0.925627
vt 0.885326 0.625236
vt 0.887660 0.637691
vt 0.881214 0.912299
vt 0.878402 0.912321
vt 0.921497 0.699177
vt 0.924355 0.699197
vt 0.919748 0.825660
vt 0.920348 0.863974
vt 0.921376 0.668456
vt 0.915041 0.637692
vt 0.919644 0.915001
vt 0.922510 0.915021
vt 0.882429 0.737477
vt 0.881260 0.699179
vt 0.882561 0.863963
vt 0.879703 0.863986
vt 0.878402 0.699201
vt 0.880231 0.889473
vt 0.924242 0.668476
vt 0.923206 0.863994
vt 0.761385 0.658007
vt 0.640173 0.752183
vt 0.640173 0.625236
vt 0.382437 0.794214
vt 0.457212 0.663238
vt 0.488433 0.755113
vt 0.105995 0.814281
vt 0.190562 0.693810
vt 0.216474 0.787326
vt 0.609644 0.787708
vt 0.488433 0.693531
vt 0.609644 0.660761
vt 0.105995 0.824533
vt 0.031221 0.693559
vt 0.105995 0.691081
vt 0.326951 0.814281
vt 0.242385 0.693812
vt 0.326951 0.691081
vt 0.323121 0.496222
vt 0.321596 0.374792
vt 0.323121 0.374763
vt 0.287529 0.374763
vt 0.286001 0.500836
vt 0.286001 0.374763
vt 0.348768 0.660760
vt 0.350281 0.753495
vt 0.348768 0.753479
vt 0.327342 0.754797
vt 0.328870 0.653581
vt 0.328870 0.754798
vt 0.286001 0.500905
vt 0.287527 0.614515
vt 0.286001 0.614585
vt 0.324645 0.374817
vt 0.323121 0.497980
vt 0.321596 0.680333
vt 0.323122 0.612648
vt 0.323122 0.680408
vt 0.350281 0.757209
vt 0.351794 0.660760
vt 0.351794 0.757198
vt 0.324533 0.508947
vt 0.326059 0.622559
vt 0.324533 0.622634
vt 0.323120 0.496310
vt 0.321596 0.612515
vt 0.321596 0.496251
vt 0.343001 0.739406
vt 0.344528 0.660834
vt 0.344528 0.739479
vt 0.351794 0.757226
vt 0.353307 0.660761
vt 0.353307 0.757204
vt 0.578600 0.906525
vt 0.504938 0.795626
vt 0.578600 0.787708
vt 0.206557 0.815985
vt 0.124574 0.909589
vt 0.105995 0.814281
vt 0.728714 0.752183
vt 0.644971 0.841439
vt 0.640173 0.752183
vt 0.761385 0.879714
vt 0.835048 0.768815
vt 0.851554 0.854046
vt 0.382437 0.795917
vt 0.464419 0.889523
vt 0.382437 0.897192
vt 0.761385 0.625236
vt 0.838894 0.719958
vt 0.761385 0.760897
vt 0.320181 0.489421
vt 0.321596 0.374763
vt 0.321596 0.489400
vt 0.320177 0.685570
vt 0.321596 0.590956
vt 0.321596 0.685592
vt 0.345931 0.747003
vt 0.344528 0.660760
vt 0.345931 0.660784
vt 0.341604 0.730171
vt 0.340186 0.660802
vt 0.341604 0.660760
vt 0.323121 0.498150
vt 0.324530 0.598456
vt 0.323121 0.598572
vt 0.320181 0.590927
vt 0.321600 0.489428
vt 0.321600 0.590934
vt 0.343002 0.660861
vt 0.341604 0.743106
vt 0.341604 0.660760
vt 0.348768 0.660787
vt 0.347349 0.753449
vt 0.347349 0.660760
vt 0.347349 0.750032
vt 0.345931 0.660801
vt 0.347349 0.660760
vt 0.324645 0.508810
vt 0.326059 0.374825
vt 0.326059 0.508872
vt 0.286001 0.614618
vt 0.287419 0.684996
vt 0.286001 0.685030
vt 0.324530 0.598574
vt 0.323128 0.687956
vt 0.323128 0.598572
vt 0.959076 0.472880
vt 0.937848 0.515903
vt 0.932768 0.472880
vt 0.285994 0.691081
vt 0.000003 0.673498
vt 0.285995 0.673497
vt 0.932509 -0.000000
vt 0.959458 0.031400
vt 0.924355 0.042255
vt 0.320087 0.660896
vt 0.290742 0.374763
vt 0.320087 0.374929
vt 0.929061 0.128946
vt 0.950289 0.171972
vt 0.932933 0.171971
vt 0.411291 0.660759
vt 0.400793 0.374766
vt 0.411291 0.374767
vt 0.961680 0.057511
vt 0.929107 0.064088
vt 0.285997 0.575961
vt 0.000008 0.532948
vt 0.286001 0.532948
vt 0.931882 0.074580
vt 0.963782 0.074580
vt 0.000001 0.647381
vt 0.285993 0.647381
vt 0.955628 0.343943
vt 0.928679 0.375341
vt 0.926909 0.357754
vt 0.285992 0.607629
vt 0.000005 0.575961
vt 0.956255 0.418518
vt 0.926457 0.401450
vt 0.959030 0.408027
vt 0.928023 0.151731
vt 0.928023 0.171971
vt 0.400793 0.660758
vt 0.378949 0.374763
vt 0.378949 0.660755
vt 0.336712 0.374768
vt 0.960114 0.495664
vt 0.955204 0.515903
vt 0.488433 0.374765
vt 0.465651 0.660758
vt 0.465651 0.374766
vt 0.433974 0.374768
vt 0.963782 0.386195
vt 0.954789 0.441196
vt 0.924667 0.441196
vt 0.933348 0.097260
vt 0.955369 0.128946
vt -0.000000 0.630307
vt 0.285992 0.630307
vt 0.924355 0.418518
vt 0.433974 0.660760
vt 0.959076 0.558925
vt 0.000003 0.392355
vt 0.285994 0.374763
vt 0.285995 0.392355
vt 0.959458 0.312543
vt 0.932509 0.343943
vt 0.924355 0.301688
vt 0.382437 0.660761
vt 0.353306 0.947009
vt 0.353306 0.661140
vt 0.929061 0.214997
vt 0.576078 0.374766
vt 0.565592 0.660760
vt 0.565592 0.374768
vt 0.961680 0.286432
vt 0.929107 0.279855
vt 0.285997 0.489911
vt 0.931882 0.269363
vt 0.000002 0.418461
vt 0.285994 0.418461
vt 0.955628 0.687862
vt 0.928679 0.656465
vt 0.963782 0.645611
vt 0.000005 0.489911
vt 0.285993 0.458205
vt 0.926457 0.630356
vt 0.956255 0.613288
vt 0.959030 0.623779
vt 0.928023 0.192213
vt 0.597901 0.374763
vt 0.576078 0.660758
vt 0.640173 0.374768
vt 0.597901 0.660755
vt 0.960114 0.536142
vt 0.960114 0.515903
vt 0.511220 0.660758
vt 0.488433 0.374765
vt 0.511220 0.374766
vt 0.542916 0.374768
vt 0.954789 0.590610
vt 0.932768 0.558925
vt 0.955369 0.214997
vt 0.933348 0.246684
vt 0.963782 0.269363
vt 0.000000 0.435525
vt 0.285992 0.435525
vt 0.924355 0.613288
vt 0.924667 0.590610
vt 0.542916 0.660760
vt 0.000002 0.374763
vt 0.320088 0.000000
vt 0.859516 0.625236
vt 0.963782 0.000005
vt 0.878402 0.812618
vt 0.856323 0.792366
vt 0.000002 0.000000
vt 0.320089 0.374763
vt 0.859516 0.999974
vt 0.336712 0.374770
vt 0.643650 -0.000000
vt 0.923112 0.268561
vt 0.640173 0.329453
vt 0.920212 0.625236
vt 0.290742 0.374763
vt 0.326059 0.653569
vt 0.924355 0.937851
vt 0.882346 0.625260
vt 0.745027 0.749537
vt 0.382437 0.660760
vt 0.105995 0.691081
vt 0.504791 0.785061
vt 0.000000 0.785435
vt 0.216474 0.787329
vt 0.321596 0.496251
vt 0.287528 0.500836
vt 0.350281 0.660776
vt 0.327342 0.653580
vt 0.287527 0.500836
vt 0.324645 0.498034
vt 0.321596 0.612574
vt 0.350281 0.660770
vt 0.326059 0.508872
vt 0.323120 0.612574
vt 0.343001 0.660760
vt 0.351794 0.660784
vt 0.488433 0.880859
vt 0.206557 0.917258
vt 0.719529 0.887532
vt 0.761385 0.760897
vt 0.482999 0.794214
vt 0.849725 0.631233
vt 0.320181 0.374784
vt 0.320177 0.590934
vt 0.344528 0.746979
vt 0.340186 0.730212
vt 0.324530 0.498034
vt 0.320181 0.489421
vt 0.343002 0.743206
vt 0.348768 0.753476
vt 0.345931 0.750073
vt 0.324645 0.374763
vt 0.287419 0.614585
vt 0.324530 0.687958
vt 0.000001 0.691081
vt 0.961228 0.013812
vt 0.290742 0.660730
vt 0.000000 0.607629
vt 0.336712 0.660760
vt 0.488433 0.660757
vt 0.963470 0.097260
vt 0.000002 0.374763
vt 0.961228 0.330131
vt 0.382437 0.946629
vt 0.926909 0.674051
vt 0.000000 0.458205
vt 0.640173 0.660760
vt 0.488433 0.660758
vt 0.963470 0.246684
s 1
usemtl DarkRed
f 97/1/1 106/2/1 107/3/1
f 105/4/2 98/5/2 103/6/2
f 106/7/3 94/8/3 105/9/3
f 100/10/4 93/11/4 99/12/4
f 95/13/4 98/14/4 94/15/4
f 103/6/2 99/16/2 104/17/2
f 100/18/1 107/3/1 108/19/1
f 96/20/1 108/19/1 102/21/1
f 104/17/2 93/22/2 101/23/2
f 97/24/4 99/12/4 98/14/4
f 126/25/5 173/26/5 123/27/5
f 96/28/5 101/29/5 93/30/5
f 134/31/2 101/23/2 125/32/2
f 102/21/1 120/33/1 128/34/1
f 131/35/2 104/17/2 134/31/2
f 114/36/3 105/9/3 111/37/3
f 111/38/2 103/6/2 131/35/2
f 107/3/1 114/39/1 117/40/1
f 119/41/1 176/42/1 178/43/1
f 118/44/1 143/45/1 142/46/1
f 117/40/1 115/47/1 118/44/1
f 174/48/2 129/49/2 177/50/2
f 144/51/2 130/52/2 163/53/2
f 112/54/2 131/35/2 130/52/2
f 176/55/3 113/56/3 174/57/3
f 143/58/3 112/59/3 144/60/3
f 115/61/3 111/37/3 112/59/3
f 177/50/2 132/62/2 180/63/2
f 163/53/2 133/64/2 164/65/2
f 130/52/2 134/31/2 133/64/2
f 126/66/1 179/67/1 175/68/1
f 127/69/1 141/70/1 139/71/1
f 128/34/1 121/72/1 127/69/1
f 180/63/2 123/73/2 173/74/2
f 164/65/2 124/75/2 140/76/2
f 133/64/2 125/32/2 124/75/2
f 102/77/5 125/78/5 101/29/5
f 128/79/5 124/80/5 125/78/5
f 139/81/5 123/27/5 140/82/5
f 132/62/6 140/76/6 123/73/6
f 127/83/5 140/82/5 124/80/5
f 118/44/1 121/72/1 120/33/1
f 142/46/7 122/84/7 141/70/7
f 139/71/7 122/84/7 126/66/7
f 129/49/6 164/65/6 132/62/6
f 113/56/3 143/58/3 144/60/3
f 113/85/6 163/53/6 129/49/6
f 142/46/7 116/86/7 119/41/7
f 186/87/1 169/88/1 187/89/1
f 170/90/2 185/91/2 183/92/2
f 166/93/3 186/94/3 185/95/3
f 165/96/8 172/97/8 171/98/8
f 170/99/8 167/100/8 166/101/8
f 171/102/2 183/92/2 184/103/2
f 187/89/1 172/104/1 188/105/1
f 188/105/1 168/106/1 182/107/1
f 165/108/2 184/103/2 181/109/2
f 171/98/8 169/110/8 170/99/8
f 173/26/5 208/111/5 205/112/5
f 181/113/5 168/114/5 165/115/5
f 181/109/2 216/116/2 207/117/2
f 202/118/1 182/107/1 210/119/1
f 184/103/2 213/120/2 216/116/2
f 185/95/3 196/121/3 193/122/3
f 183/92/2 193/123/2 213/120/2
f 196/124/1 187/89/1 199/125/1
f 176/42/1 201/126/1 178/43/1
f 225/127/1 200/128/1 224/129/1
f 197/130/1 199/125/1 200/128/1
f 211/131/2 174/48/2 177/50/2
f 212/132/2 226/133/2 247/134/2
f 213/120/2 194/135/2 212/132/2
f 195/136/3 176/55/3 174/57/3
f 194/137/3 225/138/3 226/139/3
f 193/122/3 197/140/3 194/137/3
f 214/141/2 177/50/2 180/63/2
f 215/142/2 247/134/2 248/143/2
f 216/116/2 212/132/2 215/142/2
f 179/67/1 208/144/1 175/68/1
f 223/145/1 209/146/1 221/147/1
f 203/148/1 210/119/1 209/146/1
f 205/149/2 180/63/2 173/74/2
f 206/150/2 248/143/2 222/151/2
f 207/117/2 215/142/2 206/150/2
f 207/152/5 182/153/5 181/113/5
f 206/154/5 210/155/5 207/152/5
f 205/112/5 221/156/5 222/157/5
f 222/151/9 214/141/9 205/149/9
f 222/157/5 209/158/5 206/154/5
f 202/118/1 203/148/1 200/128/1
f 204/159/10 224/129/10 223/145/10
f 204/159/10 221/147/10 208/144/10
f 248/143/9 211/131/9 214/141/9
f 195/136/3 225/138/3 198/160/3
f 247/134/9 195/161/9 211/131/9
f 198/162/10 224/129/10 201/126/10
f 97/1/1 95/463/1 106/2/1
f 105/4/2 94/464/2 98/5/2
f 106/7/3 95/465/3 94/8/3
f 100/10/4 96/466/4 93/11/4
f 95/13/4 97/24/4 98/14/4
f 103/6/2 98/5/2 99/16/2
f 100/18/1 97/1/1 107/3/1
f 96/20/1 100/18/1 108/19/1
f 104/17/2 99/16/2 93/22/2
f 97/24/4 100/10/4 99/12/4
f 126/25/5 175/467/5 173/26/5
f 96/28/5 102/77/5 101/29/5
f 134/31/2 104/17/2 101/23/2
f 102/21/1 108/19/1 120/33/1
f 131/35/2 103/6/2 104/17/2
f 114/36/3 106/7/3 105/9/3
f 111/38/2 105/4/2 103/6/2
f 107/3/1 106/2/1 114/39/1
f 119/41/1 116/86/1 176/42/1
f 118/44/1 115/47/1 143/45/1
f 117/40/1 114/39/1 115/47/1
f 174/48/2 113/85/2 129/49/2
f 144/51/2 112/54/2 130/52/2
f 112/54/2 111/38/2 131/35/2
f 176/55/3 116/468/3 113/56/3
f 143/58/3 115/61/3 112/59/3
f 115/61/3 114/36/3 111/37/3
f 177/50/2 129/49/2 132/62/2
f 163/53/2 130/52/2 133/64/2
f 130/52/2 131/35/2 134/31/2
f 126/66/1 122/84/1 179/67/1
f 127/69/1 121/72/1 141/70/1
f 128/34/1 120/33/1 121/72/1
f 180/63/2 132/62/2 123/73/2
f 164/65/2 133/64/2 124/75/2
f 133/64/2 134/31/2 125/32/2
f 102/77/5 128/79/5 125/78/5
f 128/79/5 127/83/5 124/80/5
f 139/81/5 126/25/5 123/27/5
f 132/62/6 164/65/6 140/76/6
f 127/83/5 139/81/5 140/82/5
f 108/19/1 107/3/1 117/40/1
f 118/44/1 142/46/1 141/70/1
f 108/19/1 117/40/1 118/44/1
f 120/33/1 108/19/1 118/44/1
f 118/44/1 141/70/1 121/72/1
f 142/46/7 119/41/7 122/84/7
f 139/71/7 141/70/7 122/84/7
f 129/49/6 163/53/6 164/65/6
f 113/56/3 116/468/3 143/58/3
f 113/85/6 144/51/6 163/53/6
f 142/46/7 143/45/7 116/86/7
f 186/87/1 167/469/1 169/88/1
f 170/90/2 166/470/2 185/91/2
f 166/93/3 167/471/3 186/94/3
f 165/96/8 168/472/8 172/97/8
f 170/99/8 169/110/8 167/100/8
f 171/102/2 170/90/2 183/92/2
f 187/89/1 169/88/1 172/104/1
f 188/105/1 172/104/1 168/106/1
f 165/108/2 171/102/2 184/103/2
f 171/98/8 172/97/8 169/110/8
f 173/26/5 175/467/5 208/111/5
f 181/113/5 182/153/5 168/114/5
f 181/109/2 184/103/2 216/116/2
f 202/118/1 188/105/1 182/107/1
f 184/103/2 183/92/2 213/120/2
f 185/95/3 186/94/3 196/121/3
f 183/92/2 185/91/2 193/123/2
f 196/124/1 186/87/1 187/89/1
f 176/42/1 198/162/1 201/126/1
f 225/127/1 197/130/1 200/128/1
f 197/130/1 196/124/1 199/125/1
f 211/131/2 195/161/2 174/48/2
f 212/132/2 194/135/2 226/133/2
f 213/120/2 193/123/2 194/135/2
f 195/136/3 198/160/3 176/55/3
f 194/137/3 197/140/3 225/138/3
f 193/122/3 196/121/3 197/140/3
f 214/141/2 211/131/2 177/50/2
f 215/142/2 212/132/2 247/134/2
f 216/116/2 213/120/2 212/132/2
f 179/67/1 204/159/1 208/144/1
f 223/145/1 203/148/1 209/146/1
f 203/148/1 202/118/1 210/119/1
f 205/149/2 214/141/2 180/63/2
f 206/150/2 215/142/2 248/143/2
f 207/117/2 216/116/2 215/142/2
f 207/152/5 210/155/5 182/153/5
f 206/154/5 209/158/5 210/155/5
f 205/112/5 208/111/5 221/156/5
f 222/151/9 248/143/9 214/141/9
f 222/157/5 221/156/5 209/158/5
f 199/125/1 187/89/1 188/105/1
f 199/125/1 188/105/1 202/118/1
f 223/145/1 224/129/1 200/128/1
f 200/128/1 199/125/1 202/118/1
f 203/148/1 223/145/1 200/128/1
f 204/159/10 201/126/10 224/129/10
f 204/159/10 223/145/10 221/147/10
f 248/143/9 247/134/9 211/131/9
f 195/136/3 226/139/3 225/138/3
f 247/134/9 226/133/9 195/161/9
f 198/162/10 225/127/10 224/129/10
usemtl Beige
f 2/163/11 11/164/11 12/165/11
f 4/166/12 1/167/12 2/163/12
f 6/168/13 10/169/13 9/170/13
f 6/168/14 7/171/14 5/172/14
f 9/170/15 3/173/15 4/166/15
f 11/164/16 14/174/16 12/165/16
f 13/175/17 16/176/17 14/174/17
f 21/177/18 17/178/18 18/179/18
f 18/179/19 19/180/19 20/181/19
f 15/182/20 21/177/21 16/176/22
f 24/183/23 25/184/23 23/185/23
f 26/186/24 27/187/24 25/184/24
f 32/188/25 29/189/25 31/190/25
f 29/189/26 34/191/26 33/192/26
f 28/193/27 31/190/27 27/187/27
f 35/194/28 24/183/28 23/185/28
f 37/195/29 36/196/29 35/194/29
f 41/197/30 40/198/30 42/199/30
f 39/200/31 44/201/31 40/198/31
f 41/197/32 38/202/33 37/195/34
f 5/203/3 32/204/3 10/205/3
f 17/206/35 42/207/35 40/208/35
f 12/209/5 25/210/5 2/211/5
f 12/209/5 35/212/5 23/213/5
f 8/214/4 34/215/4 7/216/4
f 19/217/36 43/218/36 20/219/36
f 11/220/3 26/221/3 24/222/3
f 11/220/3 36/223/3 13/224/3
f 6/225/37 33/226/37 8/227/37
f 18/228/38 43/229/38 39/230/38
f 5/203/39 34/231/39 30/232/39
f 17/206/40 44/233/40 19/234/40
f 2/211/5 27/235/5 4/236/5
f 14/237/5 37/238/5 35/212/5
f 6/225/5 31/239/5 29/240/5
f 18/228/41 41/241/42 21/242/43
f 1/243/3 28/244/3 26/221/3
f 13/224/3 38/245/3 15/246/3
f 10/205/3 28/244/3 3/247/3
f 22/248/44 38/245/44 42/207/44
f 9/249/5 27/235/5 31/239/5
f 21/242/43 37/238/45 16/250/45
f 46/251/46 47/252/46 45/253/47
f 49/254/48 52/255/49 51/256/50
f 53/257/51 56/258/52 55/259/53
f 59/260/54 58/261/54 57/262/55
f 61/263/56 64/264/57 62/265/58
f 65/266/59 68/267/60 66/268/61
f 47/269/62 57/270/63 45/271/63
f 46/272/64 57/273/64 58/274/64
f 46/275/65 60/276/66 48/277/66
f 47/278/67 60/279/67 59/280/67
f 51/281/68 61/282/68 49/283/68
f 50/284/69 61/285/70 62/271/69
f 52/286/71 62/287/72 64/288/71
f 51/289/73 64/290/73 63/291/73
f 55/292/74 65/293/74 53/294/74
f 54/295/75 65/296/76 66/297/75
f 56/298/77 66/299/77 68/300/77
f 55/301/78 68/302/79 67/303/78
f 69/304/80 72/305/81 71/306/82
f 73/307/83 76/308/84 75/309/85
f 77/310/86 80/311/87 79/312/88
f 81/313/89 84/314/90 82/315/91
f 85/316/92 88/317/93 86/318/94
f 89/319/95 92/320/96 90/321/97
f 69/322/98 83/323/99 81/324/98
f 70/325/100 81/326/101 82/327/100
f 70/328/102 84/329/102 72/330/102
f 72/331/103 83/332/104 71/333/104
f 75/334/105 85/335/105 73/336/105
f 74/337/106 85/338/106 86/339/106
f 76/340/107 86/341/108 88/342/107
f 75/343/109 88/344/110 87/345/109
f 79/346/111 89/347/111 77/348/111
f 78/349/112 89/350/112 90/351/112
f 78/352/113 92/353/114 80/354/114
f 79/355/115 92/356/116 91/357/115
f 150/358/3 190/359/3 136/360/3
f 110/361/117 135/362/117 137/363/117
f 146/364/5 137/365/5 148/366/5
f 145/367/118 110/368/118 146/369/118
f 147/370/5 192/371/5 230/372/5
f 161/373/119 154/374/119 160/375/119
f 148/366/5 152/376/5 154/377/5
f 138/378/120 190/379/120 192/380/120
f 160/381/5 152/376/5 157/382/5
f 137/363/121 151/383/121 152/384/121
f 145/385/3 135/386/3 109/387/3
f 158/388/122 136/389/122 138/378/122
f 161/390/3 151/391/3 153/392/3
f 122/393/5 230/372/5 179/394/5
f 153/395/123 148/396/123 154/374/123
f 149/397/124 146/398/124 148/396/124
f 119/399/3 227/400/3 150/358/3
f 122/401/125 150/402/125 147/403/125
f 150/402/126 159/404/126 147/403/126
f 149/405/3 151/391/3 135/386/3
f 162/406/3 136/360/3 156/407/3
f 159/408/5 138/409/5 147/370/5
f 157/382/5 159/408/5 160/381/5
f 155/410/127 158/388/127 157/411/127
f 162/406/3 155/412/3 161/390/3
f 160/375/128 162/413/128 161/373/128
f 152/384/129 155/410/129 157/411/129
f 234/414/3 190/359/3 227/400/3
f 217/415/130 191/416/130 219/417/130
f 219/418/5 229/419/5 232/420/5
f 191/421/131 228/422/131 229/423/131
f 192/371/5 231/424/5 230/372/5
f 238/425/132 245/426/132 244/427/132
f 236/428/5 232/420/5 238/429/5
f 190/379/133 220/430/133 192/380/133
f 244/431/5 236/428/5 238/429/5
f 235/432/134 219/417/134 236/433/134
f 228/434/3 217/435/3 233/436/3
f 218/437/135 242/438/135 220/430/135
f 235/439/3 245/440/3 237/441/3
f 230/372/5 204/442/5 179/394/5
f 232/443/136 237/444/136 238/425/136
f 229/445/137 233/446/137 232/443/137
f 201/447/3 227/400/3 178/448/3
f 234/449/138 204/450/138 231/451/138
f 243/452/139 234/449/139 231/451/139
f 233/436/3 235/439/3 237/441/3
f 246/453/3 218/454/3 234/414/3
f 220/455/5 243/456/5 231/424/5
f 243/456/5 241/457/5 244/431/5
f 242/438/140 239/458/140 241/459/140
f 246/453/3 239/460/3 240/461/3
f 246/462/141 244/427/141 245/426/141
f 239/458/142 236/433/142 241/459/142
f 2/163/11 1/167/11 11/164/11
f 4/166/12 3/173/12 1/167/12
f 6/168/13 5/172/13 10/169/13
f 6/168/14 8/473/14 7/171/14
f 9/170/15 10/169/15 3/173/15
f 11/164/16 13/175/16 14/174/16
f 13/175/17 15/182/17 16/176/17
f 21/177/18 22/474/18 17/178/18
f 18/179/19 17/178/19 19/180/19
f 15/182/20 22/474/143 21/177/21
f 24/183/23 26/186/23 25/184/23
f 26/186/24 28/193/24 27/187/24
f 32/188/25 30/475/25 29/189/25
f 29/189/26 30/475/26 34/191/26
f 28/193/27 32/188/27 31/190/27
f 35/194/28 36/196/28 24/183/28
f 37/195/29 38/202/29 36/196/29
f 41/197/30 39/200/30 40/198/30
f 39/200/31 43/476/31 44/201/31
f 41/197/32 42/199/144 38/202/33
f 5/203/3 30/232/3 32/204/3
f 17/206/35 22/248/35 42/207/35
f 12/209/5 23/213/5 25/210/5
f 12/209/5 14/237/5 35/212/5
f 8/214/4 33/477/4 34/215/4
f 19/217/36 44/478/36 43/218/36
f 11/220/3 1/243/3 26/221/3
f 11/220/3 24/222/3 36/223/3
f 6/225/37 29/240/37 33/226/37
f 18/228/38 20/479/38 43/229/38
f 5/203/39 7/480/39 34/231/39
f 17/206/40 40/208/40 44/233/40
f 2/211/5 25/210/5 27/235/5
f 14/237/5 16/250/5 37/238/5
f 6/225/5 9/249/5 31/239/5
f 18/228/41 39/230/41 41/241/42
f 1/243/3 3/247/3 28/244/3
f 13/224/3 36/223/3 38/245/3
f 10/205/3 32/204/3 28/244/3
f 22/248/44 15/246/44 38/245/44
f 9/249/5 4/236/5 27/235/5
f 21/242/43 41/241/42 37/238/45
f 46/251/46 48/481/46 47/252/46
f 49/254/48 50/482/145 52/255/49
f 53/257/51 54/483/146 56/258/52
f 59/260/54 60/484/54 58/261/54
f 61/263/56 63/485/147 64/264/57
f 65/266/59 67/486/148 68/267/60
f 47/269/62 59/487/62 57/270/63
f 46/272/64 45/488/64 57/273/64
f 46/275/65 58/489/65 60/276/66
f 47/278/67 48/490/67 60/279/67
f 51/281/68 63/491/68 61/282/68
f 50/284/69 49/492/70 61/285/70
f 52/286/71 50/493/72 62/287/72
f 51/289/73 52/494/73 64/290/73
f 55/292/74 67/495/74 65/293/74
f 54/295/75 53/496/76 65/296/76
f 56/298/77 54/497/77 66/299/77
f 55/301/78 56/498/79 68/302/79
f 69/304/80 70/499/149 72/305/81
f 73/307/83 74/500/150 76/308/84
f 77/310/86 78/501/151 80/311/87
f 81/313/89 83/502/152 84/314/90
f 85/316/92 87/503/153 88/317/93
f 89/319/95 91/504/154 92/320/96
f 69/322/98 71/505/99 83/323/99
f 70/325/100 69/506/101 81/326/101
f 70/328/102 82/507/102 84/329/102
f 72/331/103 84/508/103 83/332/104
f 75/334/105 87/509/105 85/335/105
f 74/337/106 73/510/106 85/338/106
f 76/340/107 74/511/108 86/341/108
f 75/343/109 76/512/110 88/344/110
f 79/346/111 91/513/111 89/347/111
f 78/349/112 77/514/112 89/350/112
f 78/352/113 90/515/113 92/353/114
f 79/355/115 80/516/116 92/356/116
f 150/358/3 227/400/3 190/359/3
f 110/361/117 109/517/117 135/362/117
f 146/364/5 110/518/5 137/365/5
f 145/367/118 109/519/118 110/368/118
f 147/370/5 138/409/5 192/371/5
f 161/373/119 153/395/119 154/374/119
f 148/366/5 137/365/5 152/376/5
f 138/378/120 136/389/120 190/379/120
f 160/381/5 154/377/5 152/376/5
f 137/363/121 135/362/121 151/383/121
f 145/385/3 149/405/3 135/386/3
f 158/388/122 156/520/122 136/389/122
f 161/390/3 155/412/3 151/391/3
f 122/393/5 147/370/5 230/372/5
f 153/395/123 149/397/123 148/396/123
f 149/397/124 145/521/124 146/398/124
f 119/399/3 178/448/3 227/400/3
f 122/401/125 119/522/125 150/402/125
f 150/402/126 162/413/126 159/404/126
f 149/405/3 153/392/3 151/391/3
f 162/406/3 150/358/3 136/360/3
f 159/408/5 158/523/5 138/409/5
f 157/382/5 158/523/5 159/408/5
f 155/410/127 156/520/127 158/388/127
f 162/406/3 156/407/3 155/412/3
f 160/375/128 159/404/128 162/413/128
f 152/384/129 151/383/129 155/410/129
f 234/414/3 218/454/3 190/359/3
f 217/415/130 189/524/130 191/416/130
f 219/418/5 191/525/5 229/419/5
f 191/421/131 189/526/131 228/422/131
f 192/371/5 220/455/5 231/424/5
f 238/425/132 237/444/132 245/426/132
f 236/428/5 219/418/5 232/420/5
f 190/379/133 218/437/133 220/430/133
f 244/431/5 241/457/5 236/428/5
f 235/432/134 217/415/134 219/417/134
f 228/434/3 189/527/3 217/435/3
f 218/437/135 240/528/135 242/438/135
f 235/439/3 239/460/3 245/440/3
f 230/372/5 231/424/5 204/442/5
f 232/443/136 233/446/136 237/444/136
f 229/445/137 228/529/137 233/446/137
f 201/447/3 234/414/3 227/400/3
f 234/449/138 201/530/138 204/450/138
f 243/452/139 246/462/139 234/449/139
f 233/436/3 217/435/3 235/439/3
f 246/453/3 240/461/3 218/454/3
f 220/455/5 242/531/5 243/456/5
f 243/456/5 242/531/5 241/457/5
f 242/438/140 240/528/140 239/458/140
f 246/453/3 245/440/3 239/460/3
f 246/462/141 243/452/141 244/427/141
f 239/458/142 235/432/142 236/433/142
