# Blender 4.4.1
# www.blender.org
mtllib enemy1.mtl
o Book1_Open_Cube.106
v 3.161430 0.625979 0.715569
v -3.329160 0.746056 0.666706
v 3.161430 0.886900 1.404505
v -3.329160 1.082622 1.352170
v 3.161430 1.078023 2.573254
v -3.329160 1.380140 2.539682
v 3.156020 1.181027 2.793575
v -3.334560 1.507885 2.755176
v -3.329160 1.286832 1.925112
v 3.161430 1.039077 1.973403
v 3.161430 0.141220 -0.031595
v -3.329160 0.136318 -0.036233
v 3.161430 0.222753 -0.919258
v -3.329160 0.091518 -0.964988
v 3.161430 0.101578 -1.650117
v -3.329160 -0.108883 -1.697866
v 3.242890 -0.109924 -2.312155
v -3.224010 -0.565865 -2.823623
v 3.260070 -0.106032 -2.554636
v -3.206820 -0.588373 -3.073298
v -3.243750 -0.465579 -2.637088
v 3.223140 -0.030993 -2.121570
v -3.329160 0.073735 -0.009803
v 3.161430 0.078945 -0.017593
v -3.329160 0.692087 0.688376
v 3.161430 0.570372 0.729382
v -3.329160 1.029949 1.372727
v 3.161430 0.833713 1.418226
v -3.329160 1.323853 2.561140
v 3.161430 1.021736 2.588249
v -3.329160 1.233785 1.945492
v 3.161430 0.985944 1.987407
v -3.334560 1.452732 2.776204
v 3.156020 1.125787 2.808305
v -3.329160 0.035994 -0.943229
v 3.161430 0.168703 -0.905532
v -3.329160 -0.161937 -1.677185
v 3.161430 0.048814 -1.636510
v -3.224010 -0.619622 -2.803011
v 3.242890 -0.163751 -2.298176
v -3.243750 -0.518633 -2.616719
v 3.223140 -0.084082 -2.107809
v -3.206820 -0.640416 -3.053351
v 3.260070 -0.158165 -2.541081
v -2.756910 2.557665 -3.436666
v -2.763040 0.652075 -1.230574
v 0.075110 2.051416 -2.849459
v -0.621640 0.526713 -1.084365
v 2.660880 2.638013 -3.475485
v -0.149730 1.773903 -2.527930
v 2.849220 0.822530 -1.571293
v 0.616220 0.690830 -1.395890
v 2.509570 2.568321 -3.163268
v -0.148160 1.871779 -2.401122
v 2.847760 0.752781 -1.256499
v 0.614670 0.621086 -1.081105
v -2.756900 2.530926 -3.459758
v -2.763030 0.625328 -1.253672
v 0.075120 2.024684 -2.872560
v -0.621630 0.499981 -1.107466
v 2.660960 2.611358 -3.498677
v -0.149630 1.747248 -2.551122
v 2.849300 0.795876 -1.594485
v 0.616310 0.664176 -1.419083
v 2.509370 2.541577 -3.186352
v -0.148380 1.845035 -2.424206
v 2.847560 0.726037 -1.279584
v 0.614450 0.594342 -1.104189
v 2.371310 2.759790 3.472899
v 2.377010 1.212213 1.925709
v -0.269150 2.238274 2.915870
v 0.377470 1.089669 1.795738
v 1.957220 2.694788 3.097185
v 2.261480 1.038465 1.438979
v -0.353370 2.371609 3.012217
v 0.358910 0.895973 1.458681
v -2.707350 2.543657 3.181984
v 0.395850 2.142185 2.910434
v -2.868830 1.064102 1.742347
v -0.802670 1.027807 1.704120
v 2.371310 2.736239 3.495750
v 2.377000 1.188662 1.948560
v -0.269150 2.214724 2.938707
v 0.377470 1.066118 1.818589
v 1.957220 2.671457 3.120258
v 2.261480 1.015134 1.462052
v -0.353370 2.348277 3.035290
v 0.358910 0.872647 1.481762
v -2.707350 2.520100 3.204828
v 0.395850 2.118628 2.933277
v -2.868830 1.040552 1.765184
v -0.802670 1.004263 1.726965
v -3.700630 0.117843 3.557817
v 3.700630 0.024392 3.542901
v 3.700630 0.171061 3.521602
v -3.700630 0.264424 3.532582
v 3.221730 0.173432 3.521881
v 3.221730 0.023271 3.542722
v -3.391220 0.116551 3.557610
v -3.391220 0.265120 3.532664
v -3.700630 0.067723 3.274026
v -3.700630 0.216437 3.249114
v 3.221730 -0.026693 3.257483
v -3.391220 0.062336 3.273082
v 3.700630 -0.018848 3.258858
v 3.700630 0.130140 3.237941
v 3.221730 0.139193 3.239113
v -3.391220 0.221245 3.249736
v 3.221731 1.797514 2.787045
v -3.391220 1.873960 2.780193
v 3.700630 -0.141664 2.458449
v 3.700630 -0.265333 1.656238
v 3.700630 -0.389086 0.405073
v 3.700630 0.012786 2.439018
v 3.700630 -0.106798 1.639575
v 3.700630 -0.236687 0.397743
v 3.221730 0.036286 2.443202
v 3.221730 -0.071113 1.649418
v 3.221730 -0.202381 0.435778
v -3.391220 0.096871 2.453990
v -3.391220 -0.028367 1.661208
v -3.391220 -0.189697 0.449841
v -3.700630 -0.370416 0.433236
v -3.700630 -0.211162 1.676150
v -3.700630 -0.071581 2.475207
v -3.700630 -0.216006 0.420672
v -3.700630 -0.051795 1.654746
v -3.700630 0.082639 2.451455
v 3.221730 -0.401089 0.386966
v 3.221730 -0.296479 1.644789
v 3.221730 -0.163588 2.453207
v -3.391220 -0.382247 0.415389
v -3.391220 -0.233886 1.667797
v -3.391220 -0.086127 2.471728
v 3.221731 1.596793 2.479028
v 3.221730 0.458271 0.739538
v -3.391220 1.670803 2.472637
v -3.391220 0.481117 0.736001
v -3.700630 -0.248609 0.558993
v -3.700630 -0.405997 0.571671
v -3.391220 -0.223669 0.582475
v 3.221730 -0.239828 0.567261
v 3.700630 -0.274527 0.534590
v 3.700630 -0.429637 0.542377
v 3.221731 1.341126 3.305039
v -3.391221 1.422294 3.311915
v -3.391220 0.021549 0.908161
v -3.391221 0.812701 2.598114
v 3.221731 0.749563 2.586701
v 3.221730 -0.004335 0.895896
v 3.221731 1.358239 1.980646
v -3.391221 1.420917 1.972969
v 3.221731 0.617429 2.136670
v -3.391221 0.671807 2.146265
v 3.221731 1.200736 1.653558
v 3.221731 0.938279 1.250147
v -3.391221 1.254366 1.644784
v -3.391221 0.973159 1.242984
v -3.391221 0.418853 1.487616
v -3.391221 0.615351 1.925435
v 3.221731 0.565221 1.916983
v 3.221731 0.378356 1.479299
v 3.221730 -0.448049 0.519560
v -3.391220 -0.423032 0.550561
v -3.700630 -0.305977 -3.547113
v 3.700630 -0.225551 -3.562255
v 3.700630 -0.086042 -3.550483
v -3.700630 -0.158231 -3.539908
v 3.221730 -0.099566 -3.548502
v 3.221730 -0.250764 -3.557508
v -3.391220 -0.322634 -3.543977
v -3.391220 -0.172619 -3.537800
v -3.700630 -0.426603 0.022193
v 3.700630 -0.425680 -0.006522
v -3.700630 -0.280612 0.006368
v 3.700630 -0.279683 -0.012450
v 3.221730 -0.425757 -0.004125
v 3.221730 -0.279565 -0.014837
v -3.391220 -0.280449 0.003075
v -3.391220 -0.426699 0.025170
v -3.700630 -0.334697 -3.259584
v -3.700630 -0.184473 -3.253436
v 3.221730 -0.279719 -3.270775
v -3.391220 -0.344321 -3.257625
v 3.700630 -0.263470 -3.274083
v 3.700630 -0.114183 -3.264548
v 3.221730 -0.110394 -3.265147
v -3.391220 -0.180581 -3.254051
v 3.221730 1.828684 -2.883427
v 3.221730 0.135036 -0.026087
v -3.391220 1.756132 -2.887624
v -3.391220 0.134018 -0.026595
v 3.700630 -0.328445 -2.469799
v 3.700630 -0.386276 -1.665810
v 3.700630 -0.413812 -0.418412
v 3.700630 -0.172165 -2.462452
v 3.700630 -0.225113 -1.661434
v 3.700630 -0.259116 -0.423072
v 3.221730 -0.146354 -2.467753
v 3.221730 -0.184212 -1.673678
v 3.221730 -0.217393 -0.465904
v -3.391220 -0.207916 -2.455111
v -3.391220 -0.233131 -1.659034
v -3.391220 -0.231111 -0.451820
v -3.700630 -0.426975 -0.399948
v -3.700630 -0.429190 -1.649073
v -3.700630 -0.384369 -2.454927
v -3.700630 -0.267619 -0.414342
v -3.700630 -0.264728 -1.649575
v -3.700630 -0.226950 -2.451202
v 3.221730 -0.430149 -0.395496
v 3.221730 -0.423507 -1.651290
v 3.221730 -0.355203 -2.462683
v -3.391220 -0.445366 -0.374151
v -3.391220 -0.459247 -1.637351
v -3.391220 -0.403219 -2.449915
v 3.221730 1.595184 -2.572073
v 3.221730 0.460740 -0.800118
v -3.391220 1.546720 -2.574708
v -3.391220 0.421588 -0.804629
v -3.700630 -0.317320 -0.545293
v -3.700630 -0.480047 -0.531510
v -3.391220 -0.282618 -0.576598
v 3.221730 -0.264161 -0.593248
v 3.700630 -0.305602 -0.555865
v 3.700630 -0.463282 -0.551434
v 3.221730 -0.188184 -0.017993
v 3.221730 1.415772 -3.409930
v -3.391220 1.334424 -3.400678
v -3.391220 -0.189145 -0.003949
v -3.391220 -0.062028 -0.921632
v -3.391220 0.660546 -2.649935
v 3.221730 0.713244 -2.660900
v 3.221730 -0.037478 -0.933421
v 3.221730 1.368686 -2.065137
v -3.391220 1.300720 -2.071202
v 3.221730 0.559697 -2.200013
v -3.391220 0.508717 -2.189665
v 3.221730 1.216225 -1.732009
v 3.221730 0.966556 -1.318613
v -3.391220 1.143101 -1.741401
v -3.391220 0.879236 -1.333198
v -3.391220 0.261124 -1.517483
v -3.391220 0.450883 -1.966727
v 3.221730 0.500241 -1.976339
v 3.221730 0.303661 -1.527225
v 3.221730 -0.486750 -0.523545
v -3.391220 -0.504524 -0.502421
vn 0.0137 0.9922 -0.1241
vn 0.0139 0.9900 -0.1402
vn 0.0181 0.9917 -0.1272
vn 0.0113 -0.9879 0.1549
vn -0.0012 -0.9857 0.1688
vn 0.0036 -0.9858 0.1676
vn 1.0000 -0.0000 -0.0000
vn 0.0023 0.1662 0.9861
vn -0.0001 0.1685 0.9857
vn 0.0026 0.1654 0.9862
vn -0.0003 0.1425 0.9898
vn 0.0025 0.1381 0.9904
vn -0.0007 0.1437 0.9896
vn -0.0084 -0.9823 0.1870
vn -0.0126 -0.9831 0.1828
vn 0.0049 0.9882 -0.1528
vn -0.0010 0.9880 -0.1546
vn -0.0089 0.9870 -0.1604
vn -0.0184 0.9866 -0.1619
vn -0.0106 -0.9836 0.1803
vn -0.0198 -0.9840 0.1768
vn 0.0027 0.1377 0.9905
vn -1.0000 -0.0000 -0.0000
vn -0.0255 -0.9835 0.1791
vn -0.0469 -0.9834 0.1750
vn -0.0172 0.9874 -0.1573
vn -0.0472 0.9857 -0.1617
vn 0.0172 -0.9864 0.1636
vn 0.0387 -0.9868 0.1573
vn 0.0424 0.9891 -0.1410
vn 0.0315 0.9906 -0.1334
vn 0.0291 0.9898 -0.1396
vn 0.0379 0.9990 -0.0223
vn 0.0003 0.9999 -0.0159
vn 0.0380 0.9888 -0.1446
vn 0.0635 0.9862 -0.1527
vn 0.0323 0.9875 -0.1540
vn 0.0666 0.9873 -0.1443
vn 0.0155 -0.9993 0.0329
vn 0.0038 -0.9976 0.0688
vn 0.0001 -0.9993 0.0379
vn 0.0390 -0.9899 0.1365
vn 0.0234 -0.9884 0.1504
vn 0.0114 -0.9907 0.1353
vn 0.0576 -0.9867 0.1523
vn -0.0158 -0.9936 0.1122
vn -0.0096 -0.9970 0.0767
vn -0.0356 -0.9846 0.1711
vn -0.0243 -0.9852 0.1696
vn -0.0410 0.9824 -0.1820
vn -0.0351 0.9979 -0.0548
vn -0.0012 0.9980 -0.0625
vn -0.0704 0.9826 -0.1718
vn -0.0315 0.9838 -0.1763
vn -0.0658 0.9821 -0.1764
vn -0.0308 0.9851 -0.1689
vn -0.0187 -0.9923 0.1227
vn -0.0010 -0.9977 0.0679
vn -0.0655 -0.9833 0.1698
vn -0.0423 -0.9839 0.1736
vn -0.0347 -0.9584 -0.2833
vn -0.0571 -0.9640 -0.2595
vn -0.0513 -0.9672 -0.2486
vn 0.0455 0.9610 0.2728
vn -0.0489 0.9682 0.2455
vn -0.0460 0.9677 0.2479
vn -0.1019 0.9671 0.2331
vn -0.1038 0.9681 0.2282
vn 0.0154 -0.9426 -0.3335
vn -0.0387 -0.9566 -0.2889
vn 0.0478 -0.9552 -0.2921
vn 0.0170 -0.9441 -0.3292
vn 0.0881 0.9597 0.2668
vn 0.0472 0.9607 0.2736
vn -0.0039 0.9972 0.0749
vn -0.0077 0.9988 0.0485
vn 0.0024 0.9989 0.0460
vn 0.0250 -0.9941 -0.1057
vn 0.0390 -0.9942 -0.1004
vn 0.0234 -0.9953 -0.0945
vn 0.0100 0.0466 -0.9989
vn 0.0047 0.0422 -0.9991
vn 0.0050 0.0413 -0.9991
vn -0.0050 0.0617 -0.9981
vn -0.0126 0.0792 -0.9968
vn -0.0143 0.0841 -0.9964
vn -0.0217 -0.9969 -0.0758
vn -0.0139 -0.9969 -0.0773
vn 0.0179 0.9994 0.0282
vn -0.0035 0.9992 0.0389
vn 0.0154 0.9980 0.0614
vn -0.0181 0.9977 0.0649
vn -0.0410 -0.9953 -0.0880
vn -0.0338 -0.9958 -0.0848
vn -0.0043 0.0593 -0.9982
vn -0.0250 -0.9973 -0.0689
vn -0.0637 -0.9959 -0.0635
vn -0.0318 0.9988 0.0368
vn -0.0655 0.9969 0.0439
vn 0.0330 -0.9958 -0.0860
vn 0.0508 -0.9955 -0.0803
vn 0.0454 0.9972 0.0602
vn 0.0243 0.9985 0.0491
vn 0.0370 0.9945 0.0975
vn 0.0810 0.9940 0.0732
vn 0.0385 0.9975 0.0593
vn 0.0399 0.9965 0.0737
vn 0.0782 0.9949 0.0633
vn 0.0087 -1.0000 0.0021
vn 0.0386 -0.9967 -0.0719
vn 0.0531 -0.9968 -0.0592
vn 0.0249 -0.9982 -0.0551
vn 0.0715 -0.9947 -0.0743
vn -0.0321 -0.9984 0.0460
vn -0.0434 -0.9977 -0.0521
vn -0.0366 -0.9984 -0.0421
vn -0.0650 0.9948 0.0787
vn -0.0579 0.9972 0.0478
vn -0.1007 0.9938 0.0463
vn -0.1066 0.9932 0.0473
vn -0.0514 0.9978 0.0416
vn -0.0366 -0.9990 0.0273
vn -0.0931 -0.9945 -0.0482
vn -0.0745 -0.9962 -0.0453
vn -0.0928 -0.9183 0.3848
vn -0.0494 -0.9097 0.4123
vn -0.0860 -0.9240 0.3727
vn -0.0753 0.9233 -0.3767
vn 0.0535 0.9377 -0.3432
vn -0.0712 0.9220 -0.3806
vn -0.1488 0.9219 -0.3577
vn -0.1515 0.9241 -0.3507
vn -0.0545 -0.9068 0.4181
vn 0.0269 -0.9143 0.4042
vn 0.0288 -0.9165 0.3991
vn 0.0633 -0.9316 0.3579
vn 0.1078 0.9375 -0.3310
vn 0.0556 0.9372 -0.3442
vn 0.0048 0.9897 -0.1428
vn 0.0023 -0.9886 0.1505
vn -0.0006 0.1697 0.9855
vn 0.0628 0.9926 -0.1040
vn 0.0216 -0.9958 0.0885
vn -0.0644 0.9779 -0.1987
vn 0.0503 -0.9578 -0.2829
vn 0.0877 0.9601 0.2655
vn -0.0277 0.9948 0.0979
vn 0.0508 -0.9902 -0.1303
vn 0.0091 0.0487 -0.9988
vn 0.0823 0.9954 0.0499
vn 0.0327 -0.9991 -0.0288
vn -0.1037 0.9888 0.1072
vn 0.0661 -0.9352 0.3478
vn 0.1068 0.9384 -0.3285
vn 0.0016 0.7633 -0.6461
vn 0.0178 0.8319 -0.5547
vn -0.0001 0.7554 -0.6553
vn 0.0207 0.9004 -0.4345
vn 0.0302 0.9322 -0.3606
vn 0.0199 0.8975 -0.4407
vn 0.0393 0.9886 -0.1450
vn 0.0463 0.9965 -0.0699
vn 0.0388 0.9879 -0.1500
vn 0.0463 0.8610 -0.5066
vn 0.0444 0.9044 -0.4243
vn 0.0443 0.9054 -0.4222
vn 0.0315 0.9430 -0.3312
vn 0.0383 0.9641 -0.2629
vn 0.0311 0.9415 -0.3356
vn -0.0190 0.9967 0.0789
vn -0.0025 0.9993 -0.0360
vn -0.0007 0.9988 -0.0482
vn -0.0298 0.9848 -0.1710
vn -0.0186 0.9664 -0.2565
vn -0.0176 0.9644 -0.2637
vn -0.0245 0.8804 -0.4736
vn -0.0311 0.9215 -0.3871
vn -0.0244 0.8794 -0.4754
vn -0.0667 0.9936 -0.0917
vn -0.0711 0.9974 0.0084
vn -0.0665 0.9933 -0.0941
vn -0.0412 0.9582 -0.2832
vn -0.0284 0.9351 -0.3532
vn -0.0276 0.9337 -0.3571
vn -0.0173 -0.8281 0.5603
vn -0.0004 -0.7568 0.6536
vn 0.0014 -0.7486 0.6630
vn -0.0299 -0.9311 0.3634
vn -0.0204 -0.8995 0.4365
vn -0.0196 -0.8965 0.4426
vn -0.0462 -0.9968 0.0646
vn -0.0392 -0.9894 0.1397
vn -0.0387 -0.9887 0.1446
vn -0.0457 -0.8585 0.5107
vn -0.0439 -0.9026 0.4283
vn -0.0457 -0.8574 0.5126
vn -0.0381 -0.9641 0.2628
vn -0.0313 -0.9432 0.3307
vn -0.0308 -0.9417 0.3351
vn 0.0026 -0.9996 0.0281
vn 0.0191 -0.9960 -0.0878
vn 0.0009 -0.9992 0.0404
vn 0.0192 -0.9672 0.2532
vn 0.0301 -0.9851 0.1692
vn 0.0182 -0.9653 0.2603
vn 0.0247 -0.8787 0.4767
vn 0.0312 -0.9201 0.3905
vn 0.0313 -0.9209 0.3886
vn 0.0673 -0.9941 0.0847
vn 0.0716 -0.9973 -0.0153
vn 0.0717 -0.9973 -0.0179
vn 0.0288 -0.9351 0.3532
vn 0.0414 -0.9580 0.2839
vn 0.0281 -0.9337 0.3570
vn 0.9954 0.0242 0.0931
vn 0.0133 0.3557 0.9345
vn 0.0073 0.2582 0.9661
vn 0.0073 0.2576 0.9662
vn 0.0950 -0.2511 -0.9633
vn 0.1010 -0.3555 -0.9292
vn 0.1011 -0.3561 -0.9290
vn -0.9998 -0.0078 -0.0204
vn -0.9975 -0.0255 -0.0664
vn -0.9975 -0.0254 -0.0664
vn 0.9997 0.0058 0.0218
vn 0.9973 0.0184 0.0710
vn -0.9956 -0.0335 -0.0873
vn -0.9963 -0.0306 -0.0797
vn -0.9957 -0.0333 -0.0867
vn 0.9921 0.0314 0.1211
vn 0.9922 0.0312 0.1211
vn -0.9964 -0.0308 -0.0789
vn -0.0003 0.7568 0.6537
vn 0.0104 0.7248 0.6889
vn 0.0100 0.7250 0.6887
vn 0.0114 0.7243 0.6894
vn 0.0089 0.7263 0.6873
vn 0.0085 0.7265 0.6871
vn 0.0113 0.7252 0.6885
vn 0.0003 -0.7568 -0.6537
vn -0.0104 -0.7248 -0.6889
vn -0.0100 -0.7250 -0.6887
vn -0.0089 -0.7255 -0.6881
vn -0.0089 -0.7263 -0.6873
vn -0.0085 -0.7265 -0.6871
vn -0.0060 -0.7276 -0.6859
vn 0.2640 0.6307 -0.7297
vn 0.2640 0.6305 -0.7299
vn -1.0000 0.0012 -0.0018
vn -0.0896 -0.6510 0.7538
vn -0.0896 -0.6512 0.7536
vn 0.9582 -0.1869 0.2167
vn 0.9974 0.0486 -0.0524
vn -0.4150 0.5963 -0.6871
vn -0.4150 0.5965 -0.6870
vn -0.8982 -0.2902 0.3301
vn -0.8982 -0.2904 0.3299
vn 0.0975 -0.6531 0.7510
vn 0.9918 0.0793 -0.1004
vn -0.3620 0.6108 -0.7042
vn -0.3620 0.6106 -0.7043
vn -0.9219 -0.2488 0.2970
vn 0.0975 -0.6507 0.7530
vn 0.0975 -0.6508 0.7530
vn 0.0068 0.7045 -0.7097
vn 0.0079 0.7038 -0.7103
vn 0.0118 0.7015 -0.7126
vn -0.0670 0.7038 -0.7073
vn -0.0662 0.7034 -0.7077
vn -0.0729 0.7062 -0.7042
vn 0.0142 0.7071 -0.7070
vn 0.0197 0.7105 -0.7034
vn -0.0010 0.6974 -0.7167
vn -0.0068 -0.7045 0.7097
vn -0.0079 -0.7038 0.7103
vn -0.0026 -0.7070 0.7072
vn 0.0670 -0.7038 0.7073
vn 0.0662 -0.7034 0.7077
vn 0.0598 -0.7007 0.7109
vn -0.0142 -0.7071 0.7070
vn -0.0197 -0.7105 0.7034
vn -0.0321 -0.7181 0.6952
vn -0.2776 0.6690 0.6895
vn -0.2776 0.6688 0.6897
vn 1.0000 0.0016 0.0021
vn 1.0000 0.0018 0.0019
vn 0.0890 -0.6936 -0.7148
vn 0.0890 -0.6936 -0.7149
vn -0.9275 -0.2604 -0.2684
vn -0.9275 -0.2603 -0.2684
vn -0.1235 0.6978 0.7056
vn 0.9917 0.0905 0.0915
vn 0.0453 -0.7026 -0.7101
vn 0.0453 -0.7024 -0.7103
vn 0.0453 -0.7027 -0.7101
vn -0.9489 -0.2219 -0.2243
vn -0.9970 0.0543 0.0560
vn 0.1511 0.6881 0.7097
vn 0.8077 -0.4105 -0.4233
vn 0.8077 -0.4106 -0.4232
vn -0.0255 -0.6959 -0.7177
vn -0.0255 -0.6961 -0.7174
vn 0.0099 0.8345 -0.5510
vn 0.0102 0.8376 -0.5461
vn 0.0099 0.8344 -0.5511
vn 0.0081 0.7511 0.6601
vn 0.0099 0.7613 0.6483
vn 0.0100 0.7621 0.6474
vn -0.0077 -0.9728 0.2316
vn -0.0070 -0.9689 0.2473
vn -0.0070 -0.9688 0.2477
vn 0.0002 0.9111 -0.4123
vn 0.0031 0.9204 -0.3910
vn -0.0001 0.9102 -0.4143
vn 0.0091 0.8948 -0.4464
vn 0.0104 0.9015 -0.4326
vn 0.0090 0.8944 -0.4473
vn 0.0030 0.7183 -0.6957
vn 0.0045 0.7279 -0.6857
vn 0.0029 0.7176 -0.6965
vn -0.0086 -0.9592 0.2824
vn -0.0075 -0.9549 0.2970
vn -0.0074 -0.9546 0.2977
vn -0.0086 -0.7709 0.6369
vn -0.0064 -0.7615 0.6482
vn -0.0061 -0.7604 0.6494
vn -0.0027 -0.9087 0.4175
vn -0.0010 -0.9180 0.3965
vn -0.0028 -0.9082 0.4186
vn -0.0043 -0.8354 0.5496
vn -0.0023 -0.8255 0.5644
vn -0.0022 -0.8248 0.5655
vn 0.0051 0.8373 -0.5467
vn 0.0073 0.8202 -0.5721
vn 0.0074 0.8193 -0.5734
vn -0.0051 -0.9127 0.4087
vn -0.0064 -0.9193 0.3934
vn -0.0065 -0.9197 0.3926
vn 0.0079 0.8920 -0.4519
vn 0.0090 0.9006 -0.4345
vn 0.0078 0.8917 -0.4525
vn -0.0091 0.8011 0.5984
vn -0.0064 0.8299 0.5578
vn -0.0063 0.8310 0.5562
vn -0.0103 0.7734 -0.6338
vn -0.0084 0.7859 -0.6182
vn -0.0104 0.7725 -0.6349
vn 0.0069 -0.9679 -0.2512
vn 0.0070 -0.9664 -0.2568
vn 0.0069 -0.9679 -0.2511
vn -0.0053 0.9231 0.3846
vn -0.0006 0.9367 0.3500
vn -0.0002 0.9380 0.3467
vn -0.0070 0.9122 0.4096
vn -0.0095 0.8993 0.4373
vn -0.0096 0.8985 0.4390
vn -0.0106 0.7185 0.6954
vn -0.0053 0.7533 0.6577
vn -0.0049 0.7560 0.6546
vn 0.0068 -0.9496 -0.3134
vn 0.0070 -0.9488 -0.3159
vn 0.0068 -0.9496 -0.3133
vn 0.0051 -0.7427 -0.6696
vn 0.0077 -0.7308 -0.6825
vn 0.0048 -0.7442 -0.6680
vn 0.0013 -0.9337 -0.3582
vn 0.0028 -0.9406 -0.3396
vn 0.0029 -0.9409 -0.3386
vn 0.0026 -0.8783 -0.4781
vn 0.0047 -0.8679 -0.4968
vn 0.0024 -0.8790 -0.4767
vn -0.0102 0.8405 0.5416
vn -0.0123 0.8552 0.5182
vn -0.0101 0.8398 0.5428
vn 0.0062 -0.9163 -0.4004
vn 0.0054 -0.9209 -0.3897
vn 0.0063 -0.9161 -0.4010
vn -0.0098 0.9090 0.4167
vn -0.0106 0.9025 0.4307
vn -0.0106 0.9022 0.4312
vn 0.0196 0.8387 -0.5442
vn 0.0310 0.9347 -0.3540
vn 0.0467 0.9968 -0.0647
vn 0.0463 0.8598 -0.5085
vn 0.0388 0.9653 -0.2582
vn -0.0208 0.9956 0.0914
vn -0.0308 0.9861 -0.1635
vn -0.0313 0.9223 -0.3852
vn -0.0712 0.9974 0.0110
vn -0.0426 0.9603 -0.2756
vn -0.0191 -0.8353 0.5495
vn -0.0307 -0.9336 0.3569
vn -0.0467 -0.9971 0.0594
vn -0.0438 -0.9036 0.4262
vn -0.0385 -0.9653 0.2582
vn 0.0209 -0.9947 -0.1006
vn 0.0310 -0.9863 0.1618
vn 0.0245 -0.8778 0.4784
vn 0.0672 -0.9939 0.0872
vn 0.0428 -0.9601 0.2763
vn 0.9954 0.0241 0.0931
vn 0.0133 0.3562 0.9343
vn 0.0950 -0.2505 -0.9634
vn -0.0003 0.7568 0.6536
vn 0.0089 0.7255 0.6881
vn 0.0060 0.7276 0.6859
vn 0.0003 -0.7568 -0.6536
vn -0.0114 -0.7243 -0.6894
vn -0.0113 -0.7252 -0.6885
vn 0.0026 0.7070 -0.7072
vn -0.0598 0.7007 -0.7109
vn 0.0321 0.7181 -0.6952
vn -0.0118 -0.7015 0.7126
vn 0.0729 -0.7062 0.7042
vn 0.0010 -0.6974 0.7167
vn 0.0103 0.8378 -0.5459
vn 0.0080 0.7503 0.6611
vn -0.0077 -0.9729 0.2312
vn 0.0034 0.9213 -0.3889
vn 0.0105 0.9019 -0.4317
vn 0.0046 0.7286 -0.6849
vn -0.0087 -0.9595 0.2817
vn -0.0088 -0.7719 0.6357
vn -0.0009 -0.9185 0.3954
vn -0.0044 -0.8361 0.5485
vn 0.0050 0.8382 -0.5453
vn -0.0051 -0.9123 0.4095
vn 0.0090 0.9009 -0.4338
vn -0.0092 0.8000 0.5999
vn -0.0082 0.7868 -0.6171
vn 0.0070 -0.9664 -0.2569
vn -0.0057 0.9217 0.3878
vn -0.0069 0.9130 0.4079
vn -0.0110 0.7158 0.6983
vn 0.0070 -0.9487 -0.3161
vn 0.0080 -0.7294 -0.6841
vn 0.0012 -0.9333 -0.3592
vn 0.0048 -0.8671 -0.4981
vn -0.0124 0.8559 0.5169
vn 0.0054 -0.9212 -0.3891
vn -0.0097 0.9093 0.4161
vt 0.020713 0.374763
vt 0.000002 0.359483
vt 0.020713 0.359483
vt 0.320088 0.015281
vt 0.340799 0.000000
vt 0.340799 0.015281
vt 0.859516 0.640515
vt 0.867362 0.625236
vt 0.867362 0.640515
vt 0.963782 0.013385
vt 0.971620 0.000000
vt 0.971620 0.013380
vt 0.963782 0.320061
vt 0.971620 0.299346
vt 0.971620 0.320056
vt 0.626791 0.000000
vt 0.626791 0.015281
vt 0.306705 0.374763
vt 0.306705 0.359483
vt 0.320086 0.374763
vt 0.320086 0.359483
vt 0.640173 0.000000
vt 0.640173 0.015281
vt 0.963782 0.299351
vt 0.878402 0.792377
vt 0.870556 0.812618
vt 0.870556 0.792377
vt 0.875209 0.625236
vt 0.867363 0.640517
vt 0.867363 0.625236
vt 0.626791 0.058306
vt 0.640173 0.058306
vt 0.306705 0.316457
vt 0.320086 0.316457
vt 0.340799 0.058306
vt 0.859516 0.683538
vt 0.867362 0.683538
vt 0.320088 0.058306
vt 0.000002 0.316457
vt 0.020713 0.316457
vt 0.020711 0.207615
vt 0.000000 0.187374
vt 0.020711 0.187374
vt 0.020713 0.273432
vt 0.000002 0.214263
vt 0.020713 0.214263
vt 0.000002 0.273432
vt 0.320087 0.187388
vt 0.340798 0.167148
vt 0.340798 0.187388
vt 0.320088 0.160501
vt 0.340799 0.101331
vt 0.340800 0.160501
vt 0.320088 0.101331
vt 0.856323 0.812605
vt 0.864169 0.792366
vt 0.864169 0.812605
vt 0.859516 0.785726
vt 0.867362 0.726560
vt 0.867362 0.785726
vt 0.859516 0.726560
vt 0.626790 0.167148
vt 0.626790 0.187388
vt 0.626792 0.101331
vt 0.626792 0.160501
vt 0.320084 0.207615
vt 0.306703 0.187374
vt 0.320084 0.187374
vt 0.320086 0.273432
vt 0.306705 0.214262
vt 0.320086 0.214262
vt 0.306705 0.273432
vt 0.640171 0.167148
vt 0.640171 0.187388
vt 0.640173 0.101331
vt 0.640173 0.160501
vt 0.875209 0.640517
vt 0.867363 0.683542
vt 0.875209 0.683542
vt 0.867363 0.726567
vt 0.875209 0.785737
vt 0.867363 0.785737
vt 0.875209 0.726567
vt 0.306703 0.207615
vt 0.320087 0.167148
vt 0.000000 0.207615
vt 0.000002 0.015281
vt 0.020713 0.000000
vt 0.020713 0.015281
vt 0.340800 0.374763
vt 0.320089 0.359482
vt 0.340800 0.359482
vt 0.867362 0.999974
vt 0.859516 0.984694
vt 0.867362 0.984694
vt 0.328870 0.374763
vt 0.336712 0.388146
vt 0.328870 0.388139
vt 0.328870 0.674008
vt 0.336712 0.694717
vt 0.328870 0.694710
vt 0.626792 0.374763
vt 0.626792 0.359482
vt 0.306705 0.000000
vt 0.306705 0.015281
vt 0.320087 0.000000
vt 0.320087 0.015281
vt 0.640173 0.374763
vt 0.640173 0.359482
vt 0.336712 0.674015
vt 0.878402 0.832859
vt 0.870556 0.832859
vt 0.867363 0.984719
vt 0.875209 1.000000
vt 0.867363 1.000000
vt 0.626792 0.316457
vt 0.640173 0.316457
vt 0.306705 0.058306
vt 0.320087 0.058306
vt 0.340800 0.316457
vt 0.859516 0.941672
vt 0.867362 0.941672
vt 0.320089 0.316457
vt 0.000002 0.058306
vt 0.020713 0.058306
vt 0.020711 0.167133
vt 0.000002 0.160501
vt 0.020713 0.101331
vt 0.020713 0.160501
vt 0.000002 0.101331
vt 0.340798 0.207629
vt 0.340800 0.273432
vt 0.320088 0.214263
vt 0.340800 0.214263
vt 0.320089 0.273432
vt 0.864169 0.832844
vt 0.867362 0.898650
vt 0.859516 0.839484
vt 0.867362 0.839484
vt 0.859516 0.898650
vt 0.626790 0.207629
vt 0.626792 0.273432
vt 0.626792 0.214263
vt 0.320084 0.167133
vt 0.306705 0.160501
vt 0.320086 0.101331
vt 0.320086 0.160501
vt 0.306705 0.101331
vt 0.640171 0.207629
vt 0.640173 0.273432
vt 0.640173 0.214263
vt 0.867363 0.941694
vt 0.875209 0.984719
vt 0.867363 0.898669
vt 0.875209 0.941694
vt 0.875209 0.839499
vt 0.867363 0.839499
vt 0.875209 0.898669
vt 0.306703 0.167133
vt 0.856323 0.832844
vt 0.320087 0.207629
vt 0.000000 0.167133
vt 0.000002 0.374763
vt 0.320088 0.000000
vt 0.859516 0.625236
vt 0.963782 0.000005
vt 0.878402 0.812618
vt 0.856323 0.792366
vt 0.000002 0.000000
vt 0.320089 0.374763
vt 0.859516 0.999974
vt 0.336712 0.374770
vt 0.642138 0.112211
vt 0.922110 0.160628
vt 0.641444 0.156262
vt 0.642737 0.073916
vt 0.922805 0.116577
vt 0.643688 0.012469
vt 0.923881 0.047565
vt 0.643214 0.043199
vt 0.924316 0.004366
vt 0.924355 0.016835
vt 0.923403 0.078282
vt 0.640767 0.200383
vt 0.921433 0.204750
vt 0.640173 0.238696
vt 0.643072 0.289775
vt 0.923799 0.279206
vt 0.643760 0.300420
vt 0.924355 0.291404
vt 0.644315 0.312618
vt 0.920839 0.243062
vt 0.642417 0.473247
vt 0.922389 0.424830
vt 0.923083 0.468881
vt 0.641723 0.429195
vt 0.921791 0.386533
vt 0.640647 0.360183
vt 0.920839 0.325087
vt 0.921314 0.355817
vt 0.640212 0.316984
vt 0.920878 0.312618
vt 0.641125 0.390899
vt 0.923761 0.513002
vt 0.924355 0.551314
vt 0.643095 0.517368
vt 0.921455 0.602394
vt 0.640728 0.591824
vt 0.641416 0.581179
vt 0.920768 0.613038
vt 0.640173 0.604021
vt 0.643688 0.555680
vt 0.884621 0.637715
vt 0.881352 0.668460
vt 0.878486 0.668482
vt 0.881737 0.900107
vt 0.883098 0.889450
vt 0.884642 0.900084
vt 0.904787 0.781463
vt 0.917405 0.737459
vt 0.920363 0.737479
vt 0.916790 0.825640
vt 0.901416 0.781440
vt 0.287766 0.374765
vt 0.290742 0.655438
vt 0.287766 0.655440
vt 0.328870 0.653580
vt 0.326059 0.374763
vt 0.328870 0.374774
vt 0.898046 0.781444
vt 0.885387 0.737454
vt 0.901416 0.781417
vt 0.886083 0.825628
vt 0.883125 0.825651
vt 0.918080 0.637713
vt 0.917363 0.625236
vt 0.920344 0.625257
vt 0.921011 0.925647
vt 0.921542 0.937831
vt 0.918106 0.925627
vt 0.885326 0.625236
vt 0.887660 0.637691
vt 0.881214 0.912299
vt 0.878402 0.912321
vt 0.921497 0.699177
vt 0.924355 0.699197
vt 0.919748 0.825660
vt 0.920348 0.863974
vt 0.921376 0.668456
vt 0.915041 0.637692
vt 0.919644 0.915001
vt 0.922510 0.915021
vt 0.882429 0.737477
vt 0.881260 0.699179
vt 0.882561 0.863963
vt 0.879703 0.863986
vt 0.878402 0.699201
vt 0.880231 0.889473
vt 0.924242 0.668476
vt 0.923206 0.863994
vt 0.761385 0.658007
vt 0.640173 0.752183
vt 0.640173 0.625236
vt 0.382437 0.794214
vt 0.457212 0.663238
vt 0.488433 0.755113
vt 0.105995 0.814281
vt 0.190562 0.693810
vt 0.216474 0.787326
vt 0.609644 0.787708
vt 0.488433 0.693531
vt 0.609644 0.660761
vt 0.105995 0.824533
vt 0.031221 0.693559
vt 0.105995 0.691081
vt 0.326951 0.814281
vt 0.242385 0.693812
vt 0.326951 0.691081
vt 0.323121 0.496222
vt 0.321596 0.374792
vt 0.323121 0.374763
vt 0.287529 0.374763
vt 0.286001 0.500836
vt 0.286001 0.374763
vt 0.348768 0.660760
vt 0.350281 0.753495
vt 0.348768 0.753479
vt 0.327342 0.754797
vt 0.328870 0.653581
vt 0.328870 0.754798
vt 0.286001 0.500905
vt 0.287527 0.614515
vt 0.286001 0.614585
vt 0.324645 0.374817
vt 0.323121 0.497980
vt 0.321596 0.680333
vt 0.323122 0.612648
vt 0.323122 0.680408
vt 0.350281 0.757209
vt 0.351794 0.660760
vt 0.351794 0.757198
vt 0.324533 0.508947
vt 0.326059 0.622559
vt 0.324533 0.622634
vt 0.323120 0.496310
vt 0.321596 0.612515
vt 0.321596 0.496251
vt 0.343001 0.739406
vt 0.344528 0.660834
vt 0.344528 0.739479
vt 0.351794 0.757226
vt 0.353307 0.660761
vt 0.353307 0.757204
vt 0.578600 0.906525
vt 0.504938 0.795626
vt 0.578600 0.787708
vt 0.206557 0.815985
vt 0.124574 0.909589
vt 0.728714 0.752183
vt 0.644971 0.841439
vt 0.761385 0.879714
vt 0.835048 0.768815
vt 0.851554 0.854046
vt 0.382437 0.795917
vt 0.464419 0.889523
vt 0.382437 0.897192
vt 0.761385 0.625236
vt 0.838894 0.719958
vt 0.761385 0.760897
vt 0.320181 0.489421
vt 0.321596 0.374763
vt 0.321596 0.489400
vt 0.320177 0.685570
vt 0.321596 0.590956
vt 0.321596 0.685592
vt 0.345931 0.747003
vt 0.344528 0.660760
vt 0.345931 0.660784
vt 0.341604 0.730171
vt 0.340186 0.660802
vt 0.341604 0.660760
vt 0.323121 0.498150
vt 0.324530 0.598456
vt 0.323121 0.598572
vt 0.320181 0.590927
vt 0.321600 0.489428
vt 0.321600 0.590934
vt 0.343002 0.660861
vt 0.341604 0.743106
vt 0.348768 0.660787
vt 0.347349 0.753449
vt 0.347349 0.660760
vt 0.347349 0.750032
vt 0.345931 0.660801
vt 0.324645 0.508810
vt 0.326059 0.374825
vt 0.326059 0.508872
vt 0.286001 0.614618
vt 0.287419 0.684996
vt 0.286001 0.685030
vt 0.324530 0.598574
vt 0.323128 0.687956
vt 0.323128 0.598572
vt 0.959076 0.472880
vt 0.937848 0.515903
vt 0.932768 0.472880
vt 0.285994 0.691081
vt 0.000003 0.673498
vt 0.285995 0.673497
vt 0.932509 -0.000000
vt 0.959458 0.031400
vt 0.924355 0.042255
vt 0.320087 0.660896
vt 0.290742 0.374763
vt 0.320087 0.374929
vt 0.929061 0.128946
vt 0.950289 0.171972
vt 0.932933 0.171971
vt 0.411291 0.660759
vt 0.400793 0.374766
vt 0.411291 0.374767
vt 0.961680 0.057511
vt 0.929107 0.064088
vt 0.285997 0.575961
vt 0.000008 0.532948
vt 0.286001 0.532948
vt 0.931882 0.074580
vt 0.963782 0.074580
vt 0.000001 0.647381
vt 0.285993 0.647381
vt 0.955628 0.343943
vt 0.928679 0.375341
vt 0.926909 0.357754
vt 0.285992 0.607629
vt 0.000005 0.575961
vt 0.956255 0.418518
vt 0.926457 0.401450
vt 0.959030 0.408027
vt 0.928023 0.151731
vt 0.928023 0.171971
vt 0.400793 0.660758
vt 0.378949 0.374763
vt 0.378949 0.660755
vt 0.336712 0.374768
vt 0.960114 0.495664
vt 0.955204 0.515903
vt 0.488433 0.374765
vt 0.465651 0.660758
vt 0.465651 0.374766
vt 0.433974 0.374768
vt 0.963782 0.386195
vt 0.954789 0.441196
vt 0.924667 0.441196
vt 0.933348 0.097260
vt 0.955369 0.128946
vt -0.000000 0.630307
vt 0.285992 0.630307
vt 0.924355 0.418518
vt 0.433974 0.660760
vt 0.959076 0.558925
vt 0.000003 0.392355
vt 0.285994 0.374763
vt 0.285995 0.392355
vt 0.959458 0.312543
vt 0.932509 0.343943
vt 0.924355 0.301688
vt 0.382437 0.660761
vt 0.353306 0.947009
vt 0.353306 0.661140
vt 0.929061 0.214997
vt 0.576078 0.374766
vt 0.565592 0.660760
vt 0.565592 0.374768
vt 0.961680 0.286432
vt 0.929107 0.279855
vt 0.285997 0.489911
vt 0.931882 0.269363
vt 0.000002 0.418461
vt 0.285994 0.418461
vt 0.955628 0.687862
vt 0.928679 0.656465
vt 0.963782 0.645611
vt 0.000005 0.489911
vt 0.285993 0.458205
vt 0.926457 0.630356
vt 0.956255 0.613288
vt 0.959030 0.623779
vt 0.928023 0.192213
vt 0.597901 0.374763
vt 0.576078 0.660758
vt 0.640173 0.374768
vt 0.597901 0.660755
vt 0.960114 0.536142
vt 0.960114 0.515903
vt 0.511220 0.660758
vt 0.511220 0.374766
vt 0.542916 0.374768
vt 0.954789 0.590610
vt 0.932768 0.558925
vt 0.955369 0.214997
vt 0.933348 0.246684
vt 0.963782 0.269363
vt 0.000000 0.435525
vt 0.285992 0.435525
vt 0.924355 0.613288
vt 0.924667 0.590610
vt 0.542916 0.660760
vt 0.643650 -0.000000
vt 0.923112 0.268561
vt 0.640173 0.329453
vt 0.920212 0.625236
vt 0.326059 0.653569
vt 0.924355 0.937851
vt 0.882346 0.625260
vt 0.745027 0.749537
vt 0.382437 0.660760
vt 0.504791 0.785061
vt 0.000000 0.785435
vt 0.216474 0.787329
vt 0.287528 0.500836
vt 0.350281 0.660776
vt 0.327342 0.653580
vt 0.287527 0.500836
vt 0.324645 0.498034
vt 0.321596 0.612574
vt 0.350281 0.660770
vt 0.323120 0.612574
vt 0.343001 0.660760
vt 0.351794 0.660784
vt 0.488433 0.880859
vt 0.206557 0.917258
vt 0.719529 0.887532
vt 0.482999 0.794214
vt 0.849725 0.631233
vt 0.320181 0.374784
vt 0.320177 0.590934
vt 0.344528 0.746979
vt 0.340186 0.730212
vt 0.324530 0.498034
vt 0.343002 0.743206
vt 0.348768 0.753476
vt 0.345931 0.750073
vt 0.324645 0.374763
vt 0.287419 0.614585
vt 0.324530 0.687958
vt 0.000001 0.691081
vt 0.961228 0.013812
vt 0.290742 0.660730
vt 0.000000 0.607629
vt 0.336712 0.660760
vt 0.488433 0.660757
vt 0.963470 0.097260
vt 0.961228 0.330131
vt 0.382437 0.946629
vt 0.926909 0.674051
vt 0.000000 0.458205
vt 0.640173 0.660760
vt 0.488433 0.660758
vt 0.963470 0.246684
s 1
usemtl DarkRed
f 97/1/1 106/2/2 107/3/3
f 105/4/4 98/5/5 103/6/6
f 106/7/7 94/8/7 105/9/7
f 100/10/8 93/11/9 99/12/10
f 95/13/11 98/14/12 94/15/13
f 103/6/6 99/16/14 104/17/15
f 100/18/16 107/3/3 108/19/17
f 96/20/18 108/19/17 102/21/19
f 104/17/15 93/22/20 101/23/21
f 97/24/22 99/12/10 98/14/12
f 126/25/23 173/26/23 123/27/23
f 96/28/23 101/29/23 93/30/23
f 134/31/24 101/23/21 125/32/25
f 102/21/19 120/33/26 128/34/27
f 131/35/28 104/17/15 134/31/24
f 114/36/7 105/9/7 111/37/7
f 111/38/29 103/6/6 131/35/28
f 107/3/3 114/39/30 117/40/31
f 119/41/32 176/42/33 178/43/34
f 118/44/35 143/45/36 142/46/37
f 117/40/31 115/47/38 118/44/35
f 174/48/39 129/49/40 177/50/41
f 144/51/42 130/52/43 163/53/44
f 112/54/45 131/35/28 130/52/43
f 176/55/7 113/56/7 174/57/7
f 143/58/7 112/59/7 144/60/7
f 115/61/7 111/37/7 112/59/7
f 177/50/41 132/62/46 180/63/47
f 163/53/44 133/64/48 164/65/49
f 130/52/43 134/31/24 133/64/48
f 126/66/50 179/67/51 175/68/52
f 127/69/53 141/70/54 139/71/55
f 128/34/27 121/72/56 127/69/53
f 180/63/47 123/73/57 173/74/58
f 164/65/49 124/75/59 140/76/60
f 133/64/48 125/32/25 124/75/59
f 102/77/23 125/78/23 101/29/23
f 128/79/23 124/80/23 125/78/23
f 139/81/23 123/27/23 140/82/23
f 132/62/61 140/76/62 123/73/63
f 127/83/23 140/82/23 124/80/23
f 118/44/35 121/72/56 120/33/26
f 142/46/64 122/84/65 141/70/66
f 139/71/67 122/84/65 126/66/68
f 129/49/69 164/65/70 132/62/61
f 113/56/7 143/58/7 144/60/7
f 113/85/71 163/53/72 129/49/69
f 142/46/64 116/86/73 119/41/74
f 186/87/75 169/88/76 187/89/77
f 170/90/78 185/91/79 183/92/80
f 166/93/7 186/94/7 185/95/7
f 165/96/81 172/97/82 171/98/83
f 170/99/84 167/100/85 166/101/86
f 171/102/87 183/92/80 184/103/88
f 187/89/77 172/104/89 188/105/90
f 188/105/90 168/106/91 182/107/92
f 165/108/93 184/103/88 181/109/94
f 171/98/83 169/110/95 170/99/84
f 173/26/23 208/111/23 205/112/23
f 181/113/23 168/114/23 165/115/23
f 181/109/94 216/116/96 207/117/97
f 202/118/98 182/107/92 210/119/99
f 184/103/88 213/120/100 216/116/96
f 185/95/7 196/121/7 193/122/7
f 183/92/80 193/123/101 213/120/100
f 196/124/102 187/89/77 199/125/103
f 176/42/33 201/126/104 178/43/34
f 225/127/105 200/128/106 224/129/107
f 197/130/108 199/125/103 200/128/106
f 211/131/109 174/48/39 177/50/41
f 212/132/110 226/133/111 247/134/112
f 213/120/100 194/135/113 212/132/110
f 195/136/7 176/55/7 174/57/7
f 194/137/7 225/138/7 226/139/7
f 193/122/7 197/140/7 194/137/7
f 214/141/114 177/50/41 180/63/47
f 215/142/115 247/134/112 248/143/116
f 216/116/96 212/132/110 215/142/115
f 179/67/51 208/144/117 175/68/52
f 223/145/118 209/146/119 221/147/120
f 203/148/121 210/119/99 209/146/119
f 205/149/122 180/63/47 173/74/58
f 206/150/123 248/143/116 222/151/124
f 207/117/97 215/142/115 206/150/123
f 207/152/23 182/153/23 181/113/23
f 206/154/23 210/155/23 207/152/23
f 205/112/23 221/156/23 222/157/23
f 222/151/125 214/141/126 205/149/127
f 222/157/23 209/158/23 206/154/23
f 202/118/98 203/148/121 200/128/106
f 204/159/128 224/129/129 223/145/130
f 204/159/128 221/147/131 208/144/132
f 248/143/133 211/131/134 214/141/126
f 195/136/7 225/138/7 198/160/7
f 247/134/135 195/161/136 211/131/134
f 198/162/137 224/129/129 201/126/138
f 97/1/1 95/163/139 106/2/2
f 105/4/4 94/164/140 98/5/5
f 106/7/7 95/165/7 94/8/7
f 100/10/8 96/166/141 93/11/9
f 95/13/11 97/24/22 98/14/12
f 103/6/6 98/5/5 99/16/14
f 100/18/16 97/1/1 107/3/3
f 96/20/18 100/18/16 108/19/17
f 104/17/15 99/16/14 93/22/20
f 97/24/22 100/10/8 99/12/10
f 126/25/23 175/167/23 173/26/23
f 96/28/23 102/77/23 101/29/23
f 134/31/24 104/17/15 101/23/21
f 102/21/19 108/19/17 120/33/26
f 131/35/28 103/6/6 104/17/15
f 114/36/7 106/7/7 105/9/7
f 111/38/29 105/4/4 103/6/6
f 107/3/3 106/2/2 114/39/30
f 119/41/32 116/86/142 176/42/33
f 118/44/35 115/47/38 143/45/36
f 117/40/31 114/39/30 115/47/38
f 174/48/39 113/85/143 129/49/40
f 144/51/42 112/54/45 130/52/43
f 112/54/45 111/38/29 131/35/28
f 176/55/7 116/168/7 113/56/7
f 143/58/7 115/61/7 112/59/7
f 115/61/7 114/36/7 111/37/7
f 177/50/41 129/49/40 132/62/46
f 163/53/44 130/52/43 133/64/48
f 130/52/43 131/35/28 134/31/24
f 126/66/50 122/84/144 179/67/51
f 127/69/53 121/72/56 141/70/54
f 128/34/27 120/33/26 121/72/56
f 180/63/47 132/62/46 123/73/57
f 164/65/49 133/64/48 124/75/59
f 133/64/48 134/31/24 125/32/25
f 102/77/23 128/79/23 125/78/23
f 128/79/23 127/83/23 124/80/23
f 139/81/23 126/25/23 123/27/23
f 132/62/61 164/65/70 140/76/62
f 127/83/23 139/81/23 140/82/23
f 108/19/17 107/3/3 117/40/31
f 118/44/35 142/46/37 141/70/54
f 108/19/17 117/40/31 118/44/35
f 120/33/26 108/19/17 118/44/35
f 118/44/35 141/70/54 121/72/56
f 142/46/64 119/41/74 122/84/65
f 139/71/67 141/70/66 122/84/65
f 129/49/69 163/53/72 164/65/70
f 113/56/7 116/168/7 143/58/7
f 113/85/71 144/51/145 163/53/72
f 142/46/64 143/45/146 116/86/73
f 186/87/75 167/169/147 169/88/76
f 170/90/78 166/170/148 185/91/79
f 166/93/7 167/171/7 186/94/7
f 165/96/81 168/172/149 172/97/82
f 170/99/84 169/110/95 167/100/85
f 171/102/87 170/90/78 183/92/80
f 187/89/77 169/88/76 172/104/89
f 188/105/90 172/104/89 168/106/91
f 165/108/93 171/102/87 184/103/88
f 171/98/83 172/97/82 169/110/95
f 173/26/23 175/167/23 208/111/23
f 181/113/23 182/153/23 168/114/23
f 181/109/94 184/103/88 216/116/96
f 202/118/98 188/105/90 182/107/92
f 184/103/88 183/92/80 213/120/100
f 185/95/7 186/94/7 196/121/7
f 183/92/80 185/91/79 193/123/101
f 196/124/102 186/87/75 187/89/77
f 176/42/33 198/162/150 201/126/104
f 225/127/105 197/130/108 200/128/106
f 197/130/108 196/124/102 199/125/103
f 211/131/109 195/161/151 174/48/39
f 212/132/110 194/135/113 226/133/111
f 213/120/100 193/123/101 194/135/113
f 195/136/7 198/160/7 176/55/7
f 194/137/7 197/140/7 225/138/7
f 193/122/7 196/121/7 197/140/7
f 214/141/114 211/131/109 177/50/41
f 215/142/115 212/132/110 247/134/112
f 216/116/96 213/120/100 212/132/110
f 179/67/51 204/159/152 208/144/117
f 223/145/118 203/148/121 209/146/119
f 203/148/121 202/118/98 210/119/99
f 205/149/122 214/141/114 180/63/47
f 206/150/123 215/142/115 248/143/116
f 207/117/97 216/116/96 215/142/115
f 207/152/23 210/155/23 182/153/23
f 206/154/23 209/158/23 210/155/23
f 205/112/23 208/111/23 221/156/23
f 222/151/125 248/143/133 214/141/126
f 222/157/23 221/156/23 209/158/23
f 199/125/103 187/89/77 188/105/90
f 199/125/103 188/105/90 202/118/98
f 223/145/118 224/129/107 200/128/106
f 200/128/106 199/125/103 202/118/98
f 203/148/121 223/145/118 200/128/106
f 204/159/128 201/126/138 224/129/129
f 204/159/128 223/145/130 221/147/131
f 248/143/133 247/134/135 211/131/134
f 195/136/7 226/139/7 225/138/7
f 247/134/135 226/133/153 195/161/136
f 198/162/137 225/127/154 224/129/129
usemtl Beige
f 2/173/155 11/174/156 12/175/157
f 4/176/158 1/177/159 2/173/160
f 6/178/161 10/179/162 9/180/163
f 6/178/164 7/181/165 5/182/166
f 9/180/167 3/183/168 4/176/169
f 11/174/170 14/184/171 12/175/172
f 13/185/173 16/186/174 14/184/175
f 21/187/176 17/188/177 18/189/178
f 18/189/179 19/190/180 20/191/181
f 15/192/182 21/187/183 16/186/184
f 24/193/185 25/194/186 23/195/187
f 26/196/188 27/197/189 25/194/190
f 32/198/191 29/199/192 31/200/193
f 29/199/194 34/201/195 33/202/196
f 28/203/197 31/200/198 27/197/199
f 35/204/200 24/193/201 23/195/202
f 37/205/203 36/206/204 35/204/205
f 41/207/206 40/208/207 42/209/208
f 39/210/209 44/211/210 40/208/211
f 41/207/212 38/212/213 37/205/214
f 5/213/7 32/214/7 10/215/7
f 17/216/215 42/217/215 40/218/215
f 12/219/23 25/220/23 2/221/23
f 12/219/23 35/222/23 23/223/23
f 8/224/216 34/225/217 7/226/218
f 19/227/219 43/228/220 20/229/221
f 11/230/7 26/231/7 24/232/7
f 11/230/7 36/233/7 13/234/7
f 6/235/222 33/236/222 8/237/222
f 18/238/223 43/239/224 39/240/223
f 5/213/225 34/241/225 30/242/225
f 17/216/226 44/243/226 19/244/226
f 2/221/23 27/245/23 4/246/23
f 14/247/23 37/248/23 35/222/23
f 6/235/23 31/249/23 29/250/23
f 18/238/227 41/251/228 21/252/229
f 1/253/7 28/254/7 26/231/7
f 13/234/7 38/255/7 15/256/7
f 10/215/7 28/254/7 3/257/7
f 22/258/230 38/255/231 42/217/230
f 9/259/23 27/245/23 31/249/23
f 21/252/229 37/248/232 16/260/232
f 46/261/233 47/262/233 45/263/233
f 49/264/234 52/265/235 51/266/236
f 53/267/237 56/268/238 55/269/239
f 59/270/240 58/271/240 57/272/240
f 61/273/241 64/274/242 62/275/243
f 65/276/244 68/277/245 66/278/246
f 47/279/247 57/280/248 45/281/248
f 46/282/249 57/283/249 58/284/249
f 46/285/250 60/286/251 48/287/251
f 47/288/252 60/289/252 59/290/252
f 51/291/253 61/292/253 49/293/253
f 50/294/254 61/295/255 62/281/254
f 52/296/256 62/297/257 64/298/256
f 51/299/258 64/300/258 63/301/258
f 55/302/259 65/303/259 53/304/259
f 54/305/260 65/306/261 66/307/260
f 56/308/262 66/309/262 68/310/262
f 55/311/263 68/312/264 67/313/263
f 69/314/265 72/315/266 71/316/267
f 73/317/268 76/318/269 75/267/270
f 77/319/271 80/320/272 79/262/273
f 81/321/274 84/322/275 82/323/276
f 85/324/277 88/325/278 86/326/279
f 89/327/280 92/328/281 90/329/282
f 69/330/283 83/331/284 81/332/283
f 70/333/285 81/334/286 82/335/285
f 70/336/287 84/337/288 72/338/288
f 72/339/289 83/340/290 71/341/290
f 75/342/291 85/343/291 73/344/291
f 74/345/292 85/346/292 86/347/292
f 76/348/293 86/349/294 88/341/295
f 75/350/296 88/351/296 87/352/296
f 79/353/297 89/354/297 77/352/297
f 78/355/298 89/356/298 90/357/298
f 78/358/299 92/359/300 80/360/300
f 79/361/301 92/362/302 91/363/301
f 150/364/7 190/365/7 136/366/7
f 110/367/303 135/368/304 137/369/305
f 146/370/23 137/371/23 148/372/23
f 145/373/306 110/374/307 146/375/308
f 147/376/23 192/377/23 230/378/23
f 161/379/309 154/380/310 160/381/311
f 148/372/23 152/382/23 154/383/23
f 138/384/312 190/385/313 192/386/314
f 160/387/23 152/382/23 157/388/23
f 137/369/315 151/389/316 152/390/317
f 145/391/7 135/392/7 109/393/7
f 158/394/318 136/395/319 138/384/320
f 161/396/7 151/397/7 153/398/7
f 122/399/23 230/378/23 179/400/23
f 153/401/321 148/402/322 154/380/323
f 149/403/324 146/404/325 148/402/326
f 119/405/7 227/406/7 150/364/7
f 122/407/327 150/408/328 147/409/329
f 150/408/330 159/410/331 147/409/332
f 149/411/7 151/397/7 135/392/7
f 162/412/7 136/366/7 156/413/7
f 159/414/23 138/415/23 147/376/23
f 157/388/23 159/414/23 160/387/23
f 155/416/333 158/394/334 157/417/335
f 162/412/7 155/418/7 161/396/7
f 160/381/336 162/419/337 161/379/338
f 152/390/339 155/416/340 157/417/341
f 234/420/7 190/365/7 227/406/7
f 217/421/342 191/422/343 219/423/344
f 219/424/23 229/425/23 232/426/23
f 191/427/345 228/428/346 229/429/347
f 192/377/23 231/430/23 230/378/23
f 238/431/348 245/432/349 244/433/350
f 236/434/23 232/426/23 238/435/23
f 190/385/351 220/436/352 192/386/353
f 244/437/23 236/434/23 238/435/23
f 235/438/354 219/423/355 236/439/356
f 228/440/7 217/441/7 233/442/7
f 218/443/357 242/444/358 220/436/359
f 235/445/7 245/446/7 237/447/7
f 230/378/23 204/448/23 179/400/23
f 232/449/360 237/450/361 238/431/362
f 229/451/363 233/452/364 232/449/365
f 201/453/7 227/406/7 178/454/7
f 234/455/366 204/407/367 231/456/368
f 243/457/369 234/455/370 231/456/371
f 233/442/7 235/445/7 237/447/7
f 246/458/7 218/459/7 234/420/7
f 220/460/23 243/461/23 231/430/23
f 243/461/23 241/462/23 244/437/23
f 242/444/372 239/463/373 241/464/374
f 246/458/7 239/465/7 240/466/7
f 246/467/375 244/433/376 245/432/377
f 239/463/378 236/439/379 241/464/380
f 2/173/155 1/177/381 11/174/156
f 4/176/158 3/183/382 1/177/159
f 6/178/161 5/182/383 10/179/162
f 6/178/164 8/468/384 7/181/165
f 9/180/167 10/179/385 3/183/168
f 11/174/170 13/185/386 14/184/171
f 13/185/173 15/192/387 16/186/174
f 21/187/176 22/469/388 17/188/177
f 18/189/179 17/188/389 19/190/180
f 15/192/182 22/469/390 21/187/183
f 24/193/185 26/196/391 25/194/186
f 26/196/188 28/203/392 27/197/189
f 32/198/191 30/470/393 29/199/192
f 29/199/194 30/470/394 34/201/195
f 28/203/197 32/198/395 31/200/198
f 35/204/200 36/206/396 24/193/201
f 37/205/203 38/212/397 36/206/204
f 41/207/206 39/210/398 40/208/207
f 39/210/209 43/471/399 44/211/210
f 41/207/212 42/209/400 38/212/213
f 5/213/7 30/242/7 32/214/7
f 17/216/215 22/258/401 42/217/215
f 12/219/23 23/223/23 25/220/23
f 12/219/23 14/247/23 35/222/23
f 8/224/216 33/374/402 34/225/217
f 19/227/219 44/472/403 43/228/220
f 11/230/7 1/253/7 26/231/7
f 11/230/7 24/232/7 36/233/7
f 6/235/222 29/250/222 33/236/222
f 18/238/223 20/473/224 43/239/224
f 5/213/225 7/474/225 34/241/225
f 17/216/226 40/218/226 44/243/226
f 2/221/23 25/220/23 27/245/23
f 14/247/23 16/260/23 37/248/23
f 6/235/23 9/259/23 31/249/23
f 18/238/227 39/240/227 41/251/228
f 1/253/7 3/257/7 28/254/7
f 13/234/7 36/233/7 38/255/7
f 10/215/7 32/214/7 28/254/7
f 22/258/230 15/256/231 38/255/231
f 9/259/23 4/246/23 27/245/23
f 21/252/229 41/251/228 37/248/232
f 46/261/233 48/475/404 47/262/233
f 49/264/234 50/476/405 52/265/235
f 53/267/237 54/275/406 56/268/238
f 59/270/240 60/477/407 58/271/240
f 61/273/241 63/478/408 64/274/242
f 65/276/244 67/479/409 68/277/245
f 47/279/247 59/307/247 57/280/248
f 46/282/249 45/480/249 57/283/249
f 46/285/250 58/481/250 60/286/251
f 47/288/252 48/482/252 60/289/252
f 51/291/253 63/483/253 61/292/253
f 50/294/254 49/484/255 61/295/255
f 52/296/256 50/485/257 62/297/257
f 51/299/258 52/486/258 64/300/258
f 55/302/259 67/357/259 65/303/259
f 54/305/260 53/487/261 65/306/261
f 56/308/262 54/488/262 66/309/262
f 55/311/263 56/489/264 68/312/264
f 69/314/265 70/490/410 72/315/266
f 73/317/268 74/491/411 76/318/269
f 77/319/271 78/492/412 80/320/272
f 81/321/274 83/329/413 84/322/275
f 85/324/277 87/493/414 88/325/278
f 89/327/280 91/494/415 92/328/281
f 69/330/283 71/495/284 83/331/284
f 70/333/285 69/496/286 81/334/286
f 70/336/287 82/497/287 84/337/288
f 72/339/289 84/498/289 83/340/290
f 75/342/291 87/499/291 85/343/291
f 74/345/292 73/330/292 85/346/292
f 76/348/293 74/500/294 86/349/294
f 75/350/296 76/501/296 88/351/296
f 79/353/297 91/502/297 89/354/297
f 78/355/298 77/503/298 89/356/298
f 78/358/299 90/504/299 92/359/300
f 79/361/301 80/505/302 92/362/302
f 150/364/7 227/406/7 190/365/7
f 110/367/303 109/506/416 135/368/304
f 146/370/23 110/507/23 137/371/23
f 145/373/306 109/508/417 110/374/307
f 147/376/23 138/415/23 192/377/23
f 161/379/309 153/401/418 154/380/310
f 148/372/23 137/371/23 152/382/23
f 138/384/312 136/395/419 190/385/313
f 160/387/23 154/383/23 152/382/23
f 137/369/315 135/368/420 151/389/316
f 145/391/7 149/411/7 135/392/7
f 158/394/318 156/509/421 136/395/319
f 161/396/7 155/418/7 151/397/7
f 122/399/23 147/376/23 230/378/23
f 153/401/321 149/403/422 148/402/322
f 149/403/324 145/510/423 146/404/325
f 119/405/7 178/454/7 227/406/7
f 122/407/327 119/511/424 150/408/328
f 150/408/330 162/419/425 159/410/331
f 149/411/7 153/398/7 151/397/7
f 162/412/7 150/364/7 136/366/7
f 159/414/23 158/512/23 138/415/23
f 157/388/23 158/512/23 159/414/23
f 155/416/333 156/509/426 158/394/334
f 162/412/7 156/413/7 155/418/7
f 160/381/336 159/410/427 162/419/337
f 152/390/339 151/389/428 155/416/340
f 234/420/7 218/459/7 190/365/7
f 217/421/342 189/163/429 191/422/343
f 219/424/23 191/513/23 229/425/23
f 191/427/345 189/514/430 228/428/346
f 192/377/23 220/460/23 231/430/23
f 238/431/348 237/450/431 245/432/349
f 236/434/23 219/424/23 232/426/23
f 190/385/351 218/443/432 220/436/352
f 244/437/23 241/462/23 236/434/23
f 235/438/354 217/421/433 219/423/355
f 228/440/7 189/515/7 217/441/7
f 218/443/357 240/516/434 242/444/358
f 235/445/7 239/465/7 245/446/7
f 230/378/23 231/430/23 204/448/23
f 232/449/360 233/452/435 237/450/361
f 229/451/363 228/517/436 233/452/364
f 201/453/7 234/420/7 227/406/7
f 234/455/366 201/518/437 204/407/367
f 243/457/369 246/467/438 234/455/370
f 233/442/7 217/441/7 235/445/7
f 246/458/7 240/466/7 218/459/7
f 220/460/23 242/519/23 243/461/23
f 243/461/23 242/519/23 241/462/23
f 242/444/372 240/516/439 239/463/373
f 246/458/7 245/446/7 239/465/7
f 246/467/375 243/457/440 244/433/376
f 239/463/378 235/438/441 236/439/379
