# Blender 4.4.1
# www.blender.org
mtllib enemy0.mtl
o Book1_Open_Cube.106
v 3.161430 0.523881 0.963323
v -3.329160 0.561164 0.950233
v 3.161430 0.634600 1.832613
v -3.329160 0.694962 1.819591
v 3.161430 0.525749 3.235523
v -3.329160 0.618222 3.229795
v 3.156020 0.583791 3.518137
v -3.334560 0.683867 3.511308
v -3.329160 0.725394 2.520920
v 3.161430 0.649251 2.531936
v 3.161430 0.152258 -0.032295
v -3.329160 0.150835 -0.033779
v 3.161430 0.476093 -1.044721
v -3.329160 0.436822 -1.060594
v 3.161430 0.535615 -1.920409
v -3.329160 0.472256 -1.938076
v 3.242890 0.471987 -2.741903
v -3.224010 0.355478 -3.340565
v 3.260070 0.542309 -3.021473
v -3.206820 0.417871 -3.622717
v -3.243750 0.401376 -3.100021
v 3.223140 0.511322 -2.500445
v -3.329160 0.073887 -0.028600
v 3.161430 0.075589 -0.030894
v -3.329160 0.493948 0.954329
v 3.161430 0.456284 0.965002
v -3.329160 0.629869 1.823425
v 3.161430 0.569452 1.834358
v -3.329160 0.548923 3.233745
v 3.161430 0.456547 3.237505
v -3.329160 0.660042 2.524688
v 3.161430 0.583968 2.533762
v -3.334560 0.615924 3.515178
v 3.156020 0.515915 3.520088
v -3.329160 0.369132 -1.056495
v 3.161430 0.408970 -1.043046
v -3.329160 0.407045 -1.934210
v 3.161430 0.470597 -1.918693
v -3.224010 0.289250 -3.336758
v 3.242890 0.405836 -2.740117
v -3.243750 0.336022 -3.096255
v 3.223140 0.446056 -2.498691
v -3.206820 0.353753 -3.619033
v 3.260070 0.478259 -3.019738
v -2.756910 1.007787 -4.118077
v -2.763040 0.124737 -1.339888
v 0.075110 0.773635 -3.378975
v -0.621640 0.067069 -1.156130
v 2.660880 1.066361 -4.185397
v -0.149730 0.645135 -2.974151
v 2.849220 0.147271 -1.720199
v 0.616220 0.095271 -1.507110
v 2.509570 1.125229 -3.870959
v -0.148160 0.785033 -2.896123
v 2.847760 0.207100 -1.403371
v 0.614670 0.155103 -1.190291
v -2.756900 0.974116 -4.128777
v -2.763030 0.091056 -1.350590
v 0.075120 0.739966 -3.389684
v -0.621630 0.033400 -1.166839
v 2.660960 1.032727 -4.196221
v -0.149630 0.611502 -2.984976
v 2.849300 0.113638 -1.731023
v 0.616310 0.061638 -1.517934
v 2.509370 1.091556 -3.881649
v -0.148380 0.751360 -2.906813
v 2.847560 0.173428 -1.414060
v 0.614450 0.121430 -1.200981
v 2.371310 0.761870 4.313883
v 2.377010 0.150381 2.212724
v -0.269150 0.572966 3.574575
v 0.377470 0.105551 2.039808
v 1.957220 0.885790 3.953286
v 2.261480 0.232438 1.702468
v -0.353370 0.643442 3.723216
v 0.358910 0.098063 1.651131
v -2.707350 0.712501 3.954847
v 0.395850 0.491364 3.523547
v -2.868830 0.108848 1.980703
v -0.802670 0.095441 1.929724
v 2.371310 0.730226 4.322573
v 2.377000 0.118737 2.221412
v -0.269150 0.541330 3.583253
v 0.377470 0.073907 2.048497
v 1.957220 0.854232 3.962275
v 2.261480 0.200880 1.711457
v -0.353370 0.611884 3.732206
v 0.358910 0.066506 1.660131
v -2.707350 0.680856 3.963526
v 0.395850 0.459719 3.532227
v -2.868830 0.077212 1.989381
v -0.802670 0.063807 1.938411
v -3.700631 -0.594901 4.237219
v 3.700630 -0.623129 4.231288
v 3.700630 -0.444307 4.231493
v -3.700631 -0.416047 4.236224
v 3.221730 -0.443589 4.231613
v 3.221730 -0.623468 4.231217
v -3.391221 -0.595291 4.237137
v -3.391221 -0.415837 4.236259
v -3.700630 -0.597162 3.889400
v -3.700630 -0.417663 3.888535
v 3.221730 -0.625659 3.882960
v -3.391220 -0.598787 3.889032
v 3.700630 -0.623291 3.883495
v 3.700630 -0.443769 3.883850
v 3.221730 -0.441030 3.884341
v -3.391220 -0.416209 3.888796
v 3.221730 0.699469 3.554444
v -3.391221 0.722844 3.553494
v 3.700630 -0.624063 2.904008
v 3.700630 -0.625067 1.923959
v 3.700630 -0.551856 0.420379
v 3.700630 -0.442900 2.904896
v 3.700630 -0.442702 1.925751
v 3.700630 -0.371497 0.424921
v 3.221730 -0.435808 2.906520
v 3.221730 -0.431985 1.929279
v 3.221730 -0.361619 0.437010
v -3.391220 -0.417524 2.910705
v -3.391220 -0.419146 1.933504
v -3.391220 -0.357966 0.441479
v -3.700630 -0.546590 0.429230
v -3.700630 -0.608872 1.930827
v -3.700630 -0.602976 2.910151
v -3.700630 -0.365541 0.432208
v -3.700630 -0.426182 1.931188
v -3.700630 -0.421819 2.909722
v 3.221730 -0.555240 0.414688
v 3.221730 -0.634378 1.920011
v 3.221730 -0.630659 2.902086
v -3.391220 -0.549926 0.423621
v -3.391220 -0.615665 1.927946
v -3.391220 -0.607353 2.908876
v 3.221730 0.622857 3.156633
v 3.221730 0.288409 0.943714
v -3.391221 0.645491 3.155788
v -3.391220 0.295417 0.942977
v -3.700630 -0.435815 0.585277
v -3.700630 -0.617773 0.582289
v -3.391220 -0.428572 0.592796
v 3.221730 -0.433266 0.587924
v 3.700630 -0.443343 0.577462
v 3.700630 -0.624534 0.573019
v 3.221730 0.054973 3.924485
v -3.391221 0.079581 3.927785
v -3.391220 -0.295854 0.973441
v -3.391221 -0.210226 2.975888
v 3.221731 -0.229277 2.971474
v 3.221730 -0.303552 0.969323
v 3.221731 0.610552 2.557199
v -3.391221 0.629748 2.555794
v 3.221731 -0.169194 2.462769
v -3.391221 -0.152782 2.466498
v 3.221731 0.613136 2.165296
v 3.221731 0.546929 1.651505
v -3.391221 0.629593 2.163422
v -3.391221 0.557655 1.649843
v -3.391221 -0.128593 1.698770
v -3.391221 -0.113315 2.221033
v 3.221731 -0.128451 2.217715
v 3.221731 -0.140798 1.695636
v 3.221730 -0.629800 0.565799
v -3.391220 -0.622644 0.575609
v -3.700630 -0.402999 -4.325325
v 3.700630 -0.378290 -4.328738
v 3.700630 -0.202139 -4.318573
v -3.700630 -0.224273 -4.316427
v 3.221730 -0.206286 -4.318171
v 3.221730 -0.386036 -4.327668
v -3.391220 -0.408116 -4.324618
v -3.391220 -0.228684 -4.316000
v -3.700630 -0.545956 -0.042034
v 3.700630 -0.545249 -0.050762
v -3.700630 -0.367422 -0.040173
v 3.700630 -0.366860 -0.045888
v 3.221730 -0.545308 -0.050033
v 3.221730 -0.366788 -0.046613
v -3.391220 -0.367323 -0.041173
v -3.391220 -0.546030 -0.041129
v -3.700630 -0.424795 -3.977533
v -3.700630 -0.245299 -3.968920
v 3.221730 -0.407893 -3.980122
v -3.391220 -0.427754 -3.977080
v 3.700630 -0.402897 -3.980887
v 3.700630 -0.223736 -3.971258
v 3.221730 -0.222574 -3.971384
v -3.391220 -0.244105 -3.969050
v 3.221730 0.974980 -3.567595
v 3.221730 0.139433 -0.031083
v -3.391220 0.952956 -3.569952
v -3.391220 0.139131 -0.031253
v 3.700630 -0.459351 -3.003021
v 3.700630 -0.513627 -2.025131
v 3.700630 -0.523884 -0.521278
v 3.700630 -0.278029 -2.993953
v 3.700630 -0.330774 -2.016895
v 3.700630 -0.342866 -0.515889
v 3.221730 -0.270093 -2.995183
v 3.221730 -0.318141 -2.020014
v 3.221730 -0.329527 -0.528308
v -3.391220 -0.289021 -2.992250
v -3.391220 -0.333250 -2.016284
v -3.391220 -0.333912 -0.524225
v -3.700630 -0.528165 -0.515853
v -3.700630 -0.526939 -2.020674
v -3.700630 -0.476597 -2.999325
v -3.700630 -0.345583 -0.513358
v -3.700630 -0.343010 -2.013874
v -3.700630 -0.294874 -2.991343
v 3.221730 -0.529198 -0.514545
v 3.221730 -0.525177 -2.021264
v 3.221730 -0.467603 -3.001253
v -3.391220 -0.534147 -0.508273
v -3.391220 -0.536264 -2.017552
v -3.391220 -0.482410 -2.998080
v 3.221730 0.858973 -3.177259
v 3.221730 0.361486 -0.992951
v -3.391220 0.844266 -3.178782
v -3.391220 0.349634 -0.994907
v -3.700630 -0.409430 -0.669075
v -3.700630 -0.593028 -0.671807
v -3.391220 -0.398400 -0.678089
v 3.221730 -0.392534 -0.682884
v 3.700630 -0.405706 -0.672119
v 3.700630 -0.587629 -0.677622
v 3.221730 -0.255170 -0.043395
v 3.221730 0.375119 -3.986137
v -3.391220 0.350218 -3.984531
v -3.391220 -0.255671 -0.039134
v -3.391220 -0.244658 -1.052829
v -3.391220 -0.029480 -3.049843
v 3.221730 -0.013275 -3.052398
v 3.221730 -0.237009 -1.056053
v 3.221730 0.805391 -2.579585
v -3.391220 0.784791 -2.582443
v 3.221730 0.001660 -2.539184
v -3.391220 -0.014013 -2.536793
v 3.221730 0.780082 -2.188037
v 3.221730 0.679568 -1.679183
v -3.391220 0.757962 -2.191984
v -3.391220 0.653202 -1.684922
v -3.391220 -0.046090 -1.767517
v -3.391220 0.006382 -2.289198
v 3.221730 0.021550 -2.291389
v 3.221730 -0.032997 -1.769850
v 3.221730 -0.595188 -0.669481
v -3.391220 -0.600913 -0.663315
vn 0.0041 1.0000 0.0062
vn 0.0045 1.0000 0.0024
vn 0.0055 1.0000 0.0055
vn 0.0037 -1.0000 0.0018
vn -0.0005 -1.0000 0.0051
vn 0.0010 -1.0000 0.0050
vn 1.0000 -0.0000 -0.0000
vn 0.0004 0.0050 1.0000
vn -0.0000 0.0053 1.0000
vn 0.0005 0.0048 1.0000
vn -0.0001 -0.0014 1.0000
vn 0.0005 -0.0021 1.0000
vn -0.0001 -0.0011 1.0000
vn -0.0027 -0.9999 0.0100
vn -0.0041 -1.0000 0.0088
vn 0.0015 1.0000 -0.0009
vn -0.0004 1.0000 -0.0014
vn -0.0025 1.0000 -0.0027
vn -0.0056 1.0000 -0.0033
vn -0.0031 -1.0000 0.0084
vn -0.0061 -1.0000 0.0073
vn 0.0006 -0.0021 1.0000
vn -1.0000 -0.0000 -0.0000
vn -0.0082 -0.9999 0.0079
vn -0.0149 -0.9999 0.0070
vn -0.0055 1.0000 -0.0021
vn -0.0147 0.9999 -0.0032
vn 0.0054 -1.0000 0.0040
vn 0.0125 -0.9999 0.0024
vn 0.0135 0.9999 0.0021
vn 0.0098 0.9999 0.0039
vn 0.0104 0.9999 -0.0005
vn 0.0118 0.9994 0.0318
vn 0.0001 0.9994 0.0333
vn 0.0121 0.9999 0.0011
vn 0.0213 0.9998 -0.0008
vn 0.0109 0.9999 -0.0010
vn 0.0213 0.9998 0.0012
vn 0.0045 -0.9996 -0.0289
vn 0.0014 -0.9998 -0.0195
vn -0.0000 -0.9996 -0.0278
vn 0.0129 -0.9999 -0.0027
vn 0.0077 -1.0000 0.0009
vn 0.0042 -1.0000 -0.0028
vn 0.0186 -0.9998 0.0013
vn -0.0055 -0.9999 -0.0087
vn -0.0027 -0.9998 -0.0177
vn -0.0116 -0.9999 0.0060
vn -0.0087 -0.9999 0.0058
vn -0.0154 0.9998 -0.0138
vn -0.0111 0.9997 0.0225
vn -0.0003 0.9998 0.0210
vn -0.0227 0.9997 -0.0058
vn -0.0108 0.9999 -0.0067
vn -0.0232 0.9997 -0.0072
vn -0.0099 0.9999 -0.0049
vn -0.0069 -1.0000 -0.0057
vn -0.0002 -0.9998 -0.0195
vn -0.0214 -0.9998 0.0057
vn -0.0156 -0.9999 0.0066
vn -0.0114 -0.9028 -0.4300
vn -0.0194 -0.9051 -0.4248
vn -0.0174 -0.9066 -0.4216
vn 0.0149 0.9034 0.4285
vn -0.0159 0.9065 0.4220
vn -0.0152 0.9061 0.4228
vn -0.0337 0.9075 0.4188
vn -0.0347 0.9083 0.4170
vn 0.0050 -0.8968 -0.4424
vn -0.0125 -0.9020 -0.4316
vn 0.0154 -0.9015 -0.4326
vn 0.0055 -0.8974 -0.4411
vn 0.0286 0.9040 0.4265
vn 0.0152 0.9033 0.4288
vn -0.0009 0.9984 0.0557
vn -0.0027 0.9987 0.0499
vn 0.0006 0.9988 0.0490
vn 0.0079 -0.9979 -0.0643
vn 0.0120 -0.9980 -0.0625
vn 0.0072 -0.9981 -0.0612
vn 0.0024 0.0491 -0.9988
vn 0.0011 0.0483 -0.9988
vn 0.0013 0.0480 -0.9988
vn -0.0012 0.0533 -0.9986
vn -0.0027 0.0565 -0.9984
vn -0.0032 0.0576 -0.9983
vn -0.0067 -0.9984 -0.0565
vn -0.0042 -0.9984 -0.0570
vn 0.0055 0.9990 0.0444
vn -0.0014 0.9989 0.0474
vn 0.0058 0.9986 0.0518
vn -0.0053 0.9985 0.0536
vn -0.0132 -0.9982 -0.0592
vn -0.0103 -0.9982 -0.0589
vn -0.0010 0.0527 -0.9986
vn -0.0079 -0.9985 -0.0548
vn -0.0196 -0.9984 -0.0535
vn -0.0099 0.9989 0.0466
vn -0.0200 0.9986 0.0483
vn 0.0102 -0.9982 -0.0591
vn 0.0160 -0.9982 -0.0577
vn 0.0144 0.9985 0.0523
vn 0.0074 0.9987 0.0497
vn 0.0131 0.9979 0.0642
vn 0.0262 0.9981 0.0556
vn 0.0121 0.9986 0.0521
vn 0.0128 0.9984 0.0555
vn 0.0246 0.9983 0.0531
vn 0.0030 -0.9993 -0.0373
vn 0.0123 -0.9984 -0.0557
vn 0.0168 -0.9985 -0.0524
vn 0.0082 -0.9986 -0.0515
vn 0.0227 -0.9982 -0.0563
vn -0.0094 -0.9996 -0.0256
vn -0.0136 -0.9986 -0.0507
vn -0.0119 -0.9988 -0.0482
vn -0.0226 0.9979 0.0607
vn -0.0181 0.9986 0.0494
vn -0.0313 0.9983 0.0489
vn -0.0341 0.9982 0.0493
vn -0.0161 0.9987 0.0477
vn -0.0118 -0.9995 -0.0299
vn -0.0292 -0.9983 -0.0496
vn -0.0241 -0.9985 -0.0489
vn -0.0295 -0.9214 0.3875
vn -0.0154 -0.9191 0.3936
vn -0.0273 -0.9230 0.3839
vn -0.0234 0.9225 -0.3852
vn 0.0171 0.9260 -0.3770
vn -0.0225 0.9220 -0.3864
vn -0.0469 0.9233 -0.3812
vn -0.0482 0.9242 -0.3789
vn -0.0167 -0.9183 0.3954
vn 0.0084 -0.9200 0.3919
vn 0.0090 -0.9206 0.3903
vn 0.0199 -0.9245 0.3806
vn 0.0342 0.9268 -0.3739
vn 0.0174 0.9259 -0.3774
vn 0.0015 1.0000 0.0015
vn 0.0007 -1.0000 0.0005
vn -0.0001 0.0056 1.0000
vn 0.0209 0.9997 0.0098
vn 0.0072 -0.9999 -0.0140
vn -0.0239 0.9995 -0.0194
vn 0.0164 -0.9028 -0.4298
vn 0.0283 0.9043 0.4259
vn -0.0086 0.9980 0.0621
vn 0.0160 -0.9974 -0.0706
vn 0.0021 0.0497 -0.9988
vn 0.0265 0.9983 0.0510
vn 0.0104 -0.9989 -0.0454
vn -0.0352 0.9970 0.0690
vn 0.0210 -0.9258 0.3775
vn 0.0339 0.9272 -0.3730
vn 0.0005 0.9245 -0.3813
vn 0.0054 0.9355 -0.3534
vn -0.0001 0.9230 -0.3849
vn 0.0063 0.9887 -0.1499
vn 0.0092 0.9917 -0.1286
vn 0.0060 0.9883 -0.1521
vn 0.0115 0.9884 0.1511
vn 0.0137 0.9851 0.1712
vn 0.0113 0.9887 0.1495
vn 0.0152 0.9740 -0.2261
vn 0.0142 0.9794 -0.2016
vn 0.0141 0.9795 -0.2009
vn 0.0095 0.9991 -0.0418
vn 0.0116 0.9997 -0.0225
vn 0.0094 0.9990 -0.0433
vn -0.0059 0.9536 0.3009
vn -0.0009 0.9623 0.2721
vn -0.0003 0.9633 0.2683
vn -0.0096 0.9978 0.0655
vn -0.0065 0.9991 0.0427
vn -0.0061 0.9992 0.0403
vn -0.0004 0.9824 -0.1868
vn -0.0018 0.9869 -0.1616
vn -0.0003 0.9823 -0.1875
vn -0.0387 0.9760 0.2143
vn -0.0398 0.9698 0.2407
vn -0.0386 0.9762 0.2135
vn -0.0126 0.9989 -0.0452
vn -0.0098 0.9981 -0.0605
vn -0.0096 0.9981 -0.0616
vn -0.0053 -0.9326 0.3608
vn -0.0003 -0.9211 0.3893
vn 0.0004 -0.9195 0.3930
vn -0.0092 -0.9913 0.1313
vn -0.0063 -0.9883 0.1523
vn -0.0060 -0.9880 0.1545
vn -0.0137 -0.9842 -0.1765
vn -0.0115 -0.9876 -0.1564
vn -0.0114 -0.9879 -0.1548
vn -0.0151 -0.9729 0.2306
vn -0.0141 -0.9784 0.2061
vn -0.0152 -0.9728 0.2313
vn -0.0116 -0.9997 0.0223
vn -0.0095 -0.9991 0.0415
vn -0.0094 -0.9990 0.0430
vn 0.0008 -0.9600 -0.2799
vn 0.0058 -0.9510 -0.3090
vn 0.0002 -0.9611 -0.2761
vn 0.0065 -0.9989 -0.0455
vn 0.0096 -0.9976 -0.0679
vn 0.0062 -0.9990 -0.0432
vn 0.0001 -0.9817 0.1903
vn 0.0016 -0.9863 0.1651
vn 0.0016 -0.9864 0.1645
vn 0.0392 -0.9745 -0.2211
vn 0.0403 -0.9681 -0.2474
vn 0.0403 -0.9679 -0.2482
vn 0.0098 -0.9981 0.0607
vn 0.0126 -0.9989 0.0456
vn 0.0096 -0.9980 0.0617
vn 0.9967 0.0022 0.0812
vn 0.0001 0.0567 0.9984
vn -0.0006 0.0289 0.9996
vn -0.0006 0.0287 0.9996
vn 0.0928 -0.0272 -0.9953
vn 0.0935 -0.0569 -0.9940
vn 0.0935 -0.0571 -0.9940
vn -0.9998 -0.0011 -0.0189
vn -0.9981 -0.0035 -0.0616
vn 0.9998 0.0005 0.0190
vn 0.9981 0.0017 0.0618
vn -0.9967 -0.0047 -0.0809
vn -0.9973 -0.0042 -0.0733
vn -0.9967 -0.0046 -0.0807
vn 0.9944 0.0028 0.1057
vn -0.9973 -0.0043 -0.0730
vn -0.0003 0.9530 0.3029
vn 0.0104 0.9375 0.3478
vn 0.0100 0.9376 0.3476
vn 0.0114 0.9372 0.3485
vn 0.0089 0.9383 0.3458
vn 0.0085 0.9383 0.3456
vn 0.0113 0.9377 0.3473
vn 0.0003 -0.9530 -0.3029
vn -0.0104 -0.9375 -0.3478
vn -0.0100 -0.9376 -0.3476
vn -0.0089 -0.9379 -0.3469
vn -0.0089 -0.9383 -0.3458
vn -0.0085 -0.9383 -0.3456
vn -0.0060 -0.9389 -0.3440
vn 0.2640 0.2924 -0.9191
vn 0.2640 0.2922 -0.9192
vn -1.0000 0.0004 -0.0021
vn -0.0896 -0.3016 0.9492
vn -0.0896 -0.3019 0.9491
vn 0.9582 -0.0865 0.2728
vn 0.9974 0.0240 -0.0673
vn -0.4150 0.2776 -0.8664
vn -0.4150 0.2778 -0.8664
vn -0.8982 -0.1368 0.4177
vn -0.8982 -0.1371 0.4176
vn 0.0975 -0.3047 0.9475
vn 0.9918 0.0333 -0.1235
vn -0.3620 0.2842 -0.8878
vn -0.3620 0.2840 -0.8879
vn -0.9219 -0.1118 0.3710
vn 0.0975 -0.3017 0.9484
vn 0.0068 0.9592 -0.2828
vn 0.0079 0.9589 -0.2837
vn 0.0118 0.9579 -0.2868
vn -0.0670 0.9573 -0.2811
vn -0.0662 0.9573 -0.2816
vn -0.0729 0.9580 -0.2772
vn 0.0142 0.9601 -0.2792
vn 0.0197 0.9614 -0.2744
vn -0.0010 0.9563 -0.2923
vn -0.0068 -0.9592 0.2828
vn -0.0079 -0.9589 0.2837
vn -0.0026 -0.9602 0.2794
vn 0.0670 -0.9573 0.2811
vn 0.0662 -0.9573 0.2816
vn 0.0598 -0.9564 0.2857
vn -0.0142 -0.9601 0.2792
vn -0.0197 -0.9614 0.2744
vn -0.0321 -0.9641 0.2636
vn -0.2776 0.2544 0.9264
vn -0.2776 0.2541 0.9265
vn 1.0000 0.0004 0.0026
vn 1.0000 0.0007 0.0025
vn 0.0890 -0.2638 -0.9605
vn 0.0890 -0.2637 -0.9605
vn -0.9275 -0.0990 -0.3606
vn -0.9275 -0.0989 -0.3606
vn -0.1235 0.2719 0.9544
vn 0.9917 0.0353 0.1238
vn 0.0453 -0.2740 -0.9607
vn 0.0453 -0.2737 -0.9608
vn -0.9489 -0.0864 -0.3034
vn -0.9489 -0.0865 -0.3034
vn -0.9970 0.0206 0.0752
vn 0.1511 0.2615 0.9533
vn 0.8077 -0.1560 -0.5686
vn 0.8077 -0.1562 -0.5686
vn -0.0255 -0.2645 -0.9641
vn -0.0255 -0.2647 -0.9640
vn 0.0034 0.9816 -0.1908
vn 0.0035 0.9819 -0.1892
vn 0.0034 0.9816 -0.1909
vn 0.0017 0.4983 0.8670
vn 0.0023 0.5026 0.8645
vn 0.0023 0.5029 0.8643
vn -0.0025 -0.9865 -0.1639
vn -0.0023 -0.9873 -0.1589
vn -0.0023 -0.9873 -0.1587
vn 0.0001 0.9875 -0.1577
vn 0.0010 0.9884 -0.1518
vn -0.0000 0.9874 -0.1584
vn 0.0029 0.9997 -0.0259
vn 0.0034 0.9998 -0.0209
vn 0.0029 0.9997 -0.0262
vn 0.0011 0.9377 -0.3475
vn 0.0016 0.9392 -0.3434
vn 0.0010 0.9376 -0.3478
vn -0.0029 -0.9931 -0.1170
vn -0.0025 -0.9937 -0.1123
vn -0.0025 -0.9937 -0.1121
vn -0.0033 -0.9581 0.2863
vn -0.0026 -0.9568 0.2907
vn -0.0026 -0.9566 0.2913
vn -0.0011 -0.9933 0.1156
vn -0.0005 -0.9941 0.1088
vn -0.0011 -0.9933 0.1160
vn -0.0016 -0.9757 0.2191
vn -0.0010 -0.9745 0.2243
vn -0.0010 -0.9744 0.2247
vn 0.0017 0.9917 -0.1283
vn 0.0025 0.9904 -0.1382
vn 0.0025 0.9903 -0.1387
vn -0.0019 -0.9996 0.0290
vn -0.0023 -0.9997 0.0239
vn -0.0023 -0.9997 0.0236
vn 0.0025 1.0000 -0.0001
vn 0.0029 1.0000 0.0063
vn 0.0025 1.0000 -0.0004
vn -0.0033 0.9588 0.2842
vn -0.0022 0.9633 0.2684
vn -0.0022 0.9635 0.2677
vn -0.0023 0.5671 -0.8236
vn -0.0017 0.5718 -0.8204
vn -0.0023 0.5667 -0.8239
vn 0.0023 -0.9966 0.0820
vn 0.0024 -0.9968 0.0801
vn 0.0023 -0.9966 0.0821
vn -0.0016 0.9746 0.2239
vn -0.0002 0.9767 0.2145
vn -0.0001 0.9770 0.2134
vn -0.0023 0.9960 0.0899
vn -0.0031 0.9951 0.0987
vn -0.0031 0.9951 0.0992
vn -0.0038 0.9079 0.4193
vn -0.0019 0.9148 0.4040
vn -0.0018 0.9153 0.4027
vn 0.0024 -0.9995 0.0301
vn 0.0025 -0.9996 0.0291
vn 0.0022 -0.9262 -0.3771
vn 0.0033 -0.9236 -0.3833
vn 0.0021 -0.9265 -0.3764
vn 0.0006 -0.9850 -0.1724
vn 0.0010 -0.9860 -0.1668
vn 0.0011 -0.9860 -0.1665
vn 0.0010 -0.9634 -0.2682
vn 0.0017 -0.9616 -0.2743
vn 0.0010 -0.9635 -0.2677
vn -0.0034 0.9794 0.2019
vn -0.0040 0.9810 0.1942
vn -0.0034 0.9793 0.2023
vn 0.0022 -0.9946 -0.1038
vn 0.0020 -0.9950 -0.1003
vn 0.0022 -0.9946 -0.1040
vn -0.0031 0.9979 0.0647
vn -0.0034 0.9977 0.0684
vn -0.0034 0.9976 0.0686
vn 0.0061 0.9368 -0.3497
vn 0.0095 0.9919 -0.1263
vn 0.0139 0.9848 0.1729
vn 0.0153 0.9738 -0.2268
vn 0.0118 0.9997 -0.0209
vn -0.0065 0.9524 0.3046
vn -0.0099 0.9976 0.0678
vn -0.0019 0.9870 -0.1609
vn -0.0398 0.9696 0.2414
vn -0.0130 0.9990 -0.0432
vn -0.0060 -0.9341 0.3571
vn -0.0094 -0.9916 0.1291
vn -0.0139 -0.9839 -0.1781
vn -0.0140 -0.9786 0.2053
vn -0.0117 -0.9997 0.0207
vn 0.0065 -0.9498 -0.3128
vn 0.0099 -0.9975 -0.0702
vn 0.0001 -0.9816 0.1909
vn 0.0392 -0.9746 -0.2203
vn 0.0130 -0.9990 0.0436
vn 0.0001 0.0569 0.9984
vn 0.0928 -0.0270 -0.9953
vn -0.0003 0.9530 0.3028
vn 0.0089 0.9379 0.3469
vn 0.0060 0.9389 0.3440
vn 0.0003 -0.9530 -0.3028
vn -0.0114 -0.9372 -0.3485
vn -0.0113 -0.9377 -0.3473
vn 0.0026 0.9602 -0.2794
vn -0.0598 0.9564 -0.2857
vn 0.0321 0.9641 -0.2636
vn -0.0118 -0.9579 0.2868
vn 0.0729 -0.9580 0.2772
vn 0.0010 -0.9563 0.2923
vn 0.0035 0.9820 -0.1891
vn 0.0016 0.4979 0.8672
vn -0.0025 -0.9865 -0.1640
vn 0.0011 0.9885 -0.1511
vn 0.0034 0.9998 -0.0205
vn 0.0016 0.9393 -0.3431
vn -0.0029 -0.9931 -0.1173
vn -0.0034 -0.9583 0.2858
vn -0.0005 -0.9941 0.1084
vn -0.0017 -0.9758 0.2187
vn 0.0016 0.9918 -0.1278
vn -0.0018 -0.9996 0.0292
vn 0.0029 1.0000 0.0066
vn -0.0033 0.9586 0.2849
vn -0.0016 0.5722 -0.8201
vn 0.0024 -0.9968 0.0800
vn -0.0018 0.9744 0.2249
vn -0.0022 0.9960 0.0893
vn -0.0040 0.9073 0.4205
vn 0.0034 -0.9233 -0.3841
vn 0.0005 -0.9850 -0.1727
vn 0.0018 -0.9615 -0.2748
vn -0.0041 0.9810 0.1938
vn 0.0019 -0.9950 -0.1001
vn -0.0031 0.9979 0.0645
vt 0.020713 0.374763
vt 0.000002 0.359483
vt 0.020713 0.359483
vt 0.320088 0.015281
vt 0.340799 0.000000
vt 0.340799 0.015281
vt 0.859516 0.640515
vt 0.867362 0.625236
vt 0.867362 0.640515
vt 0.963782 0.013385
vt 0.971620 0.000000
vt 0.971620 0.013380
vt 0.963782 0.320061
vt 0.971620 0.299346
vt 0.971620 0.320056
vt 0.626791 0.000000
vt 0.626791 0.015281
vt 0.306705 0.374763
vt 0.306705 0.359483
vt 0.320086 0.374763
vt 0.320086 0.359483
vt 0.640173 0.000000
vt 0.640173 0.015281
vt 0.963782 0.299351
vt 0.878402 0.792377
vt 0.870556 0.812618
vt 0.870556 0.792377
vt 0.875209 0.625236
vt 0.867363 0.640517
vt 0.867363 0.625236
vt 0.626791 0.058306
vt 0.640173 0.058306
vt 0.306705 0.316457
vt 0.320086 0.316457
vt 0.340799 0.058306
vt 0.859516 0.683538
vt 0.867362 0.683538
vt 0.320088 0.058306
vt 0.000002 0.316457
vt 0.020713 0.316457
vt 0.020711 0.207615
vt 0.000000 0.187374
vt 0.020711 0.187374
vt 0.020713 0.273432
vt 0.000002 0.214263
vt 0.020713 0.214263
vt 0.000002 0.273432
vt 0.320087 0.187388
vt 0.340798 0.167148
vt 0.340798 0.187388
vt 0.320088 0.160501
vt 0.340799 0.101331
vt 0.340800 0.160501
vt 0.320088 0.101331
vt 0.856323 0.812605
vt 0.864169 0.792366
vt 0.864169 0.812605
vt 0.859516 0.785726
vt 0.867362 0.726560
vt 0.867362 0.785726
vt 0.859516 0.726560
vt 0.626790 0.167148
vt 0.626790 0.187388
vt 0.626792 0.101331
vt 0.626792 0.160501
vt 0.320084 0.207615
vt 0.306703 0.187374
vt 0.320084 0.187374
vt 0.320086 0.273432
vt 0.306705 0.214262
vt 0.320086 0.214262
vt 0.306705 0.273432
vt 0.640171 0.167148
vt 0.640171 0.187388
vt 0.640173 0.101331
vt 0.640173 0.160501
vt 0.875209 0.640517
vt 0.867363 0.683542
vt 0.875209 0.683542
vt 0.867363 0.726567
vt 0.875209 0.785737
vt 0.867363 0.785737
vt 0.875209 0.726567
vt 0.306703 0.207615
vt 0.320087 0.167148
vt 0.000000 0.207615
vt 0.000002 0.015281
vt 0.020713 0.000000
vt 0.020713 0.015281
vt 0.340800 0.374763
vt 0.320089 0.359482
vt 0.340800 0.359482
vt 0.867362 0.999974
vt 0.859516 0.984694
vt 0.867362 0.984694
vt 0.328870 0.374763
vt 0.336712 0.388146
vt 0.328870 0.388139
vt 0.328870 0.674008
vt 0.336712 0.694717
vt 0.328870 0.694710
vt 0.626792 0.374763
vt 0.626792 0.359482
vt 0.306705 0.000000
vt 0.306705 0.015281
vt 0.320087 0.000000
vt 0.320087 0.015281
vt 0.640173 0.374763
vt 0.640173 0.359482
vt 0.336712 0.674015
vt 0.878402 0.832859
vt 0.870556 0.832859
vt 0.867363 0.984719
vt 0.875209 1.000000
vt 0.867363 1.000000
vt 0.626792 0.316457
vt 0.640173 0.316457
vt 0.306705 0.058306
vt 0.320087 0.058306
vt 0.340800 0.316457
vt 0.859516 0.941672
vt 0.867362 0.941672
vt 0.320089 0.316457
vt 0.000002 0.058306
vt 0.020713 0.058306
vt 0.020711 0.167133
vt 0.000002 0.160501
vt 0.020713 0.101331
vt 0.020713 0.160501
vt 0.000002 0.101331
vt 0.340798 0.207629
vt 0.340800 0.273432
vt 0.320088 0.214263
vt 0.340800 0.214263
vt 0.320089 0.273432
vt 0.864169 0.832844
vt 0.867362 0.898650
vt 0.859516 0.839484
vt 0.867362 0.839484
vt 0.859516 0.898650
vt 0.626790 0.207629
vt 0.626792 0.273432
vt 0.626792 0.214263
vt 0.320084 0.167133
vt 0.306705 0.160501
vt 0.320086 0.101331
vt 0.320086 0.160501
vt 0.306705 0.101331
vt 0.640171 0.207629
vt 0.640173 0.273432
vt 0.640173 0.214263
vt 0.867363 0.941694
vt 0.875209 0.984719
vt 0.867363 0.898669
vt 0.875209 0.941694
vt 0.875209 0.839499
vt 0.867363 0.839499
vt 0.875209 0.898669
vt 0.306703 0.167133
vt 0.856323 0.832844
vt 0.320087 0.207629
vt 0.000000 0.167133
vt 0.000002 0.374763
vt 0.320088 0.000000
vt 0.859516 0.625236
vt 0.963782 0.000005
vt 0.878402 0.812618
vt 0.856323 0.792366
vt 0.000002 0.000000
vt 0.320089 0.374763
vt 0.859516 0.999974
vt 0.336712 0.374770
vt 0.642138 0.112211
vt 0.922110 0.160628
vt 0.641444 0.156262
vt 0.642737 0.073916
vt 0.922805 0.116577
vt 0.643688 0.012469
vt 0.923881 0.047565
vt 0.643214 0.043199
vt 0.924316 0.004366
vt 0.924355 0.016835
vt 0.923403 0.078282
vt 0.640767 0.200383
vt 0.921433 0.204750
vt 0.640173 0.238696
vt 0.643072 0.289775
vt 0.923799 0.279206
vt 0.643760 0.300420
vt 0.924355 0.291404
vt 0.644315 0.312618
vt 0.920839 0.243062
vt 0.642417 0.473247
vt 0.922389 0.424830
vt 0.923083 0.468881
vt 0.641723 0.429195
vt 0.921791 0.386533
vt 0.640647 0.360183
vt 0.920839 0.325087
vt 0.921314 0.355817
vt 0.640212 0.316984
vt 0.920878 0.312618
vt 0.641125 0.390899
vt 0.923761 0.513002
vt 0.924355 0.551314
vt 0.643095 0.517368
vt 0.921455 0.602394
vt 0.640728 0.591824
vt 0.641416 0.581179
vt 0.920768 0.613038
vt 0.640173 0.604021
vt 0.643688 0.555680
vt 0.884621 0.637715
vt 0.881352 0.668460
vt 0.878486 0.668482
vt 0.881737 0.900107
vt 0.883098 0.889450
vt 0.884642 0.900084
vt 0.904787 0.781463
vt 0.917405 0.737459
vt 0.920363 0.737479
vt 0.916790 0.825640
vt 0.901416 0.781440
vt 0.287766 0.374765
vt 0.290742 0.655438
vt 0.287766 0.655440
vt 0.328870 0.653580
vt 0.326059 0.374763
vt 0.328870 0.374774
vt 0.898046 0.781444
vt 0.885387 0.737454
vt 0.901416 0.781417
vt 0.886083 0.825628
vt 0.883125 0.825651
vt 0.918080 0.637713
vt 0.917363 0.625236
vt 0.920344 0.625257
vt 0.921011 0.925647
vt 0.921542 0.937831
vt 0.918106 0.925627
vt 0.885326 0.625236
vt 0.887660 0.637691
vt 0.881214 0.912299
vt 0.878402 0.912321
vt 0.921497 0.699177
vt 0.924355 0.699197
vt 0.919748 0.825660
vt 0.920348 0.863974
vt 0.921376 0.668456
vt 0.915041 0.637692
vt 0.919644 0.915001
vt 0.922510 0.915021
vt 0.882429 0.737477
vt 0.881260 0.699179
vt 0.882561 0.863963
vt 0.879703 0.863986
vt 0.878402 0.699201
vt 0.880231 0.889473
vt 0.924242 0.668476
vt 0.923206 0.863994
vt 0.761385 0.658007
vt 0.640173 0.752183
vt 0.640173 0.625236
vt 0.382437 0.794214
vt 0.457212 0.663238
vt 0.488433 0.755113
vt 0.105995 0.814281
vt 0.190562 0.693810
vt 0.216474 0.787326
vt 0.609644 0.787708
vt 0.488433 0.693531
vt 0.609644 0.660761
vt 0.105995 0.824533
vt 0.031221 0.693559
vt 0.105995 0.691081
vt 0.326951 0.814281
vt 0.242385 0.693812
vt 0.326951 0.691081
vt 0.323121 0.496222
vt 0.321596 0.374792
vt 0.323121 0.374763
vt 0.287529 0.374763
vt 0.286001 0.500836
vt 0.286001 0.374763
vt 0.348768 0.660760
vt 0.350281 0.753495
vt 0.348768 0.753479
vt 0.327342 0.754797
vt 0.328870 0.653581
vt 0.328870 0.754798
vt 0.286001 0.500905
vt 0.287527 0.614515
vt 0.286001 0.614585
vt 0.324645 0.374817
vt 0.323121 0.497980
vt 0.321596 0.680333
vt 0.323122 0.612648
vt 0.323122 0.680408
vt 0.350281 0.757209
vt 0.351794 0.660760
vt 0.351794 0.757198
vt 0.324533 0.508947
vt 0.326059 0.622559
vt 0.324533 0.622634
vt 0.323120 0.496310
vt 0.321596 0.612515
vt 0.321596 0.496251
vt 0.343001 0.739406
vt 0.344528 0.660834
vt 0.344528 0.739479
vt 0.351794 0.757226
vt 0.353307 0.660761
vt 0.353307 0.757204
vt 0.578600 0.906525
vt 0.504938 0.795626
vt 0.578600 0.787708
vt 0.206557 0.815985
vt 0.124574 0.909589
vt 0.728714 0.752183
vt 0.644971 0.841439
vt 0.761385 0.879714
vt 0.835048 0.768815
vt 0.851554 0.854046
vt 0.382437 0.795917
vt 0.464419 0.889523
vt 0.382437 0.897192
vt 0.761385 0.625236
vt 0.838894 0.719958
vt 0.761385 0.760897
vt 0.320181 0.489421
vt 0.321596 0.374763
vt 0.321596 0.489400
vt 0.320177 0.685570
vt 0.321596 0.590956
vt 0.321596 0.685592
vt 0.345931 0.747003
vt 0.344528 0.660760
vt 0.345931 0.660784
vt 0.341604 0.730171
vt 0.340186 0.660802
vt 0.341604 0.660760
vt 0.323121 0.498150
vt 0.324530 0.598456
vt 0.323121 0.598572
vt 0.320181 0.590927
vt 0.321600 0.489428
vt 0.321600 0.590934
vt 0.343002 0.660861
vt 0.341604 0.743106
vt 0.348768 0.660787
vt 0.347349 0.753449
vt 0.347349 0.660760
vt 0.347349 0.750032
vt 0.345931 0.660801
vt 0.324645 0.508810
vt 0.326059 0.374825
vt 0.326059 0.508872
vt 0.286001 0.614618
vt 0.287419 0.684996
vt 0.286001 0.685030
vt 0.324530 0.598574
vt 0.323128 0.687956
vt 0.323128 0.598572
vt 0.959076 0.472880
vt 0.937848 0.515903
vt 0.932768 0.472880
vt 0.285994 0.691081
vt 0.000003 0.673498
vt 0.285995 0.673497
vt 0.932509 -0.000000
vt 0.959458 0.031400
vt 0.924355 0.042255
vt 0.320087 0.660896
vt 0.290742 0.374763
vt 0.320087 0.374929
vt 0.929061 0.128946
vt 0.950289 0.171972
vt 0.932933 0.171971
vt 0.411291 0.660759
vt 0.400793 0.374766
vt 0.411291 0.374767
vt 0.961680 0.057511
vt 0.929107 0.064088
vt 0.285997 0.575961
vt 0.000008 0.532948
vt 0.286001 0.532948
vt 0.931882 0.074580
vt 0.963782 0.074580
vt 0.000001 0.647381
vt 0.285993 0.647381
vt 0.955628 0.343943
vt 0.928679 0.375341
vt 0.926909 0.357754
vt 0.285992 0.607629
vt 0.000005 0.575961
vt 0.956255 0.418518
vt 0.926457 0.401450
vt 0.959030 0.408027
vt 0.928023 0.151731
vt 0.928023 0.171971
vt 0.400793 0.660758
vt 0.378949 0.374763
vt 0.378949 0.660755
vt 0.336712 0.374768
vt 0.960114 0.495664
vt 0.955204 0.515903
vt 0.488433 0.374765
vt 0.465651 0.660758
vt 0.465651 0.374766
vt 0.433974 0.374768
vt 0.963782 0.386195
vt 0.954789 0.441196
vt 0.924667 0.441196
vt 0.933348 0.097260
vt 0.955369 0.128946
vt -0.000000 0.630307
vt 0.285992 0.630307
vt 0.924355 0.418518
vt 0.433974 0.660760
vt 0.959076 0.558925
vt 0.000003 0.392355
vt 0.285994 0.374763
vt 0.285995 0.392355
vt 0.959458 0.312543
vt 0.932509 0.343943
vt 0.924355 0.301688
vt 0.382437 0.660761
vt 0.353306 0.947009
vt 0.353306 0.661140
vt 0.929061 0.214997
vt 0.576078 0.374766
vt 0.565592 0.660760
vt 0.565592 0.374768
vt 0.961680 0.286432
vt 0.929107 0.279855
vt 0.285997 0.489911
vt 0.931882 0.269363
vt 0.000002 0.418461
vt 0.285994 0.418461
vt 0.955628 0.687862
vt 0.928679 0.656465
vt 0.963782 0.645611
vt 0.000005 0.489911
vt 0.285993 0.458205
vt 0.926457 0.630356
vt 0.956255 0.613288
vt 0.959030 0.623779
vt 0.928023 0.192213
vt 0.597901 0.374763
vt 0.576078 0.660758
vt 0.640173 0.374768
vt 0.597901 0.660755
vt 0.960114 0.536142
vt 0.960114 0.515903
vt 0.511220 0.660758
vt 0.511220 0.374766
vt 0.542916 0.374768
vt 0.954789 0.590610
vt 0.932768 0.558925
vt 0.955369 0.214997
vt 0.933348 0.246684
vt 0.963782 0.269363
vt 0.000000 0.435525
vt 0.285992 0.435525
vt 0.924355 0.613288
vt 0.924667 0.590610
vt 0.542916 0.660760
vt 0.643650 -0.000000
vt 0.923112 0.268561
vt 0.640173 0.329453
vt 0.920212 0.625236
vt 0.326059 0.653569
vt 0.924355 0.937851
vt 0.882346 0.625260
vt 0.745027 0.749537
vt 0.382437 0.660760
vt 0.504791 0.785061
vt 0.000000 0.785435
vt 0.216474 0.787329
vt 0.287528 0.500836
vt 0.350281 0.660776
vt 0.327342 0.653580
vt 0.287527 0.500836
vt 0.324645 0.498034
vt 0.321596 0.612574
vt 0.350281 0.660770
vt 0.323120 0.612574
vt 0.343001 0.660760
vt 0.351794 0.660784
vt 0.488433 0.880859
vt 0.206557 0.917258
vt 0.719529 0.887532
vt 0.482999 0.794214
vt 0.849725 0.631233
vt 0.320181 0.374784
vt 0.320177 0.590934
vt 0.344528 0.746979
vt 0.340186 0.730212
vt 0.324530 0.498034
vt 0.343002 0.743206
vt 0.348768 0.753476
vt 0.345931 0.750073
vt 0.324645 0.374763
vt 0.287419 0.614585
vt 0.324530 0.687958
vt 0.000001 0.691081
vt 0.961228 0.013812
vt 0.290742 0.660730
vt 0.000000 0.607629
vt 0.336712 0.660760
vt 0.488433 0.660757
vt 0.963470 0.097260
vt 0.961228 0.330131
vt 0.382437 0.946629
vt 0.926909 0.674051
vt 0.000000 0.458205
vt 0.640173 0.660760
vt 0.488433 0.660758
vt 0.963470 0.246684
s 1
usemtl DarkRed
f 97/1/1 106/2/2 107/3/3
f 105/4/4 98/5/5 103/6/6
f 106/7/7 94/8/7 105/9/7
f 100/10/8 93/11/9 99/12/10
f 95/13/11 98/14/12 94/15/13
f 103/6/6 99/16/14 104/17/15
f 100/18/16 107/3/3 108/19/17
f 96/20/18 108/19/17 102/21/19
f 104/17/15 93/22/20 101/23/21
f 97/24/22 99/12/10 98/14/12
f 126/25/23 173/26/23 123/27/23
f 96/28/23 101/29/23 93/30/23
f 134/31/24 101/23/21 125/32/25
f 102/21/19 120/33/26 128/34/27
f 131/35/28 104/17/15 134/31/24
f 114/36/7 105/9/7 111/37/7
f 111/38/29 103/6/6 131/35/28
f 107/3/3 114/39/30 117/40/31
f 119/41/32 176/42/33 178/43/34
f 118/44/35 143/45/36 142/46/37
f 117/40/31 115/47/38 118/44/35
f 174/48/39 129/49/40 177/50/41
f 144/51/42 130/52/43 163/53/44
f 112/54/45 131/35/28 130/52/43
f 176/55/7 113/56/7 174/57/7
f 143/58/7 112/59/7 144/60/7
f 115/61/7 111/37/7 112/59/7
f 177/50/41 132/62/46 180/63/47
f 163/53/44 133/64/48 164/65/49
f 130/52/43 134/31/24 133/64/48
f 126/66/50 179/67/51 175/68/52
f 127/69/53 141/70/54 139/71/55
f 128/34/27 121/72/56 127/69/53
f 180/63/47 123/73/57 173/74/58
f 164/65/49 124/75/59 140/76/60
f 133/64/48 125/32/25 124/75/59
f 102/77/23 125/78/23 101/29/23
f 128/79/23 124/80/23 125/78/23
f 139/81/23 123/27/23 140/82/23
f 132/62/61 140/76/62 123/73/63
f 127/83/23 140/82/23 124/80/23
f 118/44/35 121/72/56 120/33/26
f 142/46/64 122/84/65 141/70/66
f 139/71/67 122/84/65 126/66/68
f 129/49/69 164/65/70 132/62/61
f 113/56/7 143/58/7 144/60/7
f 113/85/71 163/53/72 129/49/69
f 142/46/64 116/86/73 119/41/74
f 186/87/75 169/88/76 187/89/77
f 170/90/78 185/91/79 183/92/80
f 166/93/7 186/94/7 185/95/7
f 165/96/81 172/97/82 171/98/83
f 170/99/84 167/100/85 166/101/86
f 171/102/87 183/92/80 184/103/88
f 187/89/77 172/104/89 188/105/90
f 188/105/90 168/106/91 182/107/92
f 165/108/93 184/103/88 181/109/94
f 171/98/83 169/110/95 170/99/84
f 173/26/23 208/111/23 205/112/23
f 181/113/23 168/114/23 165/115/23
f 181/109/94 216/116/96 207/117/97
f 202/118/98 182/107/92 210/119/99
f 184/103/88 213/120/100 216/116/96
f 185/95/7 196/121/7 193/122/7
f 183/92/80 193/123/101 213/120/100
f 196/124/102 187/89/77 199/125/103
f 176/42/33 201/126/104 178/43/34
f 225/127/105 200/128/106 224/129/107
f 197/130/108 199/125/103 200/128/106
f 211/131/109 174/48/39 177/50/41
f 212/132/110 226/133/111 247/134/112
f 213/120/100 194/135/113 212/132/110
f 195/136/7 176/55/7 174/57/7
f 194/137/7 225/138/7 226/139/7
f 193/122/7 197/140/7 194/137/7
f 214/141/114 177/50/41 180/63/47
f 215/142/115 247/134/112 248/143/116
f 216/116/96 212/132/110 215/142/115
f 179/67/51 208/144/117 175/68/52
f 223/145/118 209/146/119 221/147/120
f 203/148/121 210/119/99 209/146/119
f 205/149/122 180/63/47 173/74/58
f 206/150/123 248/143/116 222/151/124
f 207/117/97 215/142/115 206/150/123
f 207/152/23 182/153/23 181/113/23
f 206/154/23 210/155/23 207/152/23
f 205/112/23 221/156/23 222/157/23
f 222/151/125 214/141/126 205/149/127
f 222/157/23 209/158/23 206/154/23
f 202/118/98 203/148/121 200/128/106
f 204/159/128 224/129/129 223/145/130
f 204/159/128 221/147/131 208/144/132
f 248/143/133 211/131/134 214/141/126
f 195/136/7 225/138/7 198/160/7
f 247/134/135 195/161/136 211/131/134
f 198/162/137 224/129/129 201/126/138
f 97/1/1 95/163/139 106/2/2
f 105/4/4 94/164/140 98/5/5
f 106/7/7 95/165/7 94/8/7
f 100/10/8 96/166/141 93/11/9
f 95/13/11 97/24/22 98/14/12
f 103/6/6 98/5/5 99/16/14
f 100/18/16 97/1/1 107/3/3
f 96/20/18 100/18/16 108/19/17
f 104/17/15 99/16/14 93/22/20
f 97/24/22 100/10/8 99/12/10
f 126/25/23 175/167/23 173/26/23
f 96/28/23 102/77/23 101/29/23
f 134/31/24 104/17/15 101/23/21
f 102/21/19 108/19/17 120/33/26
f 131/35/28 103/6/6 104/17/15
f 114/36/7 106/7/7 105/9/7
f 111/38/29 105/4/4 103/6/6
f 107/3/3 106/2/2 114/39/30
f 119/41/32 116/86/142 176/42/33
f 118/44/35 115/47/38 143/45/36
f 117/40/31 114/39/30 115/47/38
f 174/48/39 113/85/143 129/49/40
f 144/51/42 112/54/45 130/52/43
f 112/54/45 111/38/29 131/35/28
f 176/55/7 116/168/7 113/56/7
f 143/58/7 115/61/7 112/59/7
f 115/61/7 114/36/7 111/37/7
f 177/50/41 129/49/40 132/62/46
f 163/53/44 130/52/43 133/64/48
f 130/52/43 131/35/28 134/31/24
f 126/66/50 122/84/144 179/67/51
f 127/69/53 121/72/56 141/70/54
f 128/34/27 120/33/26 121/72/56
f 180/63/47 132/62/46 123/73/57
f 164/65/49 133/64/48 124/75/59
f 133/64/48 134/31/24 125/32/25
f 102/77/23 128/79/23 125/78/23
f 128/79/23 127/83/23 124/80/23
f 139/81/23 126/25/23 123/27/23
f 132/62/61 164/65/70 140/76/62
f 127/83/23 139/81/23 140/82/23
f 108/19/17 107/3/3 117/40/31
f 118/44/35 142/46/37 141/70/54
f 108/19/17 117/40/31 118/44/35
f 120/33/26 108/19/17 118/44/35
f 118/44/35 141/70/54 121/72/56
f 142/46/64 119/41/74 122/84/65
f 139/71/67 141/70/66 122/84/65
f 129/49/69 163/53/72 164/65/70
f 113/56/7 116/168/7 143/58/7
f 113/85/71 144/51/145 163/53/72
f 142/46/64 143/45/146 116/86/73
f 186/87/75 167/169/147 169/88/76
f 170/90/78 166/170/148 185/91/79
f 166/93/7 167/171/7 186/94/7
f 165/96/81 168/172/149 172/97/82
f 170/99/84 169/110/95 167/100/85
f 171/102/87 170/90/78 183/92/80
f 187/89/77 169/88/76 172/104/89
f 188/105/90 172/104/89 168/106/91
f 165/108/93 171/102/87 184/103/88
f 171/98/83 172/97/82 169/110/95
f 173/26/23 175/167/23 208/111/23
f 181/113/23 182/153/23 168/114/23
f 181/109/94 184/103/88 216/116/96
f 202/118/98 188/105/90 182/107/92
f 184/103/88 183/92/80 213/120/100
f 185/95/7 186/94/7 196/121/7
f 183/92/80 185/91/79 193/123/101
f 196/124/102 186/87/75 187/89/77
f 176/42/33 198/162/150 201/126/104
f 225/127/105 197/130/108 200/128/106
f 197/130/108 196/124/102 199/125/103
f 211/131/109 195/161/151 174/48/39
f 212/132/110 194/135/113 226/133/111
f 213/120/100 193/123/101 194/135/113
f 195/136/7 198/160/7 176/55/7
f 194/137/7 197/140/7 225/138/7
f 193/122/7 196/121/7 197/140/7
f 214/141/114 211/131/109 177/50/41
f 215/142/115 212/132/110 247/134/112
f 216/116/96 213/120/100 212/132/110
f 179/67/51 204/159/152 208/144/117
f 223/145/118 203/148/121 209/146/119
f 203/148/121 202/118/98 210/119/99
f 205/149/122 214/141/114 180/63/47
f 206/150/123 215/142/115 248/143/116
f 207/117/97 216/116/96 215/142/115
f 207/152/23 210/155/23 182/153/23
f 206/154/23 209/158/23 210/155/23
f 205/112/23 208/111/23 221/156/23
f 222/151/125 248/143/133 214/141/126
f 222/157/23 221/156/23 209/158/23
f 199/125/103 187/89/77 188/105/90
f 199/125/103 188/105/90 202/118/98
f 223/145/118 224/129/107 200/128/106
f 200/128/106 199/125/103 202/118/98
f 203/148/121 223/145/118 200/128/106
f 204/159/128 201/126/138 224/129/129
f 204/159/128 223/145/130 221/147/131
f 248/143/133 247/134/135 211/131/134
f 195/136/7 226/139/7 225/138/7
f 247/134/135 226/133/153 195/161/136
f 198/162/137 225/127/154 224/129/129
usemtl Beige
f 2/173/155 11/174/156 12/175/157
f 4/176/158 1/177/159 2/173/160
f 6/178/161 10/179/162 9/180/163
f 6/178/164 7/181/165 5/182/166
f 9/180/167 3/183/168 4/176/169
f 11/174/170 14/184/171 12/175/172
f 13/185/173 16/186/174 14/184/175
f 21/187/176 17/188/177 18/189/178
f 18/189/179 19/190/180 20/191/181
f 15/192/182 21/187/183 16/186/184
f 24/193/185 25/194/186 23/195/187
f 26/196/188 27/197/189 25/194/190
f 32/198/191 29/199/192 31/200/193
f 29/199/194 34/201/195 33/202/196
f 28/203/197 31/200/198 27/197/199
f 35/204/200 24/193/201 23/195/202
f 37/205/203 36/206/204 35/204/205
f 41/207/206 40/208/207 42/209/208
f 39/210/209 44/211/210 40/208/211
f 41/207/212 38/212/213 37/205/214
f 5/213/7 32/214/7 10/215/7
f 17/216/215 42/217/215 40/218/215
f 12/219/23 25/220/23 2/221/23
f 12/219/23 35/222/23 23/223/23
f 8/224/216 34/225/217 7/226/218
f 19/227/219 43/228/220 20/229/221
f 11/230/7 26/231/7 24/232/7
f 11/230/7 36/233/7 13/234/7
f 6/235/222 33/236/222 8/237/222
f 18/238/223 43/239/223 39/240/223
f 5/213/224 34/241/224 30/242/224
f 17/216/225 44/243/225 19/244/225
f 2/221/23 27/245/23 4/246/23
f 14/247/23 37/248/23 35/222/23
f 6/235/23 31/249/23 29/250/23
f 18/238/226 41/251/227 21/252/228
f 1/253/7 28/254/7 26/231/7
f 13/234/7 38/255/7 15/256/7
f 10/215/7 28/254/7 3/257/7
f 22/258/229 38/255/229 42/217/229
f 9/259/23 27/245/23 31/249/23
f 21/252/228 37/248/230 16/260/230
f 46/261/231 47/262/231 45/263/231
f 49/264/232 52/265/233 51/266/234
f 53/267/235 56/268/236 55/269/237
f 59/270/238 58/271/238 57/272/238
f 61/273/239 64/274/240 62/275/241
f 65/276/242 68/277/243 66/278/244
f 47/279/245 57/280/246 45/281/246
f 46/282/247 57/283/247 58/284/247
f 46/285/248 60/286/249 48/287/249
f 47/288/250 60/289/250 59/290/250
f 51/291/251 61/292/251 49/293/251
f 50/294/252 61/295/253 62/281/252
f 52/296/254 62/297/255 64/298/254
f 51/299/256 64/300/256 63/301/256
f 55/302/257 65/303/257 53/304/257
f 54/305/258 65/306/259 66/307/258
f 56/308/260 66/309/260 68/310/260
f 55/311/261 68/312/261 67/313/261
f 69/314/262 72/315/263 71/316/264
f 73/317/265 76/318/266 75/267/267
f 77/319/268 80/320/269 79/262/270
f 81/321/271 84/322/272 82/323/273
f 85/324/274 88/325/275 86/326/276
f 89/327/277 92/328/278 90/329/279
f 69/330/280 83/331/281 81/332/280
f 70/333/282 81/334/283 82/335/282
f 70/336/284 84/337/285 72/338/285
f 72/339/286 83/340/287 71/341/287
f 75/342/288 85/343/288 73/344/288
f 74/345/289 85/346/289 86/347/289
f 76/348/290 86/349/291 88/341/290
f 75/350/292 88/351/293 87/352/292
f 79/353/294 89/354/294 77/352/294
f 78/355/295 89/356/295 90/357/295
f 78/358/296 92/359/297 80/360/297
f 79/361/298 92/362/299 91/363/298
f 150/364/7 190/365/7 136/366/7
f 110/367/300 135/368/301 137/369/302
f 146/370/23 137/371/23 148/372/23
f 145/373/303 110/374/304 146/375/305
f 147/376/23 192/377/23 230/378/23
f 161/379/306 154/380/307 160/381/308
f 148/372/23 152/382/23 154/383/23
f 138/384/309 190/385/310 192/386/311
f 160/387/23 152/382/23 157/388/23
f 137/369/312 151/389/313 152/390/314
f 145/391/7 135/392/7 109/393/7
f 158/394/315 136/395/316 138/384/317
f 161/396/7 151/397/7 153/398/7
f 122/399/23 230/378/23 179/400/23
f 153/401/318 148/402/319 154/380/320
f 149/403/321 146/404/322 148/402/323
f 119/405/7 227/406/7 150/364/7
f 122/407/324 150/408/325 147/409/326
f 150/408/327 159/410/328 147/409/329
f 149/411/7 151/397/7 135/392/7
f 162/412/7 136/366/7 156/413/7
f 159/414/23 138/415/23 147/376/23
f 157/388/23 159/414/23 160/387/23
f 155/416/330 158/394/331 157/417/332
f 162/412/7 155/418/7 161/396/7
f 160/381/333 162/419/334 161/379/335
f 152/390/336 155/416/337 157/417/338
f 234/420/7 190/365/7 227/406/7
f 217/421/339 191/422/340 219/423/341
f 219/424/23 229/425/23 232/426/23
f 191/427/342 228/428/343 229/429/344
f 192/377/23 231/430/23 230/378/23
f 238/431/345 245/432/346 244/433/347
f 236/434/23 232/426/23 238/435/23
f 190/385/348 220/436/349 192/386/350
f 244/437/23 236/434/23 238/435/23
f 235/438/351 219/423/352 236/439/353
f 228/440/7 217/441/7 233/442/7
f 218/443/354 242/444/355 220/436/356
f 235/445/7 245/446/7 237/447/7
f 230/378/23 204/448/23 179/400/23
f 232/449/357 237/450/358 238/431/357
f 229/451/359 233/452/360 232/449/361
f 201/453/7 227/406/7 178/454/7
f 234/455/362 204/407/363 231/456/364
f 243/457/365 234/455/366 231/456/367
f 233/442/7 235/445/7 237/447/7
f 246/458/7 218/459/7 234/420/7
f 220/460/23 243/461/23 231/430/23
f 243/461/23 241/462/23 244/437/23
f 242/444/368 239/463/369 241/464/370
f 246/458/7 239/465/7 240/466/7
f 246/467/371 244/433/372 245/432/373
f 239/463/374 236/439/375 241/464/376
f 2/173/155 1/177/377 11/174/156
f 4/176/158 3/183/378 1/177/159
f 6/178/161 5/182/379 10/179/162
f 6/178/164 8/468/380 7/181/165
f 9/180/167 10/179/381 3/183/168
f 11/174/170 13/185/382 14/184/171
f 13/185/173 15/192/383 16/186/174
f 21/187/176 22/469/384 17/188/177
f 18/189/179 17/188/385 19/190/180
f 15/192/182 22/469/386 21/187/183
f 24/193/185 26/196/387 25/194/186
f 26/196/188 28/203/388 27/197/189
f 32/198/191 30/470/389 29/199/192
f 29/199/194 30/470/390 34/201/195
f 28/203/197 32/198/391 31/200/198
f 35/204/200 36/206/392 24/193/201
f 37/205/203 38/212/393 36/206/204
f 41/207/206 39/210/394 40/208/207
f 39/210/209 43/471/395 44/211/210
f 41/207/212 42/209/396 38/212/213
f 5/213/7 30/242/7 32/214/7
f 17/216/215 22/258/215 42/217/215
f 12/219/23 23/223/23 25/220/23
f 12/219/23 14/247/23 35/222/23
f 8/224/216 33/374/397 34/225/217
f 19/227/219 44/472/398 43/228/220
f 11/230/7 1/253/7 26/231/7
f 11/230/7 24/232/7 36/233/7
f 6/235/222 29/250/222 33/236/222
f 18/238/223 20/473/223 43/239/223
f 5/213/224 7/474/224 34/241/224
f 17/216/225 40/218/225 44/243/225
f 2/221/23 25/220/23 27/245/23
f 14/247/23 16/260/23 37/248/23
f 6/235/23 9/259/23 31/249/23
f 18/238/226 39/240/226 41/251/227
f 1/253/7 3/257/7 28/254/7
f 13/234/7 36/233/7 38/255/7
f 10/215/7 32/214/7 28/254/7
f 22/258/229 15/256/229 38/255/229
f 9/259/23 4/246/23 27/245/23
f 21/252/228 41/251/227 37/248/230
f 46/261/231 48/475/399 47/262/231
f 49/264/232 50/476/400 52/265/233
f 53/267/235 54/275/401 56/268/236
f 59/270/238 60/477/402 58/271/238
f 61/273/239 63/478/403 64/274/240
f 65/276/242 67/479/404 68/277/243
f 47/279/245 59/307/245 57/280/246
f 46/282/247 45/480/247 57/283/247
f 46/285/248 58/481/248 60/286/249
f 47/288/250 48/482/250 60/289/250
f 51/291/251 63/483/251 61/292/251
f 50/294/252 49/484/253 61/295/253
f 52/296/254 50/485/255 62/297/255
f 51/299/256 52/486/256 64/300/256
f 55/302/257 67/357/257 65/303/257
f 54/305/258 53/487/259 65/306/259
f 56/308/260 54/488/260 66/309/260
f 55/311/261 56/489/261 68/312/261
f 69/314/262 70/490/405 72/315/263
f 73/317/265 74/491/406 76/318/266
f 77/319/268 78/492/407 80/320/269
f 81/321/271 83/329/408 84/322/272
f 85/324/274 87/493/409 88/325/275
f 89/327/277 91/494/410 92/328/278
f 69/330/280 71/495/281 83/331/281
f 70/333/282 69/496/283 81/334/283
f 70/336/284 82/497/284 84/337/285
f 72/339/286 84/498/286 83/340/287
f 75/342/288 87/499/288 85/343/288
f 74/345/289 73/330/289 85/346/289
f 76/348/290 74/500/291 86/349/291
f 75/350/292 76/501/293 88/351/293
f 79/353/294 91/502/294 89/354/294
f 78/355/295 77/503/295 89/356/295
f 78/358/296 90/504/296 92/359/297
f 79/361/298 80/505/299 92/362/299
f 150/364/7 227/406/7 190/365/7
f 110/367/300 109/506/411 135/368/301
f 146/370/23 110/507/23 137/371/23
f 145/373/303 109/508/412 110/374/304
f 147/376/23 138/415/23 192/377/23
f 161/379/306 153/401/413 154/380/307
f 148/372/23 137/371/23 152/382/23
f 138/384/309 136/395/414 190/385/310
f 160/387/23 154/383/23 152/382/23
f 137/369/312 135/368/415 151/389/313
f 145/391/7 149/411/7 135/392/7
f 158/394/315 156/509/416 136/395/316
f 161/396/7 155/418/7 151/397/7
f 122/399/23 147/376/23 230/378/23
f 153/401/318 149/403/417 148/402/319
f 149/403/321 145/510/418 146/404/322
f 119/405/7 178/454/7 227/406/7
f 122/407/324 119/511/419 150/408/325
f 150/408/327 162/419/420 159/410/328
f 149/411/7 153/398/7 151/397/7
f 162/412/7 150/364/7 136/366/7
f 159/414/23 158/512/23 138/415/23
f 157/388/23 158/512/23 159/414/23
f 155/416/330 156/509/421 158/394/331
f 162/412/7 156/413/7 155/418/7
f 160/381/333 159/410/422 162/419/334
f 152/390/336 151/389/423 155/416/337
f 234/420/7 218/459/7 190/365/7
f 217/421/339 189/163/424 191/422/340
f 219/424/23 191/513/23 229/425/23
f 191/427/342 189/514/425 228/428/343
f 192/377/23 220/460/23 231/430/23
f 238/431/345 237/450/426 245/432/346
f 236/434/23 219/424/23 232/426/23
f 190/385/348 218/443/427 220/436/349
f 244/437/23 241/462/23 236/434/23
f 235/438/351 217/421/428 219/423/352
f 228/440/7 189/515/7 217/441/7
f 218/443/354 240/516/429 242/444/355
f 235/445/7 239/465/7 245/446/7
f 230/378/23 231/430/23 204/448/23
f 232/449/357 233/452/358 237/450/358
f 229/451/359 228/517/430 233/452/360
f 201/453/7 234/420/7 227/406/7
f 234/455/362 201/518/431 204/407/363
f 243/457/365 246/467/432 234/455/366
f 233/442/7 217/441/7 235/445/7
f 246/458/7 240/466/7 218/459/7
f 220/460/23 242/519/23 243/461/23
f 243/461/23 242/519/23 241/462/23
f 242/444/368 240/516/433 239/463/369
f 246/458/7 245/446/7 239/465/7
f 246/467/371 243/457/434 244/433/372
f 239/463/374 235/438/435 236/439/375
