# Blender 4.4.1
# www.blender.org
mtllib SkyCube.mtl
o Cube
v 1.000000 -1.000000 -1.000000
v 1.000000 1.000000 -1.000000
v -1.000000 -1.000000 -1.000000
v -1.000000 1.000000 -1.000000
v 1.000000 -1.000000 1.000000
v 1.000000 1.000000 1.000000
v -1.000000 -1.000000 1.000000
v -1.000000 1.000000 1.000000
vn -0.0000 1.0000 -0.0000
vn 1.0000 -0.0000 -0.0000
vn -0.0000 -1.0000 -0.0000
vn -1.0000 -0.0000 -0.0000
vt 0.000000 0.000000
vt 0.500000 0.500000
vt 0.500000 0.000000
vt 0.500000 0.500000
vt 0.000000 1.000000
vt 0.500000 1.000000
vt 0.500000 0.000000
vt 1.000000 0.500000
vt 1.000000 0.000000
vt 1.000000 0.500000
vt 0.500000 1.000000
vt 1.000000 1.000000
vt 0.000000 0.500000
vt 0.000000 0.500000
vt 0.500000 0.500000
vt 0.500000 0.500000
s 0
usemtl Material
f 3/1/1 5/2/1 1/3/1
f 8/4/2 3/5/2 4/6/2
f 8/7/3 2/8/3 6/9/3
f 2/10/4 5/11/4 6/12/4
f 3/1/1 7/13/1 5/2/1
f 8/4/2 7/14/2 3/5/2
f 8/7/3 4/15/3 2/8/3
f 2/10/4 1/16/4 5/11/4
